<?xml version="1.0" encoding="UTF-8"?>
<svg id="Layer_1" data-name="Layer 1" xmlns="http://www.w3.org/2000/svg" viewBox="0 0 1920 703.32">
  <defs>
    <style>
      .cls-1 {
        fill: #2643d1;
      }

      .cls-2 {
        fill: #1d293f;
      }
    </style>
  </defs>
  <g>
    <g>
      <path class="cls-1" d="M251.72,197.71l-53.41,181.92h-6.55l-52.15-181.92H58.75v298.02h67.18v-148.4l46.39,148.4h44.47l42.46-137.54v137.54h73.31V197.71h-80.85Z"/>
      <path class="cls-1" d="M886.1,197.19l-50.84,198.17h-9.08l-50.28-198.17h-83.24l98.36,299.1h78.32l97.8-299.1h-81.04Z"/>
      <path class="cls-1" d="M1259.03,370.73v-46.3c0-27.48-5.43-51.21-16.29-71.2-10.86-20.04-26.78-35.39-47.75-46.07-20.97-10.67-45.97-16.01-74.95-16.01s-53.27,5.34-74.06,16.01c-20.79,10.67-36.61,26.03-47.47,46.07-10.86,19.99-16.29,43.72-16.29,71.2v44.57c0,41.57,12.41,74.15,37.17,97.79,24.77,23.64,58.52,35.49,101.26,35.49,25.89,0,49.34-4.12,70.32-12.31,20.97-8.19,37.26-19.71,48.92-34.6,11.61-14.89,17.41-32.02,17.41-51.45v-3.46h-79.49v3.46c0,6.83-2.2,12.97-6.55,18.3-4.4,5.34-10.67,9.32-18.87,11.98-8.24,2.67-18.44,4.03-30.62,4.03-17.56,0-31.74-5.43-42.6-16.34-10.86-10.86-16.29-25.23-16.29-43.16v-8.01h196.15ZM1078.6,272.1c10.44-11.24,24.48-16.9,42.04-16.9s32.49,5.15,42.6,15.45c10.07,10.3,15.12,24.02,15.12,41.2v3.42h-115.45c.28-17.88,5.52-32.26,15.68-43.16Z"/>
      <path class="cls-1" d="M1410.42,268.82h-17.27v-70.36h-79.49v299.1h82.91v-139.51c0-25.94,5.9-45.88,17.74-59.78,11.8-13.9,27.99-20.88,48.59-20.88h86.14v-80.05c-42.09,0-125.42-17.84-138.62,71.48Z"/>
      <path class="cls-1" d="M1823.52,225.47c-25.19-23.22-59.5-34.88-102.94-34.88s-78.46,11.66-103.83,34.88c-25.33,23.27-38.01,55.1-38.01,95.5v51.5c0,13.34,1.4,25.75,4.26,37.26h88.81c-6.79-9.83-10.16-22.24-10.16-37.26v-52.62c0-19.05,5.34-33.85,16.06-44.33,10.63-10.49,24.76-15.73,42.32-15.73s32.3,5.24,43.16,15.73c10.86,10.49,16.29,25.28,16.29,44.33v52.62c0,18.68-5.24,33.38-15.73,44.01-10.49,10.72-24.86,16.06-43.16,16.06s-32.72-5.34-43.21-16.06c-2.06-2.06-3.89-4.31-5.52-6.69v87.31c14.56,3.89,30.66,5.76,48.17,5.76,44.19,0,78.79-11.7,103.79-35.16,24.95-23.46,37.45-55.19,37.45-95.22v-51.5c0-40.4-12.59-72.23-37.73-95.5Z"/>
      <g>
        <path class="cls-1" d="M500.73,319c-151.82,0-116.52,120.69-106.08,139.27,32.49,57.86,137.54,64.42,169.28-11.14h12.26v48.59h77.81v-176.63l-153.27-.09ZM561.63,405.66c-12.78,22.05-35.86,35.72-57.49,35.72-27.2,0-40.03-17.56-40.03-34.32,0-20.32,9.88-37.73,49.16-37.73h57.77s-1.45,22.56-9.41,36.33Z"/>
        <rect class="cls-1" x="388.41" y="197.71" width="265.57" height="75.44"/>
      </g>
    </g>
    <g>
      <path class="cls-2" d="M463.56,550.48l-4.85-17.52h1.87l4.39,16.34-.84-.48h2.33l-.91.48,3.58-15.58h1.73l-3.94,16.75h-3.36ZM474.1,550.48l-4.32-16.75h1.78l3.98,15.58-.89-.48h2.38l-.91.48,3.96-16.34h1.82l-4.44,17.52h-3.36Z"/>
      <path class="cls-2" d="M489.82,550.89c-1.09,0-2.03-.19-2.83-.56-.8-.38-1.46-.88-1.97-1.51-.51-.63-.89-1.34-1.14-2.12s-.37-1.59-.37-2.42v-.34c0-.82.12-1.62.37-2.4s.63-1.49,1.14-2.11c.51-.62,1.16-1.12,1.93-1.5.78-.38,1.68-.56,2.72-.56,1.33,0,2.44.3,3.32.89s1.56,1.35,2,2.27c.45.92.67,1.91.67,2.96v.94h-11.35v-1.39h10.1l-.46.7c0-.94-.16-1.77-.49-2.48-.33-.71-.81-1.27-1.44-1.68-.63-.41-1.42-.61-2.36-.61-.99,0-1.82.23-2.47.7-.66.46-1.15,1.08-1.48,1.85-.33.77-.49,1.64-.49,2.62s.16,1.84.49,2.63c.33.79.83,1.42,1.51,1.88s1.54.7,2.58.7c1.1,0,2-.25,2.69-.76s1.11-1.1,1.27-1.79h1.68c-.16.85-.5,1.58-1.01,2.2-.51.62-1.16,1.09-1.94,1.43-.78.34-1.68.5-2.69.5Z"/>
      <path class="cls-2" d="M506.81,550.48l-3.67-12.7h1.73l3.62,12.7h-1.68ZM507.24,550.48v-1.46h2.18v1.46h-2.18ZM508.27,550.48l2.71-12.29h2.52l3.14,12.29h-1.56l-3.14-12.22h.58l-2.74,12.22h-1.51ZM515.5,550.48v-1.46h2.14v1.46h-2.14ZM516.43,550.48l3.17-12.7h1.66l-3.24,12.7h-1.58Z"/>
      <path class="cls-2" d="M530.04,550.89c-1.09,0-2.04-.19-2.87-.56-.82-.38-1.52-.88-2.09-1.51-.57-.63-1-1.34-1.3-2.12-.3-.78-.44-1.58-.44-2.4v-.34c0-.82.15-1.62.46-2.41.3-.79.74-1.5,1.32-2.12.58-.62,1.28-1.12,2.1-1.5.82-.38,1.76-.56,2.82-.56s2.02.19,2.84.56c.82.38,1.52.88,2.1,1.5.58.62,1.01,1.33,1.31,2.12.3.79.44,1.6.44,2.41v.34c0,.82-.14,1.62-.43,2.4-.29.78-.72,1.49-1.28,2.12-.57.63-1.27,1.14-2.1,1.51-.83.38-1.79.56-2.88.56ZM530.04,549.28c1.06,0,1.95-.24,2.68-.71.73-.47,1.28-1.1,1.67-1.87.38-.78.58-1.64.58-2.58s-.2-1.83-.59-2.6c-.39-.78-.96-1.39-1.69-1.85-.74-.46-1.62-.68-2.64-.68s-1.88.23-2.62.68c-.74.46-1.3,1.07-1.69,1.85s-.59,1.64-.59,2.6.19,1.8.58,2.58c.38.78.94,1.4,1.67,1.87.73.47,1.61.71,2.65.71Z"/>
      <path class="cls-2" d="M540.41,550.48v-12.7h1.44v5.3h-.14c0-1.86.41-3.23,1.22-4.12.82-.89,2.1-1.33,3.84-1.33h.41v1.63h-.74c-1.38,0-2.42.36-3.14,1.07-.72.71-1.08,1.76-1.08,3.13v7.01h-1.8Z"/>
      <path class="cls-2" d="M550.08,550.48v-17.52h1.8v17.52h-1.8ZM558.72,550.48l-5.11-5.95h-2.06l6.02-6.74h1.92l-5.4,6.02.12-.98,6.62,7.66h-2.11Z"/>
      <path class="cls-2" d="M570.94,550.48l-3.67-12.7h1.73l3.62,12.7h-1.68ZM571.37,550.48v-1.46h2.18v1.46h-2.18ZM572.4,550.48l2.71-12.29h2.52l3.14,12.29h-1.56l-3.14-12.22h.58l-2.74,12.22h-1.51ZM579.62,550.48v-1.46h2.14v1.46h-2.14ZM580.56,550.48l3.17-12.7h1.66l-3.24,12.7h-1.58Z"/>
      <path class="cls-2" d="M587.33,539.23v-1.44h3.82v1.44h-3.82ZM589.75,535.43c-.43,0-.76-.12-.97-.35-.22-.23-.32-.52-.32-.88s.11-.64.32-.88c.22-.23.54-.35.97-.35s.75.12.96.35c.21.23.31.53.31.88s-.1.64-.31.88c-.21.23-.53.35-.96.35ZM589.37,550.48v-12.7h1.78v12.7h-1.78Z"/>
      <path class="cls-2" d="M593.9,539.15v-1.37h8.59v1.37h-8.59ZM600.48,550.63c-.88,0-1.64-.13-2.28-.38-.64-.26-1.14-.69-1.49-1.31-.35-.62-.53-1.44-.53-2.48v-12.67h1.73v12.94c0,.74.2,1.3.6,1.69.4.39.97.59,1.7.59h2.28v1.63h-2.02Z"/>
      <path class="cls-2" d="M605.98,550.48v-17.52h1.8v9.91l-.53.41c0-1.18.17-2.22.52-3.1.34-.88.86-1.56,1.56-2.05.7-.49,1.57-.73,2.63-.73h.1c1.54,0,2.7.5,3.49,1.51s1.19,2.41,1.19,4.2v7.37h-1.78v-7.75c0-1.14-.31-2.03-.94-2.69s-1.46-.98-2.52-.98c-1.14,0-2.04.36-2.71,1.09-.67.73-1.01,1.68-1.01,2.87v7.46h-1.8Z"/>
      <path class="cls-2" d="M625.32,539.27v-1.39h7.85v1.39h-7.85ZM627.17,550.48v-13.68c0-1.33.34-2.31,1.03-2.95.69-.64,1.72-.96,3.1-.96h1.61v1.54h-1.94c-.67,0-1.18.18-1.54.53-.35.35-.53.85-.53,1.49v14.04h-1.73Z"/>
      <path class="cls-2" d="M641.38,550.89c-1.09,0-2.04-.19-2.87-.56-.82-.38-1.52-.88-2.09-1.51-.57-.63-1-1.34-1.3-2.12-.3-.78-.44-1.58-.44-2.4v-.34c0-.82.15-1.62.46-2.41.3-.79.74-1.5,1.32-2.12.58-.62,1.28-1.12,2.1-1.5.82-.38,1.76-.56,2.82-.56s2.02.19,2.84.56c.82.38,1.52.88,2.1,1.5.58.62,1.01,1.33,1.31,2.12.3.79.44,1.6.44,2.41v.34c0,.82-.14,1.62-.43,2.4-.29.78-.72,1.49-1.28,2.12-.57.63-1.27,1.14-2.1,1.51-.83.38-1.79.56-2.88.56ZM641.38,549.28c1.06,0,1.95-.24,2.68-.71.73-.47,1.28-1.1,1.67-1.87.38-.78.58-1.64.58-2.58s-.2-1.83-.59-2.6c-.39-.78-.96-1.39-1.69-1.85-.74-.46-1.62-.68-2.64-.68s-1.88.23-2.62.68c-.74.46-1.3,1.07-1.69,1.85s-.59,1.64-.59,2.6.19,1.8.58,2.58c.38.78.94,1.4,1.67,1.87.73.47,1.61.71,2.65.71Z"/>
      <path class="cls-2" d="M656.14,550.84c-1.52,0-2.68-.49-3.48-1.48-.8-.98-1.2-2.36-1.2-4.12v-7.49h1.78v7.85c0,1.1.29,1.98.88,2.63s1.4.97,2.44.97,1.96-.34,2.6-1.03c.65-.69.97-1.61.97-2.76v-7.66h1.8v12.72h-1.44v-5.3h.29c0,1.19-.17,2.2-.5,3.04s-.84,1.49-1.51,1.94c-.67.46-1.52.68-2.54.68h-.07Z"/>
      <path class="cls-2" d="M666.62,550.48v-12.7h1.44v5.33h-.29c0-1.18.18-2.2.53-3.05s.88-1.5,1.58-1.97,1.59-.7,2.66-.7h.07c1.6,0,2.79.5,3.58,1.5.78,1,1.18,2.4,1.18,4.21v7.37h-1.78v-7.75c0-1.1-.3-1.99-.91-2.66-.61-.67-1.46-1.01-2.54-1.01s-2.02.35-2.7,1.04c-.68.7-1.02,1.61-1.02,2.75v7.63h-1.8Z"/>
      <path class="cls-2" d="M687.07,550.89c-.93,0-1.77-.17-2.53-.52-.76-.34-1.42-.82-1.97-1.44-.55-.62-.98-1.32-1.27-2.11-.3-.79-.44-1.64-.44-2.53v-.34c0-.87.14-1.69.43-2.48.29-.79.7-1.5,1.24-2.11s1.18-1.1,1.94-1.46c.76-.36,1.61-.54,2.56-.54,1.07,0,2.02.23,2.83.7.82.46,1.47,1.13,1.97,2,.5.87.76,1.94.79,3.2l-.79-1.49v-8.81h1.8v17.52h-1.44v-5.64h.58c-.03,1.33-.31,2.45-.83,3.35-.52.9-1.2,1.58-2.04,2.03-.84.45-1.78.67-2.82.67ZM687.31,549.31c.86,0,1.64-.19,2.34-.58.7-.38,1.24-.93,1.64-1.64.4-.71.6-1.53.6-2.46v-1.15c0-.9-.2-1.68-.6-2.36-.4-.68-.95-1.21-1.64-1.6-.7-.38-1.48-.58-2.36-.58-.94,0-1.76.23-2.46.68-.7.46-1.23,1.08-1.61,1.86-.38.78-.56,1.66-.56,2.64s.19,1.9.58,2.69c.38.78.93,1.4,1.63,1.84.7.44,1.52.66,2.45.66Z"/>
      <path class="cls-2" d="M703.58,550.89c-1.09,0-2.03-.19-2.83-.56-.8-.38-1.46-.88-1.97-1.51-.51-.63-.89-1.34-1.14-2.12s-.37-1.59-.37-2.42v-.34c0-.82.12-1.62.37-2.4s.63-1.49,1.14-2.11c.51-.62,1.16-1.12,1.93-1.5.78-.38,1.68-.56,2.72-.56,1.33,0,2.44.3,3.32.89s1.56,1.35,2,2.27c.45.92.67,1.91.67,2.96v.94h-11.35v-1.39h10.1l-.46.7c0-.94-.16-1.77-.49-2.48-.33-.71-.81-1.27-1.44-1.68-.63-.41-1.42-.61-2.36-.61-.99,0-1.82.23-2.47.7-.66.46-1.15,1.08-1.48,1.85-.33.77-.49,1.64-.49,2.62s.16,1.84.49,2.63c.33.79.83,1.42,1.51,1.88s1.54.7,2.58.7c1.1,0,2-.25,2.69-.76s1.11-1.1,1.27-1.79h1.68c-.16.85-.5,1.58-1.01,2.2-.51.62-1.16,1.09-1.94,1.43-.78.34-1.68.5-2.69.5Z"/>
      <path class="cls-2" d="M712.9,550.48v-12.7h1.44v5.3h-.14c0-1.86.41-3.23,1.22-4.12.82-.89,2.1-1.33,3.84-1.33h.41v1.63h-.74c-1.38,0-2.42.36-3.14,1.07-.72.71-1.08,1.76-1.08,3.13v7.01h-1.8Z"/>
      <path class="cls-2" d="M726.58,550.84c-1.63,0-2.89-.36-3.77-1.07s-1.33-1.67-1.34-2.87h1.68c.03.61.31,1.16.83,1.66s1.39.74,2.6.74c1.14,0,1.99-.24,2.56-.71.57-.47.85-1.04.85-1.72,0-.62-.24-1.11-.71-1.45-.47-.34-1.16-.56-2.05-.66l-1.44-.14c-1.15-.13-2.08-.48-2.8-1.07-.71-.58-1.07-1.39-1.07-2.41,0-.75.19-1.41.58-1.97.38-.56.92-1,1.62-1.31.7-.31,1.52-.47,2.46-.47,1.36,0,2.47.32,3.32.96.86.64,1.29,1.55,1.31,2.74h-1.68c-.02-.61-.27-1.12-.77-1.54-.5-.42-1.22-.62-2.18-.62s-1.73.22-2.22.65c-.49.43-.73.96-.73,1.58,0,.53.18.96.55,1.31.37.34.94.56,1.73.64l1.44.14c1.28.14,2.32.51,3.13,1.1.81.59,1.21,1.44,1.21,2.54,0,.75-.21,1.43-.64,2.03-.42.6-1.02,1.07-1.79,1.4s-1.66.5-2.69.5Z"/>
      <path class="cls-2" d="M744.29,550.82c-.9,0-1.69-.16-2.38-.48-.69-.32-1.22-.78-1.6-1.39-.38-.61-.56-1.34-.56-2.21s.2-1.57.59-2.16.96-1.04,1.7-1.36c.74-.31,1.64-.47,2.7-.47h3.72v1.37h-3.84c-1.01,0-1.78.24-2.32.73-.54.49-.8,1.12-.8,1.91s.28,1.44.84,1.91c.56.47,1.32.71,2.28.71.59,0,1.16-.11,1.7-.32.54-.22,1-.58,1.37-1.1.37-.52.57-1.24.6-2.15l.53.74c-.06.94-.29,1.73-.67,2.36-.38.63-.9,1.11-1.56,1.43-.66.32-1.42.48-2.3.48ZM748.58,550.48v-3.82h-.29v-4.51c0-.94-.25-1.67-.74-2.17-.5-.5-1.26-.76-2.3-.76-.48,0-.96,0-1.45.02-.49.02-.95.04-1.39.06-.44.02-.83.05-1.16.08v-1.58c.35-.03.71-.06,1.08-.1.37-.03.75-.05,1.14-.06.39,0,.77-.01,1.14-.01,1.3,0,2.34.16,3.13.48s1.37.82,1.74,1.5c.37.68.55,1.58.55,2.7v8.16h-1.44Z"/>
      <path class="cls-2" d="M754.51,550.48v-12.7h1.44v5.33h-.29c0-1.18.18-2.2.53-3.05s.88-1.5,1.58-1.97,1.59-.7,2.66-.7h.07c1.6,0,2.79.5,3.58,1.5.78,1,1.18,2.4,1.18,4.21v7.37h-1.78v-7.75c0-1.1-.3-1.99-.91-2.66-.61-.67-1.46-1.01-2.54-1.01s-2.02.35-2.7,1.04c-.68.7-1.02,1.61-1.02,2.75v7.63h-1.8Z"/>
      <path class="cls-2" d="M774.96,550.89c-.93,0-1.77-.17-2.53-.52-.76-.34-1.42-.82-1.97-1.44-.55-.62-.98-1.32-1.27-2.11-.3-.79-.44-1.64-.44-2.53v-.34c0-.87.14-1.69.43-2.48.29-.79.7-1.5,1.24-2.11s1.18-1.1,1.94-1.46c.76-.36,1.61-.54,2.56-.54,1.07,0,2.02.23,2.83.7.82.46,1.47,1.13,1.97,2,.5.87.76,1.94.79,3.2l-.79-1.49v-8.81h1.8v17.52h-1.44v-5.64h.58c-.03,1.33-.31,2.45-.83,3.35-.52.9-1.2,1.58-2.04,2.03-.84.45-1.78.67-2.82.67ZM775.2,549.31c.86,0,1.64-.19,2.34-.58.7-.38,1.24-.93,1.64-1.64.4-.71.6-1.53.6-2.46v-1.15c0-.9-.2-1.68-.6-2.36-.4-.68-.95-1.21-1.64-1.6-.7-.38-1.48-.58-2.36-.58-.94,0-1.76.23-2.46.68-.7.46-1.23,1.08-1.61,1.86-.38.78-.56,1.66-.56,2.64s.19,1.9.58,2.69c.38.78.93,1.4,1.63,1.84.7.44,1.52.66,2.45.66Z"/>
      <path class="cls-2" d="M789.79,539.15v-1.37h8.59v1.37h-8.59ZM796.37,550.63c-.88,0-1.64-.13-2.28-.38-.64-.26-1.14-.69-1.49-1.31-.35-.62-.53-1.44-.53-2.48v-12.67h1.73v12.94c0,.74.2,1.3.6,1.69.4.39.97.59,1.7.59h2.28v1.63h-2.02Z"/>
      <path class="cls-2" d="M807.05,550.89c-1.09,0-2.03-.19-2.83-.56-.8-.38-1.46-.88-1.97-1.51-.51-.63-.89-1.34-1.14-2.12s-.37-1.59-.37-2.42v-.34c0-.82.12-1.62.37-2.4s.63-1.49,1.14-2.11c.51-.62,1.16-1.12,1.93-1.5.78-.38,1.68-.56,2.72-.56,1.33,0,2.44.3,3.32.89s1.56,1.35,2,2.27c.45.92.67,1.91.67,2.96v.94h-11.35v-1.39h10.1l-.46.7c0-.94-.16-1.77-.49-2.48-.33-.71-.81-1.27-1.44-1.68-.63-.41-1.42-.61-2.36-.61-.99,0-1.82.23-2.47.7-.66.46-1.15,1.08-1.48,1.85-.33.77-.49,1.64-.49,2.62s.16,1.84.49,2.63c.33.79.83,1.42,1.51,1.88s1.54.7,2.58.7c1.1,0,2-.25,2.69-.76s1.11-1.1,1.27-1.79h1.68c-.16.85-.5,1.58-1.01,2.2-.51.62-1.16,1.09-1.94,1.43-.78.34-1.68.5-2.69.5Z"/>
      <path class="cls-2" d="M819.79,550.82c-.9,0-1.69-.16-2.38-.48-.69-.32-1.22-.78-1.6-1.39-.38-.61-.56-1.34-.56-2.21s.2-1.57.59-2.16.96-1.04,1.7-1.36c.74-.31,1.64-.47,2.7-.47h3.72v1.37h-3.84c-1.01,0-1.78.24-2.32.73-.54.49-.8,1.12-.8,1.91s.28,1.44.84,1.91c.56.47,1.32.71,2.28.71.59,0,1.16-.11,1.7-.32.54-.22,1-.58,1.37-1.1.37-.52.57-1.24.6-2.15l.53.74c-.06.94-.29,1.73-.67,2.36-.38.63-.9,1.11-1.56,1.43-.66.32-1.42.48-2.3.48ZM824.09,550.48v-3.82h-.29v-4.51c0-.94-.25-1.67-.74-2.17-.5-.5-1.26-.76-2.3-.76-.48,0-.96,0-1.45.02-.49.02-.95.04-1.39.06-.44.02-.83.05-1.16.08v-1.58c.35-.03.71-.06,1.08-.1.37-.03.75-.05,1.14-.06.39,0,.77-.01,1.14-.01,1.3,0,2.34.16,3.13.48s1.37.82,1.74,1.5c.37.68.55,1.58.55,2.7v8.16h-1.44Z"/>
      <path class="cls-2" d="M830.02,550.48v-12.72h1.44v5.35h-.29c0-1.17.16-2.18.49-3.02.33-.85.82-1.51,1.48-1.98.66-.47,1.49-.71,2.5-.71h.07c1.01,0,1.84.23,2.5.7.66.46,1.14,1.12,1.46,1.97.32.85.48,1.86.48,3.05h-.58c0-1.17.16-2.18.49-3.02.33-.85.82-1.51,1.49-1.98s1.5-.71,2.51-.71h.07c1.01,0,1.84.23,2.51.7.66.46,1.16,1.12,1.49,1.97.33.85.49,1.86.49,3.05v7.37h-1.8v-7.78c0-1.12-.27-2.01-.82-2.66s-1.33-.98-2.35-.98-1.89.34-2.51,1.02c-.62.68-.92,1.6-.92,2.75v7.66h-1.8v-7.78c0-1.12-.27-2.01-.82-2.66-.54-.66-1.33-.98-2.35-.98s-1.89.34-2.51,1.02c-.62.68-.92,1.6-.92,2.75v7.66h-1.8Z"/>
      <path class="cls-2" d="M857.11,550.84c-1.63,0-2.89-.36-3.77-1.07s-1.33-1.67-1.34-2.87h1.68c.03.61.31,1.16.83,1.66s1.39.74,2.6.74c1.14,0,1.99-.24,2.56-.71.57-.47.85-1.04.85-1.72,0-.62-.24-1.11-.71-1.45-.47-.34-1.16-.56-2.05-.66l-1.44-.14c-1.15-.13-2.08-.48-2.8-1.07-.71-.58-1.07-1.39-1.07-2.41,0-.75.19-1.41.58-1.97.38-.56.92-1,1.62-1.31.7-.31,1.52-.47,2.46-.47,1.36,0,2.47.32,3.32.96.86.64,1.29,1.55,1.31,2.74h-1.68c-.02-.61-.27-1.12-.77-1.54-.5-.42-1.22-.62-2.18-.62s-1.73.22-2.22.65c-.49.43-.73.96-.73,1.58,0,.53.18.96.55,1.31.37.34.94.56,1.73.64l1.44.14c1.28.14,2.32.51,3.13,1.1.81.59,1.21,1.44,1.21,2.54,0,.75-.21,1.43-.64,2.03-.42.6-1.02,1.07-1.79,1.4s-1.66.5-2.69.5Z"/>
      <path class="cls-2" d="M873.48,550.48l-3.67-12.7h1.73l3.62,12.7h-1.68ZM873.91,550.48v-1.46h2.18v1.46h-2.18ZM874.94,550.48l2.71-12.29h2.52l3.14,12.29h-1.56l-3.14-12.22h.58l-2.74,12.22h-1.51ZM882.17,550.48v-1.46h2.14v1.46h-2.14ZM883.1,550.48l3.17-12.7h1.66l-3.24,12.7h-1.58Z"/>
      <path class="cls-2" d="M891.24,550.48v-17.52h1.8v9.91l-.53.41c0-1.18.17-2.22.52-3.1.34-.88.86-1.56,1.56-2.05.7-.49,1.57-.73,2.63-.73h.1c1.54,0,2.7.5,3.49,1.51s1.19,2.41,1.19,4.2v7.37h-1.78v-7.75c0-1.14-.31-2.03-.94-2.69s-1.46-.98-2.52-.98c-1.14,0-2.04.36-2.71,1.09-.67.73-1.01,1.68-1.01,2.87v7.46h-1.8Z"/>
      <path class="cls-2" d="M912.17,550.89c-1.09,0-2.04-.19-2.87-.56-.82-.38-1.52-.88-2.09-1.51-.57-.63-1-1.34-1.3-2.12-.3-.78-.44-1.58-.44-2.4v-.34c0-.82.15-1.62.46-2.41.3-.79.74-1.5,1.32-2.12.58-.62,1.28-1.12,2.1-1.5.82-.38,1.76-.56,2.82-.56s2.02.19,2.84.56c.82.38,1.52.88,2.1,1.5.58.62,1.01,1.33,1.31,2.12.3.79.44,1.6.44,2.41v.34c0,.82-.14,1.62-.43,2.4-.29.78-.72,1.49-1.28,2.12-.57.63-1.27,1.14-2.1,1.51-.83.38-1.79.56-2.88.56ZM912.17,549.28c1.06,0,1.95-.24,2.68-.71.73-.47,1.28-1.1,1.67-1.87.38-.78.58-1.64.58-2.58s-.2-1.83-.59-2.6c-.39-.78-.96-1.39-1.69-1.85-.74-.46-1.62-.68-2.64-.68s-1.88.23-2.62.68c-.74.46-1.3,1.07-1.69,1.85s-.59,1.64-.59,2.6.19,1.8.58,2.58c.38.78.94,1.4,1.67,1.87.73.47,1.61.71,2.65.71Z"/>
      <path class="cls-2" d="M932.52,550.84c-1.52,0-2.68-.49-3.48-1.48-.8-.98-1.2-2.36-1.2-4.12v-7.49h1.78v7.85c0,1.1.29,1.98.88,2.63s1.4.97,2.44.97,1.96-.34,2.6-1.03c.65-.69.97-1.61.97-2.76v-7.66h1.8v12.72h-1.44v-5.3h.29c0,1.19-.17,2.2-.5,3.04s-.84,1.49-1.51,1.94c-.67.46-1.52.68-2.54.68h-.07Z"/>
      <path class="cls-2" d="M943.01,550.48v-12.7h1.44v5.33h-.29c0-1.18.18-2.2.53-3.05s.88-1.5,1.58-1.97,1.59-.7,2.66-.7h.07c1.6,0,2.79.5,3.58,1.5.78,1,1.18,2.4,1.18,4.21v7.37h-1.78v-7.75c0-1.1-.3-1.99-.91-2.66-.61-.67-1.46-1.01-2.54-1.01s-2.02.35-2.7,1.04c-.68.7-1.02,1.61-1.02,2.75v7.63h-1.8Z"/>
      <path class="cls-2" d="M963.46,550.89c-.93,0-1.77-.17-2.53-.52s-1.42-.82-1.97-1.44c-.55-.62-.98-1.32-1.27-2.11-.3-.79-.44-1.64-.44-2.53v-.34c0-.87.14-1.69.43-2.48.29-.79.7-1.5,1.24-2.11s1.18-1.1,1.94-1.46c.76-.36,1.61-.54,2.56-.54,1.07,0,2.02.23,2.83.7.82.46,1.47,1.13,1.97,2s.76,1.94.79,3.2l-.79-1.49v-8.81h1.8v17.52h-1.44v-5.64h.58c-.03,1.33-.31,2.45-.83,3.35-.52.9-1.2,1.58-2.04,2.03-.84.45-1.78.67-2.82.67ZM963.7,549.31c.86,0,1.64-.19,2.34-.58.7-.38,1.24-.93,1.64-1.64.4-.71.6-1.53.6-2.46v-1.15c0-.9-.2-1.68-.6-2.36-.4-.68-.95-1.21-1.64-1.6-.7-.38-1.48-.58-2.36-.58-.95,0-1.76.23-2.46.68-.7.46-1.23,1.08-1.61,1.86-.38.78-.56,1.66-.56,2.64s.19,1.9.58,2.69c.38.78.93,1.4,1.63,1.84.7.44,1.52.66,2.45.66Z"/>
      <path class="cls-2" d="M979.97,550.89c-1.09,0-2.03-.19-2.83-.56-.8-.38-1.46-.88-1.97-1.51-.51-.63-.89-1.34-1.14-2.12s-.37-1.59-.37-2.42v-.34c0-.82.12-1.62.37-2.4s.63-1.49,1.14-2.11c.51-.62,1.16-1.12,1.93-1.5.78-.38,1.68-.56,2.72-.56,1.33,0,2.44.3,3.32.89s1.56,1.35,2,2.27c.45.92.67,1.91.67,2.96v.94h-11.35v-1.39h10.1l-.46.7c0-.94-.16-1.77-.49-2.48s-.81-1.27-1.44-1.68c-.63-.41-1.42-.61-2.36-.61-.99,0-1.82.23-2.47.7-.66.46-1.15,1.08-1.48,1.85s-.49,1.64-.49,2.62.16,1.84.49,2.63.83,1.42,1.51,1.88c.68.46,1.54.7,2.58.7,1.1,0,2-.25,2.69-.76s1.11-1.1,1.27-1.79h1.68c-.16.85-.5,1.58-1.01,2.2-.51.62-1.16,1.09-1.94,1.43s-1.68.5-2.69.5Z"/>
      <path class="cls-2" d="M989.28,550.48v-12.7h1.44v5.3h-.14c0-1.86.41-3.23,1.22-4.12.82-.89,2.1-1.33,3.84-1.33h.41v1.63h-.74c-1.38,0-2.42.36-3.14,1.07-.72.71-1.08,1.76-1.08,3.13v7.01h-1.8Z"/>
      <path class="cls-2" d="M1002.96,550.84c-1.63,0-2.89-.36-3.77-1.07s-1.33-1.67-1.34-2.87h1.68c.03.61.31,1.16.83,1.66s1.39.74,2.6.74c1.14,0,1.99-.24,2.56-.71s.85-1.04.85-1.72c0-.62-.24-1.11-.71-1.45-.47-.34-1.16-.56-2.05-.66l-1.44-.14c-1.15-.13-2.08-.48-2.8-1.07-.71-.58-1.07-1.39-1.07-2.41,0-.75.19-1.41.58-1.97.38-.56.92-1,1.62-1.31.7-.31,1.52-.47,2.46-.47,1.36,0,2.47.32,3.32.96s1.29,1.55,1.31,2.74h-1.68c-.02-.61-.27-1.12-.77-1.54-.5-.42-1.22-.62-2.18-.62s-1.73.22-2.22.65c-.49.43-.73.96-.73,1.58,0,.53.18.96.55,1.31s.94.56,1.73.64l1.44.14c1.28.14,2.32.51,3.13,1.1.81.59,1.21,1.44,1.21,2.54,0,.75-.21,1.43-.64,2.03-.42.6-1.02,1.07-1.79,1.4s-1.66.5-2.69.5Z"/>
      <path class="cls-2" d="M1009.68,539.15v-1.37h8.59v1.37h-8.59ZM1016.26,550.63c-.88,0-1.64-.13-2.28-.38-.64-.26-1.14-.69-1.49-1.31-.35-.62-.53-1.44-.53-2.48v-12.67h1.73v12.94c0,.74.2,1.3.6,1.69.4.39.97.59,1.7.59h2.28v1.63h-2.02Z"/>
      <path class="cls-2" d="M1025.13,550.82c-.9,0-1.69-.16-2.38-.48-.69-.32-1.22-.78-1.6-1.39-.38-.61-.56-1.34-.56-2.21s.2-1.57.59-2.16.96-1.04,1.7-1.36c.74-.31,1.64-.47,2.7-.47h3.72v1.37h-3.84c-1.01,0-1.78.24-2.32.73-.54.49-.8,1.12-.8,1.91s.28,1.44.84,1.91c.56.47,1.32.71,2.28.71.59,0,1.16-.11,1.7-.32.54-.22,1-.58,1.37-1.1.37-.52.57-1.24.6-2.15l.53.74c-.06.94-.29,1.73-.67,2.36-.38.63-.9,1.11-1.56,1.43-.66.32-1.42.48-2.3.48ZM1029.43,550.48v-3.82h-.29v-4.51c0-.94-.25-1.67-.74-2.17-.5-.5-1.26-.76-2.3-.76-.48,0-.96,0-1.45.02-.49.02-.95.04-1.39.06-.44.02-.83.05-1.16.08v-1.58c.35-.03.71-.06,1.08-.1.37-.03.75-.05,1.14-.06.39,0,.77-.01,1.14-.01,1.3,0,2.34.16,3.13.48.79.32,1.37.82,1.74,1.5.37.68.55,1.58.55,2.7v8.16h-1.44Z"/>
      <path class="cls-2" d="M1035.36,550.48v-12.7h1.44v5.33h-.29c0-1.18.18-2.2.53-3.05s.88-1.5,1.58-1.97,1.59-.7,2.66-.7h.07c1.6,0,2.79.5,3.58,1.5.78,1,1.18,2.4,1.18,4.21v7.37h-1.78v-7.75c0-1.1-.3-1.99-.91-2.66-.61-.67-1.46-1.01-2.54-1.01s-2.02.35-2.7,1.04c-.68.7-1.02,1.61-1.02,2.75v7.63h-1.8Z"/>
      <path class="cls-2" d="M1055.81,550.89c-.93,0-1.77-.17-2.53-.52s-1.42-.82-1.97-1.44-.98-1.32-1.27-2.11c-.3-.79-.44-1.64-.44-2.53v-.34c0-.87.14-1.69.43-2.48.29-.79.7-1.5,1.24-2.11.54-.62,1.18-1.1,1.94-1.46.76-.36,1.61-.54,2.56-.54,1.07,0,2.02.23,2.83.7.82.46,1.47,1.13,1.97,2,.5.87.76,1.94.79,3.2l-.79-1.49v-8.81h1.8v17.52h-1.44v-5.64h.58c-.03,1.33-.31,2.45-.83,3.35-.52.9-1.2,1.58-2.04,2.03-.84.45-1.78.67-2.82.67ZM1056.05,549.31c.87,0,1.64-.19,2.34-.58.7-.38,1.24-.93,1.64-1.64.4-.71.6-1.53.6-2.46v-1.15c0-.9-.2-1.68-.6-2.36-.4-.68-.95-1.21-1.64-1.6s-1.48-.58-2.36-.58c-.94,0-1.76.23-2.46.68-.7.46-1.23,1.08-1.61,1.86-.38.78-.56,1.66-.56,2.64s.19,1.9.58,2.69c.38.78.93,1.4,1.63,1.84.7.44,1.52.66,2.45.66Z"/>
      <path class="cls-2" d="M1070.64,539.15v-1.37h8.59v1.37h-8.59ZM1077.21,550.63c-.88,0-1.64-.13-2.28-.38-.64-.26-1.14-.69-1.49-1.31s-.53-1.44-.53-2.48v-12.67h1.73v12.94c0,.74.2,1.3.6,1.69.4.39.97.59,1.7.59h2.28v1.63h-2.02Z"/>
      <path class="cls-2" d="M1082.71,550.48v-17.52h1.8v9.91l-.53.41c0-1.18.17-2.22.52-3.1.34-.88.86-1.56,1.56-2.05.7-.49,1.57-.73,2.63-.73h.1c1.54,0,2.7.5,3.49,1.51s1.19,2.41,1.19,4.2v7.37h-1.78v-7.75c0-1.14-.31-2.03-.94-2.69-.62-.66-1.46-.98-2.52-.98-1.14,0-2.04.36-2.71,1.09s-1.01,1.68-1.01,2.87v7.46h-1.8Z"/>
      <path class="cls-2" d="M1101.38,550.82c-.9,0-1.69-.16-2.38-.48-.69-.32-1.22-.78-1.6-1.39-.38-.61-.56-1.34-.56-2.21s.2-1.57.59-2.16.96-1.04,1.7-1.36c.74-.31,1.64-.47,2.7-.47h3.72v1.37h-3.84c-1.01,0-1.78.24-2.32.73-.54.49-.8,1.12-.8,1.91s.28,1.44.84,1.91c.56.47,1.32.71,2.28.71.59,0,1.16-.11,1.7-.32.54-.22,1-.58,1.37-1.1.37-.52.57-1.24.6-2.15l.53.74c-.06.94-.29,1.73-.67,2.36-.38.63-.9,1.11-1.56,1.43-.66.32-1.42.48-2.3.48ZM1105.68,550.48v-3.82h-.29v-4.51c0-.94-.25-1.67-.74-2.17-.5-.5-1.26-.76-2.3-.76-.48,0-.96,0-1.45.02-.49.02-.95.04-1.39.06-.44.02-.83.05-1.16.08v-1.58c.35-.03.71-.06,1.08-.1.37-.03.75-.05,1.14-.06.39,0,.77-.01,1.14-.01,1.3,0,2.34.16,3.13.48.79.32,1.37.82,1.74,1.5.37.68.55,1.58.55,2.7v8.16h-1.44Z"/>
      <path class="cls-2" d="M1109.64,539.15v-1.37h8.59v1.37h-8.59ZM1116.21,550.63c-.88,0-1.64-.13-2.28-.38-.64-.26-1.14-.69-1.49-1.31s-.53-1.44-.53-2.48v-12.67h1.73v12.94c0,.74.2,1.3.6,1.69.4.39.97.59,1.7.59h2.28v1.63h-2.02Z"/>
      <path class="cls-2" d="M1130.74,550.82c-.9,0-1.69-.16-2.38-.48-.69-.32-1.22-.78-1.6-1.39-.38-.61-.56-1.34-.56-2.21s.2-1.57.59-2.16c.39-.59.96-1.04,1.71-1.36.74-.31,1.64-.47,2.7-.47h3.72v1.37h-3.84c-1.01,0-1.78.24-2.32.73-.54.49-.8,1.12-.8,1.91s.28,1.44.84,1.91c.56.47,1.32.71,2.28.71.59,0,1.16-.11,1.7-.32.54-.22,1-.58,1.37-1.1.37-.52.57-1.24.6-2.15l.53.74c-.06.94-.29,1.73-.67,2.36-.38.63-.9,1.11-1.56,1.43-.66.32-1.42.48-2.3.48ZM1135.03,550.48v-3.82h-.29v-4.51c0-.94-.25-1.67-.74-2.17-.5-.5-1.26-.76-2.3-.76-.48,0-.96,0-1.45.02-.49.02-.95.04-1.39.06-.44.02-.83.05-1.16.08v-1.58c.35-.03.71-.06,1.08-.1.37-.03.75-.05,1.14-.06.39,0,.77-.01,1.14-.01,1.3,0,2.34.16,3.13.48s1.37.82,1.74,1.5c.37.68.55,1.58.55,2.7v8.16h-1.44Z"/>
      <path class="cls-2" d="M1153.1,550.89c-1.12,0-2.1-.25-2.94-.74s-1.5-1.19-1.97-2.09c-.47-.9-.72-1.93-.76-3.1h.55v5.52h-1.44v-17.52h1.8v8.76l-.7,1.61c.03-1.28.29-2.36.78-3.25.49-.89,1.14-1.56,1.97-2.03.82-.46,1.76-.7,2.82-.7.93,0,1.77.18,2.52.53.75.35,1.39.83,1.93,1.44.54.61.94,1.31,1.22,2.1.28.79.42,1.63.42,2.51v.34c0,.86-.14,1.69-.43,2.48-.29.79-.7,1.5-1.24,2.12-.54.62-1.19,1.12-1.96,1.48-.77.36-1.63.54-2.59.54ZM1152.91,549.31c.96,0,1.78-.23,2.47-.7.69-.46,1.22-1.09,1.58-1.87.37-.78.55-1.66.55-2.64s-.19-1.88-.56-2.65c-.38-.78-.91-1.39-1.61-1.84s-1.51-.67-2.44-.67c-.86,0-1.65.19-2.35.58s-1.26.92-1.67,1.62c-.41.7-.61,1.52-.61,2.46v1.18c0,.9.2,1.68.61,2.36s.96,1.21,1.67,1.6c.7.38,1.49.58,2.35.58Z"/>
      <path class="cls-2" d="M1162.97,550.48v-12.7h1.44v5.3h-.14c0-1.86.41-3.23,1.22-4.12.82-.89,2.1-1.33,3.84-1.33h.41v1.63h-.74c-1.38,0-2.42.36-3.14,1.07-.72.71-1.08,1.76-1.08,3.13v7.01h-1.8Z"/>
      <path class="cls-2" d="M1176.02,550.82c-.9,0-1.69-.16-2.38-.48-.69-.32-1.22-.78-1.6-1.39s-.56-1.34-.56-2.21.2-1.57.59-2.16c.39-.59.96-1.04,1.7-1.36.74-.31,1.64-.47,2.7-.47h3.72v1.37h-3.84c-1.01,0-1.78.24-2.32.73-.54.49-.8,1.12-.8,1.91s.28,1.44.84,1.91c.56.47,1.32.71,2.28.71.59,0,1.16-.11,1.7-.32.54-.22,1-.58,1.37-1.1.37-.52.57-1.24.6-2.15l.53.74c-.06.94-.29,1.73-.67,2.36-.38.63-.9,1.11-1.56,1.43-.66.32-1.42.48-2.3.48ZM1180.32,550.48v-3.82h-.29v-4.51c0-.94-.25-1.67-.74-2.17s-1.26-.76-2.3-.76c-.48,0-.96,0-1.45.02-.49.02-.95.04-1.39.06s-.83.05-1.16.08v-1.58c.35-.03.71-.06,1.08-.1.37-.03.75-.05,1.14-.06s.77-.01,1.14-.01c1.3,0,2.34.16,3.13.48s1.37.82,1.74,1.5c.37.68.55,1.58.55,2.7v8.16h-1.44Z"/>
      <path class="cls-2" d="M1186.25,550.48v-12.7h1.44v5.33h-.29c0-1.18.18-2.2.53-3.05.35-.85.88-1.5,1.58-1.97.7-.46,1.59-.7,2.66-.7h.07c1.6,0,2.79.5,3.58,1.5s1.18,2.4,1.18,4.21v7.37h-1.78v-7.75c0-1.1-.3-1.99-.91-2.66s-1.46-1.01-2.54-1.01-2.02.35-2.7,1.04c-.68.7-1.02,1.61-1.02,2.75v7.63h-1.8Z"/>
      <path class="cls-2" d="M1206.7,550.89c-.93,0-1.77-.17-2.53-.52-.76-.34-1.42-.82-1.97-1.44-.55-.62-.98-1.32-1.27-2.11-.3-.79-.45-1.64-.45-2.53v-.34c0-.87.14-1.69.43-2.48.29-.79.7-1.5,1.24-2.11.54-.62,1.18-1.1,1.95-1.46.76-.36,1.61-.54,2.55-.54,1.07,0,2.02.23,2.83.7.82.46,1.47,1.13,1.97,2s.76,1.94.79,3.2l-.79-1.49v-8.81h1.8v17.52h-1.44v-5.64h.58c-.03,1.33-.31,2.45-.83,3.35-.52.9-1.2,1.58-2.04,2.03-.84.45-1.78.67-2.82.67ZM1206.94,549.31c.86,0,1.64-.19,2.34-.58.7-.38,1.24-.93,1.64-1.64.4-.71.6-1.53.6-2.46v-1.15c0-.9-.2-1.68-.6-2.36-.4-.68-.95-1.21-1.64-1.6-.7-.38-1.48-.58-2.36-.58-.94,0-1.76.23-2.46.68-.7.46-1.23,1.08-1.61,1.86-.38.78-.56,1.66-.56,2.64s.19,1.9.58,2.69c.38.78.93,1.4,1.63,1.84.7.44,1.52.66,2.45.66Z"/>
      <path class="cls-2" d="M1222.13,539.23v-1.44h3.82v1.44h-3.82ZM1224.55,535.43c-.43,0-.76-.12-.97-.35-.22-.23-.32-.52-.32-.88s.11-.64.32-.88c.21-.23.54-.35.97-.35s.75.12.96.35c.21.23.31.53.31.88s-.1.64-.31.88c-.21.23-.53.35-.96.35ZM1224.17,550.48v-12.7h1.78v12.7h-1.78Z"/>
      <path class="cls-2" d="M1234.68,550.84c-1.63,0-2.89-.36-3.77-1.07s-1.33-1.67-1.34-2.87h1.68c.03.61.31,1.16.83,1.66s1.39.74,2.6.74c1.13,0,1.99-.24,2.56-.71.57-.47.85-1.04.85-1.72,0-.62-.24-1.11-.71-1.45-.47-.34-1.16-.56-2.05-.66l-1.44-.14c-1.15-.13-2.08-.48-2.79-1.07-.71-.58-1.07-1.39-1.07-2.41,0-.75.19-1.41.58-1.97.38-.56.92-1,1.62-1.31.7-.31,1.52-.47,2.46-.47,1.36,0,2.47.32,3.32.96.86.64,1.29,1.55,1.31,2.74h-1.68c-.02-.61-.27-1.12-.77-1.54s-1.22-.62-2.18-.62-1.73.22-2.22.65c-.49.43-.73.96-.73,1.58,0,.53.18.96.55,1.31.37.34.94.56,1.73.64l1.44.14c1.28.14,2.32.51,3.13,1.1.81.59,1.21,1.44,1.21,2.54,0,.75-.21,1.43-.64,2.03-.42.6-1.02,1.07-1.79,1.4s-1.66.5-2.69.5Z"/>
      <path class="cls-2" d="M1248.96,550.48v-12.72h1.44v5.35h-.29c0-1.17.16-2.18.49-3.02.33-.85.82-1.51,1.48-1.98.66-.47,1.49-.71,2.5-.71h.07c1.01,0,1.84.23,2.5.7.66.46,1.14,1.12,1.46,1.97s.48,1.86.48,3.05h-.58c0-1.17.16-2.18.49-3.02.33-.85.82-1.51,1.49-1.98s1.5-.71,2.51-.71h.07c1.01,0,1.84.23,2.51.7.66.46,1.16,1.12,1.49,1.97.33.85.49,1.86.49,3.05v7.37h-1.8v-7.78c0-1.12-.27-2.01-.82-2.66s-1.33-.98-2.35-.98-1.89.34-2.51,1.02c-.62.68-.92,1.6-.92,2.75v7.66h-1.8v-7.78c0-1.12-.27-2.01-.82-2.66s-1.33-.98-2.35-.98-1.89.34-2.51,1.02c-.62.68-.92,1.6-.92,2.75v7.66h-1.8Z"/>
      <path class="cls-2" d="M1277.74,550.89c-1.09,0-2.04-.19-2.87-.56-.82-.38-1.52-.88-2.09-1.51-.57-.63-1-1.34-1.3-2.12s-.44-1.58-.44-2.4v-.34c0-.82.15-1.62.46-2.41.3-.79.74-1.5,1.32-2.12.58-.62,1.28-1.12,2.1-1.5.82-.38,1.76-.56,2.82-.56s2.02.19,2.84.56c.82.38,1.52.88,2.1,1.5.58.62,1.01,1.33,1.31,2.12.3.79.44,1.6.44,2.41v.34c0,.82-.14,1.62-.43,2.4s-.72,1.49-1.28,2.12c-.57.63-1.27,1.14-2.1,1.51-.83.38-1.79.56-2.88.56ZM1277.74,549.28c1.06,0,1.95-.24,2.68-.71.73-.47,1.28-1.1,1.67-1.87.38-.78.58-1.64.58-2.58s-.2-1.83-.59-2.6c-.39-.78-.96-1.39-1.69-1.85-.74-.46-1.62-.68-2.64-.68s-1.88.23-2.62.68c-.74.46-1.3,1.07-1.69,1.85-.39.78-.59,1.64-.59,2.6s.19,1.8.58,2.58c.38.78.94,1.4,1.67,1.87.73.47,1.61.71,2.65.71Z"/>
      <path class="cls-2" d="M1288.1,550.48v-12.7h1.44v5.3h-.14c0-1.86.41-3.23,1.22-4.12.82-.89,2.1-1.33,3.84-1.33h.41v1.63h-.74c-1.38,0-2.42.36-3.14,1.07-.72.71-1.08,1.76-1.08,3.13v7.01h-1.8Z"/>
      <path class="cls-2" d="M1302.91,550.89c-1.09,0-2.03-.19-2.83-.56-.8-.38-1.46-.88-1.97-1.51-.51-.63-.89-1.34-1.14-2.12s-.37-1.59-.37-2.42v-.34c0-.82.12-1.62.37-2.4s.63-1.49,1.14-2.11c.51-.62,1.16-1.12,1.93-1.5.78-.38,1.68-.56,2.72-.56,1.33,0,2.44.3,3.32.89.89.59,1.55,1.35,2,2.27.45.92.67,1.91.67,2.96v.94h-11.35v-1.39h10.1l-.46.7c0-.94-.17-1.77-.49-2.48-.33-.71-.81-1.27-1.44-1.68-.63-.41-1.42-.61-2.36-.61-.99,0-1.82.23-2.47.7-.66.46-1.15,1.08-1.48,1.85-.33.77-.49,1.64-.49,2.62s.16,1.84.49,2.63c.33.79.83,1.42,1.51,1.88s1.54.7,2.58.7c1.1,0,2-.25,2.69-.76.69-.5,1.11-1.1,1.27-1.79h1.68c-.16.85-.5,1.58-1.01,2.2-.51.62-1.16,1.09-1.94,1.43-.79.34-1.68.5-2.69.5Z"/>
      <path class="cls-2" d="M1315.85,539.15v-1.37h8.59v1.37h-8.59ZM1322.42,550.63c-.88,0-1.64-.13-2.28-.38-.64-.26-1.14-.69-1.49-1.31-.35-.62-.53-1.44-.53-2.48v-12.67h1.73v12.94c0,.74.2,1.3.6,1.69.4.39.97.59,1.7.59h2.28v1.63h-2.02Z"/>
      <path class="cls-2" d="M1327.92,550.48v-17.52h1.8v9.91l-.53.41c0-1.18.17-2.22.52-3.1s.86-1.56,1.56-2.05c.7-.49,1.57-.73,2.63-.73h.1c1.54,0,2.7.5,3.49,1.51s1.19,2.41,1.19,4.2v7.37h-1.78v-7.75c0-1.14-.31-2.03-.94-2.69-.62-.66-1.46-.98-2.52-.98-1.14,0-2.04.36-2.71,1.09-.67.73-1.01,1.68-1.01,2.87v7.46h-1.8Z"/>
      <path class="cls-2" d="M1346.59,550.82c-.9,0-1.69-.16-2.38-.48-.69-.32-1.22-.78-1.6-1.39-.38-.61-.56-1.34-.56-2.21s.2-1.57.59-2.16.96-1.04,1.7-1.36c.74-.31,1.64-.47,2.7-.47h3.72v1.37h-3.84c-1.01,0-1.78.24-2.32.73-.54.49-.8,1.12-.8,1.91s.28,1.44.84,1.91c.56.47,1.32.71,2.28.71.59,0,1.16-.11,1.7-.32.54-.22,1-.58,1.37-1.1.37-.52.57-1.24.6-2.15l.53.74c-.06.94-.29,1.73-.67,2.36-.38.63-.9,1.11-1.56,1.43-.66.32-1.42.48-2.3.48ZM1350.89,550.48v-3.82h-.29v-4.51c0-.94-.25-1.67-.74-2.17s-1.26-.76-2.3-.76c-.48,0-.96,0-1.45.02-.49.02-.95.04-1.39.06-.44.02-.83.05-1.16.08v-1.58c.35-.03.71-.06,1.08-.1.37-.03.75-.05,1.14-.06.39,0,.77-.01,1.14-.01,1.3,0,2.34.16,3.13.48.79.32,1.37.82,1.74,1.5.37.68.55,1.58.55,2.7v8.16h-1.44Z"/>
      <path class="cls-2" d="M1356.82,550.48v-12.7h1.44v5.33h-.29c0-1.18.18-2.2.53-3.05s.88-1.5,1.58-1.97,1.59-.7,2.66-.7h.07c1.6,0,2.79.5,3.58,1.5.79,1,1.18,2.4,1.18,4.21v7.37h-1.78v-7.75c0-1.1-.3-1.99-.91-2.66-.61-.67-1.46-1.01-2.54-1.01s-2.02.35-2.7,1.04-1.02,1.61-1.02,2.75v7.63h-1.8Z"/>
      <path class="cls-2" d="M1380.48,550.48l-4.46-12.7h1.85l4.42,12.7h-1.8ZM1380.96,550.48v-1.46h2.28v1.46h-2.28ZM1381.94,550.48l3.86-12.7h1.78l-3.94,12.7h-1.7Z"/>
      <path class="cls-2" d="M1389.41,539.23v-1.44h3.82v1.44h-3.82ZM1391.83,535.43c-.43,0-.76-.12-.97-.35-.22-.23-.32-.52-.32-.88s.11-.64.32-.88c.22-.23.54-.35.97-.35s.75.12.96.35c.21.23.31.53.31.88s-.1.64-.31.88c-.21.23-.53.35-.96.35ZM1391.45,550.48v-12.7h1.78v12.7h-1.78Z"/>
      <path class="cls-2" d="M1401.96,550.84c-1.63,0-2.89-.36-3.77-1.07s-1.33-1.67-1.34-2.87h1.68c.03.61.31,1.16.83,1.66s1.39.74,2.6.74c1.14,0,1.99-.24,2.56-.71s.85-1.04.85-1.72c0-.62-.24-1.11-.71-1.45-.47-.34-1.16-.56-2.05-.66l-1.44-.14c-1.15-.13-2.08-.48-2.8-1.07-.71-.58-1.07-1.39-1.07-2.41,0-.75.19-1.41.58-1.97.38-.56.92-1,1.62-1.31.7-.31,1.52-.47,2.46-.47,1.36,0,2.47.32,3.32.96s1.29,1.55,1.31,2.74h-1.68c-.02-.61-.27-1.12-.77-1.54-.5-.42-1.22-.62-2.18-.62s-1.73.22-2.22.65c-.49.43-.73.96-.73,1.58,0,.53.18.96.55,1.31s.94.56,1.73.64l1.44.14c1.28.14,2.32.51,3.13,1.1.81.59,1.21,1.44,1.21,2.54,0,.75-.21,1.43-.64,2.03-.42.6-1.02,1.07-1.79,1.4s-1.66.5-2.69.5Z"/>
      <path class="cls-2" d="M1415.04,550.84c-1.52,0-2.68-.49-3.48-1.48-.8-.98-1.2-2.36-1.2-4.12v-7.49h1.78v7.85c0,1.1.29,1.98.88,2.63s1.4.97,2.44.97,1.96-.34,2.6-1.03c.65-.69.97-1.61.97-2.76v-7.66h1.8v12.72h-1.44v-5.3h.29c0,1.19-.17,2.2-.5,3.04s-.84,1.49-1.51,1.94c-.67.46-1.52.68-2.54.68h-.07Z"/>
      <path class="cls-2" d="M1428.96,550.82c-.9,0-1.69-.16-2.38-.48-.69-.32-1.22-.78-1.6-1.39s-.56-1.34-.56-2.21.2-1.57.59-2.16c.39-.59.96-1.04,1.7-1.36.74-.31,1.64-.47,2.7-.47h3.72v1.37h-3.84c-1.01,0-1.78.24-2.32.73-.54.49-.8,1.12-.8,1.91s.28,1.44.84,1.91c.56.47,1.32.71,2.28.71.59,0,1.16-.11,1.7-.32.54-.22,1-.58,1.37-1.1.37-.52.57-1.24.6-2.15l.53.74c-.06.94-.29,1.73-.67,2.36-.38.63-.9,1.11-1.56,1.43-.66.32-1.42.48-2.3.48ZM1433.26,550.48v-3.82h-.29v-4.51c0-.94-.25-1.67-.74-2.17s-1.26-.76-2.3-.76c-.48,0-.96,0-1.45.02-.49.02-.95.04-1.39.06s-.83.05-1.16.08v-1.58c.35-.03.71-.06,1.08-.1.37-.03.75-.05,1.14-.06s.77-.01,1.14-.01c1.3,0,2.34.16,3.13.48s1.37.82,1.74,1.5c.37.68.55,1.58.55,2.7v8.16h-1.44Z"/>
      <path class="cls-2" d="M1437.46,534.43v-1.46h3.65v1.46h-3.65ZM1439.3,550.48v-17.52h1.8v17.52h-1.8Z"/>
      <path class="cls-2" d="M1449.77,550.84c-1.63,0-2.89-.36-3.77-1.07-.88-.71-1.33-1.67-1.34-2.87h1.68c.03.61.31,1.16.83,1.66.52.5,1.39.74,2.6.74,1.14,0,1.99-.24,2.56-.71.57-.47.85-1.04.85-1.72,0-.62-.24-1.11-.71-1.45s-1.16-.56-2.05-.66l-1.44-.14c-1.15-.13-2.08-.48-2.8-1.07-.71-.58-1.07-1.39-1.07-2.41,0-.75.19-1.41.58-1.97.38-.56.92-1,1.62-1.31.7-.31,1.52-.47,2.46-.47,1.36,0,2.47.32,3.32.96.86.64,1.29,1.55,1.31,2.74h-1.68c-.02-.61-.27-1.12-.77-1.54s-1.22-.62-2.18-.62-1.73.22-2.22.65c-.49.43-.73.96-.73,1.58,0,.53.18.96.55,1.31.37.34.94.56,1.73.64l1.44.14c1.28.14,2.32.51,3.13,1.1.81.59,1.21,1.44,1.21,2.54,0,.75-.21,1.43-.64,2.03-.42.6-1.02,1.07-1.79,1.4-.77.34-1.66.5-2.69.5Z"/>
      <path class="cls-2" d="M1458.19,554.15l-1.46-.53,2.09-5.79,1.51.55-2.14,5.76Z"/>
      <path class="cls-2" d="M659.9,568.03v-1.44h3.82v1.44h-3.82ZM662.33,564.23c-.43,0-.76-.12-.97-.35-.22-.23-.32-.52-.32-.88s.11-.64.32-.88c.22-.23.54-.35.97-.35s.75.12.96.35c.21.23.31.52.31.88s-.1.64-.31.88c-.21.23-.53.35-.96.35ZM661.94,579.28v-12.7h1.78v12.7h-1.78Z"/>
      <path class="cls-2" d="M666.48,567.95v-1.37h8.59v1.37h-8.59ZM673.06,579.43c-.88,0-1.64-.13-2.28-.38-.64-.26-1.14-.69-1.49-1.31-.35-.62-.53-1.44-.53-2.48v-12.67h1.73v12.94c0,.74.2,1.3.6,1.69.4.39.97.59,1.7.59h2.28v1.63h-2.02Z"/>
      <path class="cls-2" d="M677.45,568.67v-1.06h.19c.5,0,.89-.08,1.19-.25.3-.17.52-.45.66-.85.14-.4.22-.94.22-1.61v-1.58l.43.82c-.1.06-.22.11-.38.14s-.33.05-.5.05c-.4,0-.73-.12-.98-.36-.26-.24-.38-.58-.38-1.01,0-.4.12-.73.36-.98.24-.26.57-.38.98-.38.29,0,.56.07.8.22.25.14.45.38.6.72s.23.82.23,1.44v.46c0,1.14-.13,2.01-.4,2.63-.26.62-.64,1.04-1.12,1.27-.48.23-1.05.35-1.7.35h-.19Z"/>
      <path class="cls-2" d="M687.36,579.64c-1.63,0-2.89-.36-3.77-1.07s-1.33-1.67-1.34-2.87h1.68c.03.61.31,1.16.83,1.66s1.39.74,2.6.74c1.14,0,1.99-.24,2.56-.71.57-.47.85-1.04.85-1.72,0-.62-.24-1.11-.71-1.45-.47-.34-1.16-.56-2.05-.66l-1.44-.14c-1.15-.13-2.08-.48-2.8-1.07-.71-.58-1.07-1.39-1.07-2.41,0-.75.19-1.41.58-1.97.38-.56.92-1,1.62-1.31.7-.31,1.52-.47,2.46-.47,1.36,0,2.47.32,3.32.96.86.64,1.29,1.55,1.31,2.74h-1.68c-.02-.61-.27-1.12-.77-1.54-.5-.42-1.22-.62-2.18-.62s-1.73.22-2.22.65c-.49.43-.73.96-.73,1.58,0,.53.18.96.55,1.31.37.34.94.56,1.73.64l1.44.14c1.28.14,2.32.51,3.13,1.1s1.21,1.44,1.21,2.54c0,.75-.21,1.43-.64,2.03-.42.6-1.02,1.07-1.79,1.4-.77.34-1.66.5-2.69.5Z"/>
      <path class="cls-2" d="M705.07,579.62c-.9,0-1.69-.16-2.38-.48-.69-.32-1.22-.78-1.6-1.39-.38-.61-.56-1.34-.56-2.21s.2-1.57.59-2.16c.39-.59.96-1.04,1.7-1.36.74-.31,1.64-.47,2.7-.47h3.72v1.37h-3.84c-1.01,0-1.78.24-2.32.73s-.8,1.12-.8,1.91.28,1.44.84,1.91c.56.47,1.32.71,2.28.71.59,0,1.16-.11,1.7-.32s1-.58,1.37-1.1c.37-.52.57-1.24.6-2.15l.53.74c-.06.94-.29,1.73-.67,2.36-.38.63-.9,1.11-1.56,1.43-.66.32-1.42.48-2.3.48ZM709.37,579.28v-3.82h-.29v-4.51c0-.94-.25-1.67-.74-2.17-.5-.5-1.26-.76-2.3-.76-.48,0-.96,0-1.45.02-.49.02-.95.04-1.39.06-.44.02-.83.05-1.16.08v-1.58c.35-.03.71-.06,1.08-.1.37-.03.75-.05,1.14-.06.39,0,.77-.01,1.14-.01,1.3,0,2.34.16,3.13.48.79.32,1.37.82,1.74,1.5.37.68.55,1.58.55,2.7v8.16h-1.44Z"/>
      <path class="cls-2" d="M724.9,579.64c-1.63,0-2.89-.36-3.77-1.07s-1.33-1.67-1.34-2.87h1.68c.03.61.31,1.16.83,1.66s1.39.74,2.6.74c1.14,0,1.99-.24,2.56-.71.57-.47.85-1.04.85-1.72,0-.62-.24-1.11-.71-1.45-.47-.34-1.16-.56-2.05-.66l-1.44-.14c-1.15-.13-2.08-.48-2.8-1.07-.71-.58-1.07-1.39-1.07-2.41,0-.75.19-1.41.58-1.97.38-.56.92-1,1.62-1.31.7-.31,1.52-.47,2.46-.47,1.36,0,2.47.32,3.32.96.86.64,1.29,1.55,1.31,2.74h-1.68c-.02-.61-.27-1.12-.77-1.54-.5-.42-1.22-.62-2.18-.62s-1.73.22-2.22.65c-.49.43-.73.96-.73,1.58,0,.53.18.96.55,1.31.37.34.94.56,1.73.64l1.44.14c1.28.14,2.32.51,3.13,1.1s1.21,1.44,1.21,2.54c0,.75-.21,1.43-.64,2.03-.42.6-1.02,1.07-1.79,1.4-.77.34-1.66.5-2.69.5Z"/>
      <path class="cls-2" d="M736.3,578.97l-4.61-12.38h1.85l4.44,12.38h-1.68ZM732.38,584.23v-1.61h1.63c.56,0,1.04-.07,1.44-.2s.74-.37,1.01-.71.5-.8.7-1.39l4.27-13.73h1.75l-4.46,14.23c-.26.82-.61,1.48-1.06,1.98-.45.5-.98.87-1.61,1.09-.62.22-1.34.34-2.14.34h-1.54ZM736.51,578.97v-1.51h2.28v1.51h-2.28Z"/>
      <path class="cls-2" d="M750.26,579.64c-1.63,0-2.89-.36-3.77-1.07s-1.33-1.67-1.34-2.87h1.68c.03.61.31,1.16.83,1.66s1.39.74,2.6.74c1.14,0,1.99-.24,2.56-.71.57-.47.85-1.04.85-1.72,0-.62-.24-1.11-.71-1.45-.47-.34-1.16-.56-2.05-.66l-1.44-.14c-1.15-.13-2.08-.48-2.8-1.07-.71-.58-1.07-1.39-1.07-2.41,0-.75.19-1.41.58-1.97.38-.56.92-1,1.62-1.31.7-.31,1.52-.47,2.46-.47,1.36,0,2.47.32,3.32.96.86.64,1.29,1.55,1.31,2.74h-1.68c-.02-.61-.27-1.12-.77-1.54-.5-.42-1.22-.62-2.18-.62s-1.73.22-2.22.65c-.49.43-.73.96-.73,1.58,0,.53.18.96.55,1.31.37.34.94.56,1.73.64l1.44.14c1.28.14,2.32.51,3.13,1.1s1.21,1.44,1.21,2.54c0,.75-.21,1.43-.64,2.03-.42.6-1.02,1.07-1.79,1.4-.77.34-1.66.5-2.69.5Z"/>
      <path class="cls-2" d="M756.98,567.95v-1.37h8.59v1.37h-8.59ZM763.56,579.43c-.88,0-1.64-.13-2.28-.38-.64-.26-1.14-.69-1.49-1.31-.35-.62-.53-1.44-.53-2.48v-12.67h1.73v12.94c0,.74.2,1.3.6,1.69.4.39.97.59,1.7.59h2.28v1.63h-2.02Z"/>
      <path class="cls-2" d="M774.24,579.69c-1.09,0-2.03-.19-2.83-.56s-1.46-.88-1.97-1.51c-.51-.63-.89-1.34-1.14-2.12s-.37-1.59-.37-2.42v-.34c0-.82.12-1.62.37-2.4.25-.78.63-1.49,1.14-2.11.51-.62,1.16-1.12,1.93-1.5.78-.38,1.68-.56,2.72-.56,1.33,0,2.44.3,3.32.89.89.59,1.56,1.35,2,2.27.45.92.67,1.91.67,2.96v.94h-11.35v-1.39h10.1l-.46.7c0-.94-.16-1.77-.49-2.48-.33-.71-.81-1.27-1.44-1.68-.63-.41-1.42-.61-2.36-.61-.99,0-1.82.23-2.47.7-.66.46-1.15,1.08-1.48,1.85-.33.77-.49,1.64-.49,2.62s.16,1.84.49,2.63c.33.79.83,1.42,1.51,1.88s1.54.7,2.58.7c1.1,0,2-.25,2.69-.76s1.11-1.1,1.27-1.79h1.68c-.16.85-.5,1.58-1.01,2.2-.51.62-1.16,1.09-1.94,1.43-.78.34-1.68.5-2.69.5Z"/>
      <path class="cls-2" d="M783.55,579.28v-12.72h1.44v5.35h-.29c0-1.17.16-2.18.49-3.02.33-.85.82-1.51,1.48-1.98.66-.47,1.49-.71,2.5-.71h.07c1.01,0,1.84.23,2.5.7.66.46,1.14,1.12,1.46,1.97.32.85.48,1.86.48,3.05h-.58c0-1.17.16-2.18.49-3.02.33-.85.82-1.51,1.49-1.98.66-.47,1.5-.71,2.51-.71h.07c1.01,0,1.84.23,2.51.7.66.46,1.16,1.12,1.49,1.97.33.85.49,1.86.49,3.05v7.37h-1.8v-7.78c0-1.12-.27-2.01-.82-2.66-.54-.66-1.33-.98-2.35-.98s-1.89.34-2.51,1.02c-.62.68-.92,1.6-.92,2.75v7.66h-1.8v-7.78c0-1.12-.27-2.01-.82-2.66-.54-.66-1.33-.98-2.35-.98s-1.89.34-2.51,1.02c-.62.68-.92,1.6-.92,2.75v7.66h-1.8Z"/>
      <path class="cls-2" d="M817.92,579.69c-1.09,0-2.04-.19-2.87-.56-.82-.38-1.52-.88-2.09-1.51-.57-.63-1-1.34-1.3-2.12-.3-.78-.44-1.58-.44-2.4v-.34c0-.82.15-1.62.46-2.41.3-.79.74-1.5,1.32-2.12.58-.62,1.28-1.12,2.1-1.5.82-.38,1.76-.56,2.82-.56s2.02.19,2.84.56c.82.38,1.52.88,2.1,1.5s1.01,1.33,1.31,2.12c.3.79.44,1.6.44,2.41v.34c0,.82-.14,1.62-.43,2.4-.29.78-.72,1.49-1.28,2.12-.57.63-1.27,1.14-2.1,1.51-.83.38-1.79.56-2.88.56ZM817.92,578.08c1.06,0,1.95-.24,2.68-.71.73-.47,1.28-1.1,1.67-1.87.38-.78.58-1.64.58-2.58s-.2-1.83-.59-2.6c-.39-.78-.96-1.39-1.69-1.85-.74-.46-1.62-.68-2.64-.68s-1.88.23-2.62.68c-.74.46-1.3,1.07-1.69,1.85s-.59,1.64-.59,2.6.19,1.8.58,2.58c.38.78.94,1.4,1.67,1.87.73.47,1.61.71,2.65.71Z"/>
      <path class="cls-2" d="M826.8,568.07v-1.39h7.85v1.39h-7.85ZM828.65,579.28v-13.68c0-1.33.34-2.31,1.03-2.95.69-.64,1.72-.96,3.1-.96h1.61v1.54h-1.94c-.67,0-1.18.18-1.54.53-.35.35-.53.85-.53,1.49v14.04h-1.73Z"/>
      <path class="cls-2" d="M848.09,579.69c-.93,0-1.77-.17-2.53-.52-.76-.34-1.42-.82-1.97-1.44-.55-.62-.98-1.32-1.27-2.11-.3-.79-.44-1.64-.44-2.53v-.34c0-.86.14-1.69.43-2.48s.7-1.5,1.24-2.11,1.18-1.1,1.94-1.46c.76-.36,1.61-.54,2.56-.54,1.07,0,2.02.23,2.83.7.82.46,1.47,1.13,1.97,2,.5.87.76,1.94.79,3.2l-.79-1.49v-8.81h1.8v17.52h-1.44v-5.64h.58c-.03,1.33-.31,2.44-.83,3.35-.52.9-1.2,1.58-2.04,2.03-.84.45-1.78.67-2.82.67ZM848.33,578.11c.86,0,1.64-.19,2.34-.58.7-.38,1.24-.93,1.64-1.64.4-.71.6-1.53.6-2.46v-1.15c0-.9-.2-1.68-.6-2.36-.4-.68-.95-1.21-1.64-1.6-.7-.38-1.48-.58-2.36-.58-.94,0-1.76.23-2.46.68s-1.23,1.08-1.61,1.86c-.38.78-.56,1.66-.56,2.64s.19,1.9.58,2.69c.38.78.93,1.4,1.63,1.84.7.44,1.52.66,2.45.66Z"/>
      <path class="cls-2" d="M864.6,579.69c-1.09,0-2.03-.19-2.83-.56s-1.46-.88-1.97-1.51c-.51-.63-.89-1.34-1.14-2.12s-.37-1.59-.37-2.42v-.34c0-.82.12-1.62.37-2.4.25-.78.63-1.49,1.14-2.11.51-.62,1.16-1.12,1.93-1.5.78-.38,1.68-.56,2.72-.56,1.33,0,2.44.3,3.32.89.89.59,1.56,1.35,2,2.27.45.92.67,1.91.67,2.96v.94h-11.35v-1.39h10.1l-.46.7c0-.94-.16-1.77-.49-2.48-.33-.71-.81-1.27-1.44-1.68-.63-.41-1.42-.61-2.36-.61-.99,0-1.82.23-2.47.7-.66.46-1.15,1.08-1.48,1.85-.33.77-.49,1.64-.49,2.62s.16,1.84.49,2.63c.33.79.83,1.42,1.51,1.88s1.54.7,2.58.7c1.1,0,2-.25,2.69-.76s1.11-1.1,1.27-1.79h1.68c-.16.85-.5,1.58-1.01,2.2-.51.62-1.16,1.09-1.94,1.43-.78.34-1.68.5-2.69.5Z"/>
      <path class="cls-2" d="M879.26,579.69c-1.07,0-2-.19-2.8-.56s-1.45-.89-1.98-1.54c-.53-.65-.92-1.36-1.19-2.15-.26-.78-.4-1.58-.4-2.38v-.34c0-.82.13-1.61.4-2.39.26-.78.66-1.48,1.19-2.11.53-.63,1.19-1.14,1.98-1.51.79-.38,1.71-.56,2.75-.56s2,.19,2.82.58c.82.38,1.49.93,2,1.63.51.7.82,1.54.91,2.5h-1.73c-.14-.88-.56-1.61-1.24-2.2s-1.6-.88-2.77-.88c-1.01,0-1.84.23-2.51.68-.66.46-1.16,1.07-1.5,1.85s-.5,1.64-.5,2.58.17,1.79.5,2.58.84,1.42,1.51,1.9c.67.47,1.52.71,2.54.71.78,0,1.47-.14,2.05-.42.58-.28,1.06-.66,1.42-1.14.36-.48.57-1.01.64-1.58h1.73c-.06.96-.36,1.8-.9,2.51s-1.23,1.26-2.08,1.66c-.85.39-1.8.59-2.86.59Z"/>
      <path class="cls-2" d="M887.04,568.03v-1.44h3.82v1.44h-3.82ZM889.46,564.23c-.43,0-.76-.12-.97-.35-.22-.23-.32-.52-.32-.88s.11-.64.32-.88c.22-.23.54-.35.97-.35s.75.12.96.35c.21.23.31.52.31.88s-.1.64-.31.88c-.21.23-.53.35-.96.35ZM889.08,579.28v-12.7h1.78v12.7h-1.78Z"/>
      <path class="cls-2" d="M899.59,579.64c-1.63,0-2.89-.36-3.77-1.07s-1.33-1.67-1.34-2.87h1.68c.03.61.31,1.16.83,1.66s1.39.74,2.6.74c1.14,0,1.99-.24,2.56-.71.57-.47.85-1.04.85-1.72,0-.62-.24-1.11-.71-1.45-.47-.34-1.16-.56-2.05-.66l-1.44-.14c-1.15-.13-2.08-.48-2.8-1.07-.71-.58-1.07-1.39-1.07-2.41,0-.75.19-1.41.58-1.97.38-.56.92-1,1.62-1.31.7-.31,1.52-.47,2.46-.47,1.36,0,2.47.32,3.32.96.86.64,1.29,1.55,1.31,2.74h-1.68c-.02-.61-.27-1.12-.77-1.54-.5-.42-1.22-.62-2.18-.62s-1.73.22-2.22.65c-.49.43-.73.96-.73,1.58,0,.53.18.96.55,1.31.37.34.94.56,1.73.64l1.44.14c1.28.14,2.32.51,3.13,1.1s1.21,1.44,1.21,2.54c0,.75-.21,1.43-.64,2.03-.42.6-1.02,1.07-1.79,1.4-.77.34-1.66.5-2.69.5Z"/>
      <path class="cls-2" d="M906.91,568.03v-1.44h3.82v1.44h-3.82ZM909.33,564.23c-.43,0-.76-.12-.97-.35-.22-.23-.32-.52-.32-.88s.11-.64.32-.88c.22-.23.54-.35.97-.35s.75.12.96.35c.21.23.31.52.31.88s-.1.64-.31.88c-.21.23-.53.35-.96.35ZM908.95,579.28v-12.7h1.78v12.7h-1.78Z"/>
      <path class="cls-2" d="M921.14,579.69c-1.09,0-2.04-.19-2.87-.56-.82-.38-1.52-.88-2.09-1.51-.57-.63-1-1.34-1.3-2.12-.3-.78-.44-1.58-.44-2.4v-.34c0-.82.15-1.62.46-2.41.3-.79.74-1.5,1.32-2.12.58-.62,1.28-1.12,2.1-1.5.82-.38,1.76-.56,2.82-.56s2.02.19,2.84.56c.82.38,1.52.88,2.1,1.5s1.01,1.33,1.31,2.12c.3.79.44,1.6.44,2.41v.34c0,.82-.14,1.62-.43,2.4-.29.78-.72,1.49-1.28,2.12-.57.63-1.27,1.14-2.1,1.51-.83.38-1.79.56-2.88.56ZM921.14,578.08c1.06,0,1.95-.24,2.68-.71.73-.47,1.28-1.1,1.67-1.87.38-.78.58-1.64.58-2.58s-.2-1.83-.59-2.6c-.39-.78-.96-1.39-1.69-1.85-.74-.46-1.62-.68-2.64-.68s-1.88.23-2.62.68c-.74.46-1.3,1.07-1.69,1.85s-.59,1.64-.59,2.6.19,1.8.58,2.58c.38.78.94,1.4,1.67,1.87.73.47,1.61.71,2.65.71Z"/>
      <path class="cls-2" d="M931.51,579.28v-12.7h1.44v5.33h-.29c0-1.18.18-2.2.53-3.05.35-.85.88-1.5,1.58-1.97s1.59-.7,2.66-.7h.07c1.6,0,2.79.5,3.58,1.5.78,1,1.18,2.4,1.18,4.21v7.37h-1.78v-7.75c0-1.1-.3-1.99-.91-2.66-.61-.67-1.46-1.01-2.54-1.01s-2.02.35-2.7,1.04c-.68.7-1.02,1.61-1.02,2.75v7.63h-1.8Z"/>
      <path class="cls-2" d="M950.76,579.64c-1.63,0-2.89-.36-3.77-1.07s-1.33-1.67-1.34-2.87h1.68c.03.61.31,1.16.83,1.66s1.39.74,2.6.74c1.14,0,1.99-.24,2.56-.71.57-.47.85-1.04.85-1.72,0-.62-.24-1.11-.71-1.45-.47-.34-1.16-.56-2.05-.66l-1.44-.14c-1.15-.13-2.08-.48-2.8-1.07-.71-.58-1.07-1.39-1.07-2.41,0-.75.19-1.41.58-1.97.38-.56.92-1,1.62-1.31.7-.31,1.52-.47,2.46-.47,1.36,0,2.47.32,3.32.96.86.64,1.29,1.55,1.31,2.74h-1.68c-.02-.61-.27-1.12-.77-1.54-.5-.42-1.22-.62-2.18-.62s-1.73.22-2.22.65c-.49.43-.73.96-.73,1.58,0,.53.18.96.55,1.31.37.34.94.56,1.73.64l1.44.14c1.28.14,2.32.51,3.13,1.1s1.21,1.44,1.21,2.54c0,.75-.21,1.43-.64,2.03-.42.6-1.02,1.07-1.79,1.4-.77.34-1.66.5-2.69.5Z"/>
      <path class="cls-2" d="M959.18,582.95l-1.46-.53,2.09-5.78,1.51.55-2.14,5.76Z"/>
      <path class="cls-2" d="M977.54,579.69c-1.12,0-2.1-.25-2.94-.74s-1.5-1.19-1.97-2.09-.72-1.93-.76-3.1h.55v5.52h-1.44v-17.52h1.8v8.76l-.7,1.61c.03-1.28.29-2.36.78-3.25.49-.89,1.14-1.56,1.97-2.03s1.76-.7,2.82-.7c.93,0,1.77.18,2.52.53.75.35,1.4.83,1.93,1.44.54.61.94,1.31,1.22,2.1.28.79.42,1.63.42,2.51v.34c0,.86-.14,1.69-.43,2.48-.29.79-.7,1.5-1.24,2.12-.54.62-1.19,1.12-1.96,1.48-.77.36-1.63.54-2.59.54ZM977.35,578.11c.96,0,1.78-.23,2.47-.7.69-.46,1.21-1.09,1.58-1.87.37-.78.55-1.66.55-2.64s-.19-1.88-.56-2.65c-.38-.78-.91-1.39-1.61-1.84-.7-.45-1.51-.67-2.44-.67-.86,0-1.65.19-2.35.58-.71.38-1.26.92-1.67,1.62-.41.7-.61,1.52-.61,2.46v1.18c0,.9.2,1.68.61,2.36.41.68.96,1.21,1.67,1.6.7.38,1.49.58,2.35.58Z"/>
      <path class="cls-2" d="M992.71,579.69c-1.09,0-2.03-.19-2.83-.56-.8-.38-1.46-.88-1.97-1.51-.51-.63-.89-1.34-1.14-2.12s-.37-1.59-.37-2.42v-.34c0-.82.12-1.62.37-2.4.25-.78.63-1.49,1.14-2.11.51-.62,1.16-1.12,1.93-1.5.78-.38,1.68-.56,2.72-.56,1.33,0,2.44.3,3.32.89.89.59,1.56,1.35,2,2.27s.67,1.91.67,2.96v.94h-11.35v-1.39h10.1l-.46.7c0-.94-.16-1.77-.49-2.48s-.81-1.27-1.44-1.68c-.63-.41-1.42-.61-2.36-.61-.99,0-1.82.23-2.47.7s-1.15,1.08-1.48,1.85-.49,1.64-.49,2.62.16,1.84.49,2.63.83,1.42,1.51,1.88c.68.46,1.54.7,2.58.7,1.1,0,2-.25,2.69-.76s1.11-1.1,1.27-1.79h1.68c-.16.85-.5,1.58-1.01,2.2-.51.62-1.16,1.09-1.94,1.43s-1.68.5-2.69.5Z"/>
      <path class="cls-2" d="M1002.02,579.28v-17.52h1.8v9.91l-.53.41c0-1.18.17-2.22.52-3.1.34-.88.86-1.56,1.56-2.05.7-.49,1.57-.73,2.63-.73h.1c1.54,0,2.7.5,3.49,1.51.79,1.01,1.19,2.41,1.19,4.2v7.37h-1.78v-7.75c0-1.14-.31-2.03-.94-2.69-.62-.66-1.46-.98-2.52-.98-1.14,0-2.04.36-2.71,1.09-.67.73-1.01,1.68-1.01,2.87v7.46h-1.8Z"/>
      <path class="cls-2" d="M1020.7,579.62c-.9,0-1.69-.16-2.38-.48-.69-.32-1.22-.78-1.6-1.39-.38-.61-.56-1.34-.56-2.21s.2-1.57.59-2.16c.39-.59.96-1.04,1.7-1.36.74-.31,1.64-.47,2.7-.47h3.72v1.37h-3.84c-1.01,0-1.78.24-2.32.73-.54.49-.8,1.12-.8,1.91s.28,1.44.84,1.91c.56.47,1.32.71,2.28.71.59,0,1.16-.11,1.7-.32s1-.58,1.37-1.1c.37-.52.57-1.24.6-2.15l.53.74c-.06.94-.29,1.73-.67,2.36-.38.63-.9,1.11-1.56,1.43-.66.32-1.42.48-2.3.48ZM1024.99,579.28v-3.82h-.29v-4.51c0-.94-.25-1.67-.74-2.17s-1.26-.76-2.3-.76c-.48,0-.96,0-1.45.02-.49.02-.95.04-1.39.06-.44.02-.83.05-1.16.08v-1.58c.35-.03.71-.06,1.08-.1s.75-.05,1.14-.06c.39,0,.77-.01,1.14-.01,1.3,0,2.34.16,3.13.48.79.32,1.37.82,1.74,1.5.37.68.55,1.58.55,2.7v8.16h-1.44Z"/>
      <path class="cls-2" d="M1033.73,579.28l-4.46-12.7h1.85l4.42,12.7h-1.8ZM1034.21,579.28v-1.46h2.28v1.46h-2.28ZM1035.19,579.28l3.86-12.7h1.78l-3.94,12.7h-1.7Z"/>
      <path class="cls-2" d="M1042.66,568.03v-1.44h3.82v1.44h-3.82ZM1045.08,564.23c-.43,0-.76-.12-.97-.35-.22-.23-.32-.52-.32-.88s.11-.64.32-.88c.22-.23.54-.35.97-.35s.75.12.96.35c.21.23.31.52.31.88s-.1.64-.31.88c-.21.23-.53.35-.96.35ZM1044.7,579.28v-12.7h1.78v12.7h-1.78Z"/>
      <path class="cls-2" d="M1056.89,579.69c-1.09,0-2.04-.19-2.87-.56s-1.52-.88-2.09-1.51-1-1.34-1.3-2.12-.44-1.58-.44-2.4v-.34c0-.82.15-1.62.46-2.41s.74-1.5,1.32-2.12c.58-.62,1.28-1.12,2.1-1.5.82-.38,1.76-.56,2.82-.56s2.02.19,2.84.56c.82.38,1.52.88,2.1,1.5s1.01,1.33,1.31,2.12.44,1.6.44,2.41v.34c0,.82-.14,1.62-.43,2.4s-.72,1.49-1.28,2.12-1.27,1.14-2.1,1.51-1.79.56-2.88.56ZM1056.89,578.08c1.06,0,1.95-.24,2.68-.71.73-.47,1.28-1.1,1.67-1.87.38-.78.58-1.64.58-2.58s-.2-1.83-.59-2.6c-.39-.78-.96-1.39-1.69-1.85-.74-.46-1.62-.68-2.64-.68s-1.88.23-2.62.68c-.74.46-1.3,1.07-1.69,1.85-.39.78-.59,1.64-.59,2.6s.19,1.8.58,2.58c.38.78.94,1.4,1.67,1.87.73.47,1.61.71,2.65.71Z"/>
      <path class="cls-2" d="M1067.26,579.28v-12.7h1.44v5.3h-.14c0-1.86.41-3.23,1.22-4.12.82-.89,2.1-1.33,3.84-1.33h.41v1.63h-.74c-1.38,0-2.42.36-3.14,1.07-.72.71-1.08,1.76-1.08,3.13v7.01h-1.8Z"/>
      <path class="cls-2" d="M1080.94,579.64c-1.63,0-2.89-.36-3.77-1.07-.88-.71-1.33-1.67-1.34-2.87h1.68c.03.61.31,1.16.83,1.66.52.5,1.39.74,2.6.74,1.14,0,1.99-.24,2.56-.71.57-.47.85-1.04.85-1.72,0-.62-.24-1.11-.71-1.45s-1.16-.56-2.05-.66l-1.44-.14c-1.15-.13-2.08-.48-2.8-1.07-.71-.58-1.07-1.39-1.07-2.41,0-.75.19-1.41.58-1.97.38-.56.92-1,1.62-1.31.7-.31,1.52-.47,2.46-.47,1.36,0,2.47.32,3.32.96.86.64,1.29,1.55,1.31,2.74h-1.68c-.02-.61-.27-1.12-.77-1.54s-1.22-.62-2.18-.62-1.73.22-2.22.65c-.49.43-.73.96-.73,1.58,0,.53.18.96.55,1.31.37.34.94.56,1.73.64l1.44.14c1.28.14,2.32.51,3.13,1.1.81.59,1.21,1.44,1.21,2.54,0,.75-.21,1.43-.64,2.03-.42.6-1.02,1.07-1.79,1.4-.77.34-1.66.5-2.69.5Z"/>
      <path class="cls-2" d="M1089.36,582.95l-1.46-.53,2.09-5.78,1.51.55-2.14,5.76Z"/>
      <path class="cls-2" d="M1104.6,579.62c-.9,0-1.69-.16-2.38-.48-.69-.32-1.22-.78-1.6-1.39-.38-.61-.56-1.34-.56-2.21s.2-1.57.59-2.16c.39-.59.96-1.04,1.7-1.36.74-.31,1.64-.47,2.7-.47h3.72v1.37h-3.84c-1.01,0-1.78.24-2.32.73s-.8,1.12-.8,1.91.28,1.44.84,1.91c.56.47,1.32.71,2.28.71.59,0,1.16-.11,1.7-.32.54-.22,1-.58,1.37-1.1.37-.52.57-1.24.6-2.15l.53.74c-.06.94-.29,1.73-.67,2.36-.38.63-.9,1.11-1.56,1.43-.66.32-1.42.48-2.3.48ZM1108.9,579.28v-3.82h-.29v-4.51c0-.94-.25-1.67-.74-2.17s-1.26-.76-2.3-.76c-.48,0-.96,0-1.45.02-.49.02-.95.04-1.39.06-.44.02-.83.05-1.16.08v-1.58c.35-.03.71-.06,1.08-.1.37-.03.75-.05,1.14-.06.39,0,.77-.01,1.14-.01,1.3,0,2.34.16,3.13.48.79.32,1.37.82,1.74,1.5.37.68.55,1.58.55,2.7v8.16h-1.44Z"/>
      <path class="cls-2" d="M1114.82,579.28v-12.7h1.44v5.33h-.29c0-1.18.18-2.2.53-3.05.35-.85.88-1.5,1.58-1.97s1.59-.7,2.66-.7h.07c1.6,0,2.79.5,3.58,1.5.79,1,1.18,2.4,1.18,4.21v7.37h-1.78v-7.75c0-1.1-.3-1.99-.91-2.66-.61-.67-1.46-1.01-2.54-1.01s-2.02.35-2.7,1.04-1.02,1.61-1.02,2.75v7.63h-1.8Z"/>
      <path class="cls-2" d="M1135.27,579.69c-.93,0-1.77-.17-2.53-.52-.76-.34-1.42-.82-1.97-1.44-.55-.62-.98-1.32-1.27-2.11-.3-.79-.45-1.64-.45-2.53v-.34c0-.86.14-1.69.43-2.48s.7-1.5,1.24-2.11c.54-.62,1.18-1.1,1.95-1.46.76-.36,1.61-.54,2.55-.54,1.07,0,2.02.23,2.83.7.82.46,1.47,1.13,1.97,2s.76,1.94.79,3.2l-.79-1.49v-8.81h1.8v17.52h-1.44v-5.64h.58c-.03,1.33-.31,2.44-.83,3.35-.52.9-1.2,1.58-2.04,2.03-.84.45-1.78.67-2.82.67ZM1135.51,578.11c.86,0,1.64-.19,2.34-.58.7-.38,1.24-.93,1.64-1.64.4-.71.6-1.53.6-2.46v-1.15c0-.9-.2-1.68-.6-2.36-.4-.68-.95-1.21-1.64-1.6-.7-.38-1.48-.58-2.36-.58-.94,0-1.76.23-2.46.68s-1.23,1.08-1.61,1.86c-.38.78-.56,1.66-.56,2.64s.19,1.9.58,2.69c.38.78.93,1.4,1.63,1.84.7.44,1.52.66,2.45.66Z"/>
      <path class="cls-2" d="M1152.07,579.28v-12.72h1.44v5.35h-.29c0-1.17.16-2.18.49-3.02.33-.85.82-1.51,1.48-1.98.66-.47,1.49-.71,2.5-.71h.07c1.01,0,1.84.23,2.5.7.66.46,1.14,1.12,1.46,1.97.32.85.48,1.86.48,3.05h-.58c0-1.17.16-2.18.49-3.02.33-.85.82-1.51,1.49-1.98.66-.47,1.5-.71,2.51-.71h.07c1.01,0,1.84.23,2.51.7s1.16,1.12,1.49,1.97c.33.85.49,1.86.49,3.05v7.37h-1.8v-7.78c0-1.12-.27-2.01-.82-2.66-.54-.66-1.33-.98-2.35-.98s-1.89.34-2.51,1.02c-.62.68-.92,1.6-.92,2.75v7.66h-1.8v-7.78c0-1.12-.27-2.01-.82-2.66-.54-.66-1.33-.98-2.35-.98s-1.89.34-2.51,1.02c-.62.68-.92,1.6-.92,2.75v7.66h-1.8Z"/>
      <path class="cls-2" d="M1180.46,579.69c-1.09,0-2.03-.19-2.83-.56-.8-.38-1.46-.88-1.97-1.51-.51-.63-.89-1.34-1.14-2.12s-.37-1.59-.37-2.42v-.34c0-.82.12-1.62.37-2.4.25-.78.63-1.49,1.14-2.11.51-.62,1.16-1.12,1.93-1.5.78-.38,1.68-.56,2.72-.56,1.33,0,2.44.3,3.32.89.89.59,1.56,1.35,2,2.27s.67,1.91.67,2.96v.94h-11.35v-1.39h10.1l-.46.7c0-.94-.16-1.77-.49-2.48s-.81-1.27-1.44-1.68c-.63-.41-1.42-.61-2.36-.61-.99,0-1.82.23-2.47.7s-1.15,1.08-1.48,1.85-.49,1.64-.49,2.62.16,1.84.49,2.63.83,1.42,1.51,1.88c.68.46,1.54.7,2.58.7,1.1,0,2-.25,2.69-.76s1.11-1.1,1.27-1.79h1.68c-.16.85-.5,1.58-1.01,2.2-.51.62-1.16,1.09-1.94,1.43s-1.68.5-2.69.5Z"/>
      <path class="cls-2" d="M1193.21,579.62c-.9,0-1.69-.16-2.38-.48-.69-.32-1.22-.78-1.6-1.39-.38-.61-.56-1.34-.56-2.21s.2-1.57.59-2.16c.39-.59.96-1.04,1.7-1.36.74-.31,1.64-.47,2.7-.47h3.72v1.37h-3.84c-1.01,0-1.78.24-2.32.73-.54.49-.8,1.12-.8,1.91s.28,1.44.84,1.91c.56.47,1.32.71,2.28.71.59,0,1.16-.11,1.7-.32s1-.58,1.37-1.1c.37-.52.57-1.24.6-2.15l.53.74c-.06.94-.29,1.73-.67,2.36-.38.63-.9,1.11-1.56,1.43-.66.32-1.42.48-2.3.48ZM1197.5,579.28v-3.82h-.29v-4.51c0-.94-.25-1.67-.74-2.17s-1.26-.76-2.3-.76c-.48,0-.96,0-1.45.02-.49.02-.95.04-1.39.06-.44.02-.83.05-1.16.08v-1.58c.35-.03.71-.06,1.08-.1s.75-.05,1.14-.06c.39,0,.77-.01,1.14-.01,1.3,0,2.34.16,3.13.48.79.32,1.37.82,1.74,1.5.37.68.55,1.58.55,2.7v8.16h-1.44Z"/>
      <path class="cls-2" d="M1203.43,579.28v-12.7h1.44v5.33h-.29c0-1.18.18-2.2.53-3.05.35-.85.88-1.5,1.58-1.97s1.59-.7,2.66-.7h.07c1.6,0,2.79.5,3.58,1.5.78,1,1.18,2.4,1.18,4.21v7.37h-1.78v-7.75c0-1.1-.3-1.99-.91-2.66-.61-.67-1.46-1.01-2.54-1.01s-2.02.35-2.7,1.04c-.68.7-1.02,1.61-1.02,2.75v7.63h-1.8Z"/>
      <path class="cls-2" d="M1217.3,568.03v-1.44h3.82v1.44h-3.82ZM1219.73,564.23c-.43,0-.76-.12-.97-.35-.22-.23-.32-.52-.32-.88s.11-.64.32-.88c.21-.23.54-.35.97-.35s.75.12.96.35c.21.23.31.52.31.88s-.1.64-.31.88c-.21.23-.53.35-.96.35ZM1219.34,579.28v-12.7h1.78v12.7h-1.78Z"/>
      <path class="cls-2" d="M1225.85,579.28v-12.7h1.44v5.33h-.29c0-1.18.18-2.2.53-3.05.35-.85.88-1.5,1.58-1.97s1.59-.7,2.66-.7h.07c1.6,0,2.79.5,3.58,1.5.78,1,1.18,2.4,1.18,4.21v7.37h-1.78v-7.75c0-1.1-.3-1.99-.91-2.66-.61-.67-1.46-1.01-2.54-1.01s-2.02.35-2.7,1.04c-.68.7-1.02,1.61-1.02,2.75v7.63h-1.8Z"/>
      <path class="cls-2" d="M1245.94,584.25c-.59,0-1.19-.03-1.79-.08-.6-.06-1.17-.12-1.72-.2v-1.54c.58.08,1.18.15,1.81.2.63.06,1.23.08,1.79.08,1.22,0,2.18-.16,2.9-.48.72-.32,1.24-.83,1.55-1.52.31-.7.47-1.61.47-2.75v-2.54l.67-1.78c-.03,1.22-.29,2.26-.77,3.13s-1.13,1.54-1.94,2-1.74.7-2.78.7c-.91,0-1.74-.18-2.48-.53-.74-.35-1.38-.84-1.91-1.45-.53-.62-.94-1.32-1.22-2.1-.29-.78-.43-1.61-.43-2.47v-.34c0-.85.14-1.66.43-2.44.29-.78.7-1.46,1.22-2.06.53-.6,1.17-1.07,1.93-1.42.76-.34,1.6-.52,2.53-.52,1.12,0,2.1.25,2.93.74s1.48,1.18,1.96,2.06c.47.88.72,1.91.76,3.1l-.58-.31v-5.16h1.42v11.3c0,1.52-.22,2.74-.67,3.67-.45.93-1.16,1.61-2.15,2.04-.98.43-2.29.65-3.92.65ZM1246.44,577.82c.86,0,1.64-.19,2.32-.56.68-.38,1.22-.91,1.62-1.6.4-.69.6-1.49.6-2.4v-1.18c0-.88-.2-1.65-.61-2.3s-.95-1.17-1.62-1.54-1.44-.55-2.3-.55c-.93,0-1.74.22-2.42.67-.69.45-1.22,1.05-1.58,1.81-.37.76-.55,1.62-.55,2.58s.19,1.85.56,2.62c.38.77.91,1.37,1.6,1.8.69.43,1.49.65,2.4.65Z"/>
      <path class="cls-2" d="M1256.83,579.28v-2.38h2.26v2.38h-2.26Z"/>
    </g>
    <g>
      <path class="cls-2" d="M550.45,167.49c-3.72,0-6.91-.66-9.55-1.97-2.64-1.31-4.79-3.03-6.44-5.16-1.65-2.13-2.86-4.44-3.62-6.93-.76-2.49-1.14-4.91-1.14-7.27v-1.08c0-2.55.39-5.08,1.17-7.61.78-2.53,2-4.82,3.65-6.87,1.65-2.05,3.77-3.69,6.36-4.93,2.58-1.23,5.64-1.85,9.18-1.85s6.66.63,9.26,1.88c2.6,1.25,4.68,3.01,6.24,5.27,1.56,2.26,2.51,4.93,2.85,8.01h-4.39c-.3-2.47-1.1-4.53-2.39-6.18-1.29-1.65-2.94-2.9-4.93-3.73-1.99-.83-4.21-1.25-6.64-1.25-2.62,0-4.93.47-6.93,1.4-2,.93-3.66,2.22-4.99,3.88-1.33,1.65-2.34,3.55-3.02,5.7-.68,2.15-1.03,4.44-1.03,6.87s.33,4.54,1,6.67c.66,2.13,1.68,4.04,3.05,5.73,1.37,1.69,3.08,3.02,5.13,3.99,2.05.97,4.45,1.45,7.18,1.45,3.8,0,6.99-.96,9.58-2.88,2.58-1.92,4.18-4.68,4.79-8.29h4.39c-.42,2.85-1.41,5.42-2.96,7.72-1.56,2.3-3.66,4.11-6.3,5.44-2.64,1.33-5.8,2-9.49,2Z"/>
      <path class="cls-2" d="M576.74,166.53v-41.61h4.33v41.61h-4.33ZM579.93,166.53v-3.93h19.55v3.93h-19.55Z"/>
      <path class="cls-2" d="M603.79,166.53l15.33-41.61h7.75l15.85,41.61h-4.45l-14.76-38.87,2.34,1.2h-5.98l2.45-1.2-14.19,38.87h-4.33ZM612,153.3l1.43-3.93h19.32l1.48,3.93h-22.23Z"/>
      <path class="cls-2" d="M649.32,166.53v-41.78h4.33v41.78h-4.33ZM651.89,150.74v-3.88h11.17c2.05,0,3.76-.4,5.13-1.2,1.37-.8,2.39-1.88,3.08-3.25.68-1.37,1.03-2.93,1.03-4.67s-.34-3.31-1.03-4.67-1.71-2.46-3.08-3.28c-1.37-.82-3.08-1.23-5.13-1.23h-11.17v-3.82h10.43c3.08,0,5.69.48,7.84,1.45,2.15.97,3.78,2.39,4.9,4.27,1.12,1.88,1.68,4.17,1.68,6.87v.8c0,2.7-.57,4.99-1.71,6.87s-2.77,3.31-4.9,4.27c-2.13.97-4.73,1.45-7.81,1.45h-10.43ZM675.14,166.53l-14.19-18.41h5.07l14.42,18.41h-5.3Z"/>
      <path class="cls-2" d="M686.94,166.53v-41.61h4.33v41.61h-4.33Z"/>
      <path class="cls-2" d="M697.79,128.85v-3.93h30.32v3.93h-30.32ZM710.78,166.53v-38.76h4.33v38.76h-4.33Z"/>
      <path class="cls-2" d="M745.53,150.22l-13.4-25.31h4.56l11.8,22.63-1.82-.74h6.33l-1.88.74,11.17-22.63h4.27l-12.6,25.31h-8.44ZM747.58,166.53v-17.27h4.27v17.27h-4.27Z"/>
      <path class="cls-2" d="M801.04,167.49c-3.5,0-6.44-.56-8.83-1.68-2.39-1.12-4.21-2.68-5.44-4.67-1.24-1.99-1.85-4.25-1.85-6.75h4.33c0,1.6.39,3.09,1.17,4.47.78,1.39,2.03,2.51,3.76,3.36,1.73.85,4.02,1.28,6.87,1.28,2.62,0,4.8-.38,6.53-1.14,1.73-.76,3.02-1.79,3.88-3.08.85-1.29,1.28-2.74,1.28-4.33,0-2.01-.79-3.7-2.37-5.04-1.58-1.35-3.94-2.16-7.1-2.42l-4.79-.46c-3.57-.3-6.41-1.42-8.52-3.33-2.11-1.92-3.16-4.45-3.16-7.61,0-2.39.57-4.5,1.71-6.33,1.14-1.82,2.76-3.27,4.87-4.33,2.11-1.06,4.65-1.6,7.61-1.6s5.58.54,7.72,1.62c2.15,1.08,3.79,2.57,4.93,4.47,1.14,1.9,1.71,4.1,1.71,6.61h-4.33c0-1.52-.34-2.94-1.03-4.27-.68-1.33-1.77-2.4-3.25-3.22-1.48-.82-3.4-1.23-5.76-1.23s-4.09.38-5.56,1.14c-1.46.76-2.55,1.77-3.25,3.02-.7,1.25-1.05,2.62-1.05,4.1,0,1.86.66,3.44,2,4.73,1.33,1.29,3.25,2.03,5.76,2.22l4.79.46c2.81.23,5.22.85,7.21,1.85,2,1.01,3.52,2.32,4.59,3.93,1.06,1.62,1.6,3.51,1.6,5.67,0,2.43-.66,4.6-1.97,6.5-1.31,1.9-3.16,3.38-5.56,4.45s-5.23,1.6-8.49,1.6Z"/>
      <path class="cls-2" d="M825.71,166.53v-41.61h4.33v41.61h-4.33ZM829.08,147.83v-3.88h26.22v3.88h-26.22ZM854.33,166.53v-41.61h4.33v41.61h-4.33Z"/>
      <path class="cls-2" d="M865.32,166.53l15.33-41.61h7.75l15.85,41.61h-4.45l-14.76-38.87,2.34,1.2h-5.98l2.45-1.2-14.19,38.87h-4.33ZM873.52,153.3l1.43-3.93h19.32l1.48,3.93h-22.23Z"/>
      <path class="cls-2" d="M910.85,166.53v-41.78h4.33v41.78h-4.33ZM914.04,151.31v-3.82h9.69c2.24,0,4.07-.43,5.47-1.28,1.41-.85,2.45-2,3.13-3.42.68-1.42,1.03-3.01,1.03-4.76s-.34-3.39-1.03-4.82c-.68-1.43-1.73-2.56-3.13-3.39-1.41-.84-3.23-1.25-5.47-1.25h-9.69v-3.82h8.95c3.34,0,6.11.55,8.29,1.65,2.18,1.1,3.82,2.62,4.9,4.56s1.62,4.16,1.62,6.67v.8c0,2.47-.54,4.68-1.62,6.64-1.08,1.96-2.72,3.49-4.9,4.59-2.19,1.1-4.95,1.65-8.29,1.65h-8.95Z"/>
      <path class="cls-2" d="M944.67,166.53v-41.61h4.33v41.61h-4.33ZM947.98,128.85v-3.93h20.18v3.93h-20.18ZM947.98,147.32v-3.88h18.87v3.88h-18.87ZM947.98,166.53v-3.93h20.81v3.93h-20.81Z"/>
      <path class="cls-2" d="M989.8,167.49c-3.5,0-6.44-.56-8.83-1.68-2.39-1.12-4.21-2.68-5.44-4.67-1.24-1.99-1.85-4.25-1.85-6.75h4.33c0,1.6.39,3.09,1.17,4.47.78,1.39,2.03,2.51,3.76,3.36,1.73.85,4.02,1.28,6.87,1.28,2.62,0,4.8-.38,6.53-1.14,1.73-.76,3.02-1.79,3.88-3.08.86-1.29,1.28-2.74,1.28-4.33,0-2.01-.79-3.7-2.37-5.04-1.58-1.35-3.94-2.16-7.1-2.42l-4.79-.46c-3.57-.3-6.41-1.42-8.52-3.33-2.11-1.92-3.16-4.45-3.16-7.61,0-2.39.57-4.5,1.71-6.33,1.14-1.82,2.76-3.27,4.87-4.33,2.11-1.06,4.64-1.6,7.61-1.6s5.58.54,7.72,1.62,3.79,2.57,4.93,4.47c1.14,1.9,1.71,4.1,1.71,6.61h-4.33c0-1.52-.34-2.94-1.03-4.27-.68-1.33-1.77-2.4-3.25-3.22-1.48-.82-3.4-1.23-5.76-1.23s-4.1.38-5.56,1.14c-1.46.76-2.55,1.77-3.25,3.02s-1.05,2.62-1.05,4.1c0,1.86.66,3.44,2,4.73,1.33,1.29,3.25,2.03,5.76,2.22l4.79.46c2.81.23,5.22.85,7.21,1.85,2,1.01,3.53,2.32,4.59,3.93,1.06,1.62,1.6,3.51,1.6,5.67,0,2.43-.66,4.6-1.97,6.5-1.31,1.9-3.16,3.38-5.56,4.45s-5.23,1.6-8.49,1.6Z"/>
      <path class="cls-2" d="M1028.56,166.53v-41.61h6.78v41.61h-6.78ZM1034.21,130.84v-5.93h18.98v5.93h-18.98ZM1034.21,148.34v-5.93h17.9v5.93h-17.9ZM1034.21,166.53v-5.93h19.49v5.93h-19.49Z"/>
      <path class="cls-2" d="M1071.67,166.53l-13.79-41.61h7.01l11.97,36.99-2.51-1.25h6.5l-2.74,1.25,11.06-36.99h6.84l-12.88,41.61h-11.46Z"/>
      <path class="cls-2" d="M1101.64,166.53v-41.61h6.78v41.61h-6.78ZM1107.28,130.84v-5.93h18.98v5.93h-18.98ZM1107.28,148.34v-5.93h17.9v5.93h-17.9ZM1107.28,166.53v-5.93h19.49v5.93h-19.49Z"/>
      <path class="cls-2" d="M1134.23,166.53v-41.9h6.84v41.9h-6.84ZM1138.85,152.05v-5.76h10.83c1.63,0,3.04-.33,4.22-1,1.18-.66,2.08-1.59,2.71-2.76.63-1.18.94-2.55.94-4.1s-.31-2.87-.94-4.05c-.63-1.18-1.53-2.11-2.71-2.79s-2.58-1.03-4.22-1.03h-10.83v-5.93h9.92c3.19,0,5.97.48,8.32,1.45,2.36.97,4.18,2.42,5.47,4.36,1.29,1.94,1.94,4.43,1.94,7.47v.91c0,3.04-.66,5.53-1.97,7.47-1.31,1.94-3.14,3.38-5.47,4.33-2.34.95-5.1,1.42-8.29,1.42h-9.92ZM1159.77,166.53l-13.22-18.3h7.75l13.62,18.3h-8.15Z"/>
      <path class="cls-2" d="M1179.96,150.45l-12.88-25.54h7.07l10.37,20.98-2-.63h6.04l-2.11.63,9.63-20.98h6.67l-12.03,25.54h-10.77ZM1182.01,166.53v-17.27h6.67v17.27h-6.67Z"/>
      <path class="cls-2" d="M1206.12,130.96v-6.04h31.52v6.04h-31.52ZM1218.44,166.53v-36.71h6.84v36.71h-6.84Z"/>
      <path class="cls-2" d="M1243.14,166.53v-41.61h6.84v41.61h-6.84ZM1248.67,148.8v-6.1h23.54v6.1h-23.54ZM1270.9,166.53v-41.61h6.84v41.61h-6.84Z"/>
      <path class="cls-2" d="M1287.49,166.53v-41.61h6.84v41.61h-6.84Z"/>
      <path class="cls-2" d="M1304.07,166.53v-41.61h11.17l19.32,35.74h1.88l-1.14,1.03v-36.76h6.5v41.61h-11.29l-19.32-35.74h-1.88l1.14-1.03v36.77h-6.38Z"/>
      <path class="cls-2" d="M1370.92,167.55c-3.42,0-6.46-.56-9.12-1.68-2.66-1.12-4.92-2.67-6.78-4.65-1.86-1.98-3.28-4.28-4.25-6.9-.97-2.62-1.45-5.4-1.45-8.32v-1.25c0-2.62.46-5.19,1.37-7.7.91-2.51,2.25-4.77,4.02-6.78,1.77-2.01,3.93-3.61,6.5-4.79,2.57-1.18,5.5-1.77,8.81-1.77,3.53,0,6.69.68,9.46,2.02,2.77,1.35,5,3.21,6.67,5.59,1.67,2.38,2.64,5.12,2.91,8.24h-6.95c-.23-2.05-.92-3.78-2.08-5.19-1.16-1.41-2.6-2.48-4.33-3.22-1.73-.74-3.62-1.11-5.67-1.11s-3.92.37-5.61,1.11c-1.69.74-3.15,1.79-4.36,3.14-1.22,1.35-2.15,2.96-2.79,4.84-.65,1.88-.97,3.98-.97,6.3,0,2.58.35,4.86,1.05,6.84.7,1.98,1.7,3.64,2.99,4.99,1.29,1.35,2.84,2.38,4.64,3.08,1.8.7,3.79,1.05,5.96,1.05,3,0,5.63-.62,7.89-1.85,2.26-1.23,3.96-2.84,5.1-4.82l-1.77,6.67v-11.57h6.38v9.58c-1.86,2.58-4.29,4.59-7.27,6.01-2.98,1.42-6.43,2.14-10.35,2.14ZM1369.49,151.19v-5.36h22.51v5.36h-22.51Z"/>
    </g>
  </g>
  <g>
    <path class="cls-2" d="M822.23,612.12l6.46-17.52h3.26l6.67,17.52h-1.87l-6.22-16.37.98.5h-2.52l1.03-.5-5.98,16.37h-1.82ZM825.68,606.55l.6-1.66h8.14l.62,1.66h-9.36Z"/>
    <path class="cls-2" d="M842.15,612.12v-17.52h1.82v17.52h-1.82ZM843.49,612.12v-1.66h8.23v1.66h-8.23Z"/>
    <path class="cls-2" d="M855.08,612.12v-17.52h1.82v17.52h-1.82ZM856.43,612.12v-1.66h8.23v1.66h-8.23Z"/>
    <path class="cls-2" d="M873.61,612.12v-17.59h1.82v17.59h-1.82ZM874.69,605.47v-1.63h4.7c.86,0,1.58-.17,2.16-.5.58-.34,1.01-.79,1.3-1.37.29-.58.43-1.23.43-1.97s-.14-1.39-.43-1.97-.72-1.04-1.3-1.38c-.58-.34-1.3-.52-2.16-.52h-4.7v-1.61h4.39c1.3,0,2.4.2,3.3.61.9.41,1.59,1.01,2.06,1.8.47.79.71,1.76.71,2.89v.34c0,1.14-.24,2.1-.72,2.89s-1.17,1.39-2.06,1.8c-.9.41-1.99.61-3.29.61h-4.39ZM884.48,612.12l-5.98-7.75h2.14l6.07,7.75h-2.23Z"/>
    <path class="cls-2" d="M890.15,612.12v-17.52h1.82v17.52h-1.82Z"/>
    <path class="cls-2" d="M905.15,612.53c-1.44,0-2.72-.24-3.83-.72-1.11-.48-2.04-1.14-2.8-1.98-.75-.84-1.32-1.81-1.72-2.9-.39-1.1-.59-2.25-.59-3.47v-.43c0-1.12.19-2.21.56-3.26.38-1.06.92-2.01,1.64-2.86.72-.85,1.62-1.52,2.69-2.02,1.07-.5,2.29-.74,3.65-.74s2.69.27,3.79.8,2,1.28,2.68,2.24c.68.96,1.08,2.07,1.19,3.34h-1.85c-.13-1.02-.47-1.89-1.02-2.59-.55-.7-1.24-1.23-2.08-1.58-.83-.35-1.74-.53-2.71-.53-1.02,0-1.95.18-2.78.55-.83.37-1.54.89-2.11,1.56-.58.67-1.02,1.46-1.33,2.36-.31.9-.47,1.89-.47,2.96,0,1.14.16,2.17.48,3.11.32.94.78,1.74,1.39,2.41.61.67,1.35,1.19,2.22,1.56.87.37,1.87.55,2.99.55,1.38,0,2.59-.27,3.64-.8,1.05-.54,1.86-1.24,2.44-2.12l-.72,2.26v-5.18h1.73v4.37c-.75.98-1.73,1.74-2.93,2.29-1.2.55-2.58.83-4.15.83ZM904.5,605.42v-1.54h9.29v1.54h-9.29Z"/>
    <path class="cls-2" d="M917.44,612.12v-17.52h1.82v17.52h-1.82ZM918.85,604.25v-1.63h11.04v1.63h-11.04ZM929.48,612.12v-17.52h1.82v17.52h-1.82Z"/>
    <path class="cls-2" d="M934.72,596.26v-1.66h12.77v1.66h-12.77ZM940.19,612.12v-16.32h1.82v16.32h-1.82Z"/>
    <path class="cls-2" d="M955.96,612.53c-1.47,0-2.71-.24-3.72-.71-1.01-.47-1.77-1.13-2.29-1.97-.52-.84-.78-1.79-.78-2.84h1.82c0,.67.16,1.3.49,1.88.33.58.86,1.06,1.58,1.42.73.36,1.69.54,2.89.54,1.1,0,2.02-.16,2.75-.48.73-.32,1.27-.75,1.63-1.3s.54-1.15.54-1.82c0-.85-.33-1.56-1-2.12-.66-.57-1.66-.91-2.99-1.02l-2.02-.19c-1.5-.13-2.7-.6-3.59-1.4-.89-.81-1.33-1.88-1.33-3.2,0-1.01.24-1.9.72-2.66.48-.77,1.16-1.38,2.05-1.82s1.96-.67,3.2-.67,2.35.23,3.25.68c.9.46,1.6,1.08,2.08,1.88.48.8.72,1.73.72,2.78h-1.82c0-.64-.14-1.24-.43-1.8-.29-.56-.74-1.01-1.37-1.36-.62-.34-1.43-.52-2.42-.52s-1.72.16-2.34.48c-.62.32-1.07.74-1.37,1.27-.3.53-.44,1.1-.44,1.73,0,.78.28,1.45.84,1.99.56.54,1.37.86,2.42.94l2.02.19c1.18.1,2.2.36,3.04.78.84.42,1.48.98,1.93,1.66.45.68.67,1.48.67,2.39,0,1.02-.28,1.94-.83,2.74s-1.33,1.42-2.34,1.87c-1.01.45-2.2.67-3.58.67Z"/>
    <path class="cls-2" d="M972.66,612.12v-17.59h1.82v17.59h-1.82ZM973.74,605.47v-1.63h4.7c.86,0,1.58-.17,2.16-.5.58-.34,1.01-.79,1.3-1.37.29-.58.43-1.23.43-1.97s-.14-1.39-.43-1.97-.72-1.04-1.3-1.38c-.58-.34-1.3-.52-2.16-.52h-4.7v-1.61h4.39c1.3,0,2.4.2,3.3.61.9.41,1.59,1.01,2.06,1.8s.71,1.76.71,2.89v.34c0,1.14-.24,2.1-.72,2.89-.48.79-1.17,1.39-2.06,1.8s-1.99.61-3.29.61h-4.39ZM983.53,612.12l-5.98-7.75h2.14l6.07,7.75h-2.23Z"/>
    <path class="cls-2" d="M989.15,612.12v-17.52h1.82v17.52h-1.82ZM990.54,596.26v-1.66h8.5v1.66h-8.5ZM990.54,604.03v-1.63h7.94v1.63h-7.94ZM990.54,612.12v-1.66h8.76v1.66h-8.76Z"/>
    <path class="cls-2" d="M1009.02,612.53c-1.47,0-2.71-.24-3.72-.71-1.01-.47-1.77-1.13-2.29-1.97-.52-.84-.78-1.79-.78-2.84h1.82c0,.67.16,1.3.49,1.88s.86,1.06,1.58,1.42c.73.36,1.69.54,2.89.54,1.1,0,2.02-.16,2.75-.48.73-.32,1.27-.75,1.63-1.3.36-.54.54-1.15.54-1.82,0-.85-.33-1.56-1-2.12-.66-.57-1.66-.91-2.99-1.02l-2.02-.19c-1.5-.13-2.7-.6-3.59-1.4-.89-.81-1.33-1.88-1.33-3.2,0-1.01.24-1.9.72-2.66.48-.77,1.16-1.38,2.05-1.82.89-.45,1.96-.67,3.2-.67s2.35.23,3.25.68,1.6,1.08,2.08,1.88c.48.8.72,1.73.72,2.78h-1.82c0-.64-.14-1.24-.43-1.8-.29-.56-.74-1.01-1.37-1.36-.62-.34-1.43-.52-2.42-.52s-1.72.16-2.34.48c-.62.32-1.07.74-1.37,1.27s-.44,1.1-.44,1.73c0,.78.28,1.45.84,1.99.56.54,1.37.86,2.42.94l2.02.19c1.18.1,2.2.36,3.04.78s1.48.98,1.93,1.66c.45.68.67,1.48.67,2.39,0,1.02-.28,1.94-.83,2.74-.55.8-1.33,1.42-2.34,1.87-1.01.45-2.2.67-3.58.67Z"/>
    <path class="cls-2" d="M1020.13,612.12v-17.52h1.82v17.52h-1.82ZM1021.52,596.26v-1.66h8.5v1.66h-8.5ZM1021.52,604.03v-1.63h7.94v1.63h-7.94ZM1021.52,612.12v-1.66h8.76v1.66h-8.76Z"/>
    <path class="cls-2" d="M1034.6,612.12v-17.59h1.82v17.59h-1.82ZM1035.68,605.47v-1.63h4.7c.86,0,1.58-.17,2.16-.5.58-.34,1.01-.79,1.3-1.37.29-.58.43-1.23.43-1.97s-.14-1.39-.43-1.97-.72-1.04-1.3-1.38c-.58-.34-1.3-.52-2.16-.52h-4.7v-1.61h4.39c1.3,0,2.4.2,3.3.61.9.41,1.59,1.01,2.06,1.8s.71,1.76.71,2.89v.34c0,1.14-.24,2.1-.72,2.89-.48.79-1.17,1.39-2.06,1.8s-1.99.61-3.29.61h-4.39ZM1045.48,612.12l-5.98-7.75h2.14l6.07,7.75h-2.23Z"/>
    <path class="cls-2" d="M1055.08,612.12l-6.26-17.52h1.87l5.81,16.39-.98-.53h2.54l-1.06.53,5.4-16.39h1.85l-5.88,17.52h-3.29Z"/>
    <path class="cls-2" d="M1067.75,612.12v-17.52h1.82v17.52h-1.82ZM1069.14,596.26v-1.66h8.5v1.66h-8.5ZM1069.14,604.03v-1.63h7.94v1.63h-7.94ZM1069.14,612.12v-1.66h8.76v1.66h-8.76Z"/>
    <path class="cls-2" d="M1082.22,612.22v-17.69h1.82v17.69h-1.82ZM1083.56,612.22v-1.68h4.78c1.18,0,2.22-.19,3.11-.58s1.64-.91,2.24-1.57c.61-.66,1.06-1.43,1.37-2.29.3-.86.46-1.78.46-2.76s-.16-1.94-.47-2.81c-.31-.86-.77-1.62-1.38-2.28s-1.36-1.16-2.24-1.51c-.89-.35-1.92-.53-3.08-.53h-4.78v-1.68h4.58c1.57,0,2.93.24,4.08.72,1.15.48,2.11,1.13,2.88,1.96.77.82,1.34,1.75,1.7,2.77.37,1.02.55,2.06.55,3.12v.46c0,1.04-.18,2.07-.55,3.1-.37,1.02-.93,1.96-1.68,2.8s-1.71,1.51-2.87,2.02-2.53.76-4.12.76h-4.58Z"/>
    <path class="cls-2" d="M921.84,640.92v-2.66c0-.69.1-1.27.29-1.75s.53-.92,1.01-1.32c.48-.4,1.14-.78,1.97-1.15l3.43-1.61c.83-.38,1.5-.89,1.99-1.51s.74-1.44.74-2.45c0-1.23-.35-2.2-1.04-2.89-.7-.7-1.65-1.04-2.87-1.04s-2.16.35-2.87,1.04c-.71.7-1.07,1.66-1.07,2.89h-1.75c0-1.04.22-1.98.65-2.81.43-.83,1.07-1.49,1.92-1.98.85-.49,1.89-.73,3.12-.73s2.29.24,3.12.73c.83.49,1.46,1.14,1.9,1.94s.65,1.7.65,2.68v.34c0,1.25-.36,2.29-1.07,3.13-.71.84-1.64,1.53-2.8,2.08l-3.46,1.61c-.82.37-1.36.75-1.64,1.14-.28.39-.42.89-.42,1.5v2.14l-.53-.86h10.2v1.56h-11.47Z"/>
    <path class="cls-2" d="M943.46,641.33c-1.23,0-2.29-.22-3.17-.65-.88-.43-1.6-1.04-2.16-1.81s-.97-1.69-1.24-2.74-.4-2.18-.4-3.4v-1.13c0-1.71.25-3.22.76-4.51s1.27-2.31,2.3-3.05c1.03-.74,2.33-1.1,3.9-1.1s2.86.37,3.89,1.1c1.02.74,1.79,1.75,2.29,3.05.5,1.3.76,2.8.76,4.51v1.13c0,1.22-.13,2.35-.4,3.4s-.68,1.96-1.24,2.74c-.56.78-1.28,1.38-2.16,1.81-.88.43-1.93.65-3.14.65ZM943.46,639.7c1.73,0,3.01-.61,3.85-1.82s1.26-3.11,1.26-5.69-.43-4.63-1.28-5.82c-.86-1.19-2.13-1.79-3.83-1.79s-3,.6-3.85,1.79c-.86,1.19-1.28,3.12-1.28,5.77s.42,4.5,1.26,5.72c.84,1.22,2.13,1.84,3.88,1.84Z"/>
    <path class="cls-2" d="M954.22,640.92v-2.66c0-.69.1-1.27.29-1.75s.53-.92,1.01-1.32c.48-.4,1.14-.78,1.97-1.15l3.43-1.61c.83-.38,1.5-.89,1.99-1.51s.74-1.44.74-2.45c0-1.23-.35-2.2-1.04-2.89s-1.65-1.04-2.87-1.04-2.16.35-2.87,1.04c-.71.7-1.07,1.66-1.07,2.89h-1.75c0-1.04.22-1.98.65-2.81.43-.83,1.07-1.49,1.92-1.98.85-.49,1.89-.73,3.12-.73s2.29.24,3.12.73c.83.49,1.46,1.14,1.9,1.94.43.81.65,1.7.65,2.68v.34c0,1.25-.36,2.29-1.07,3.13s-1.64,1.53-2.8,2.08l-3.46,1.61c-.82.37-1.36.75-1.64,1.14-.28.39-.42.89-.42,1.5v2.14l-.53-.86h10.2v1.56h-11.47Z"/>
    <path class="cls-2" d="M975.29,641.38c-1.17,0-2.16-.2-2.98-.61-.82-.41-1.48-.98-1.98-1.72-.5-.74-.88-1.61-1.12-2.63-.24-1.02-.36-2.12-.36-3.32v-1.01c0-2.85.66-5.03,1.99-6.54s3.31-2.27,5.95-2.27c.54,0,1.03.02,1.46.05.43.03.9.08,1.39.14v1.56c-.5-.08-.98-.14-1.44-.17s-.97-.05-1.51-.05c-1.5,0-2.71.29-3.62.88s-1.57,1.43-1.98,2.53c-.41,1.1-.61,2.44-.61,4.01v1.7l-.48,1.42c.02-1.22.25-2.25.71-3.1.46-.85,1.1-1.5,1.93-1.94.83-.45,1.81-.67,2.93-.67,1.25,0,2.3.26,3.17.77s1.52,1.21,1.96,2.09c.44.88.66,1.86.66,2.95s-.23,2.1-.68,3c-.46.9-1.13,1.61-2.03,2.14-.9.53-2.02.79-3.36.79ZM975.29,639.79c.96,0,1.76-.19,2.41-.58.65-.38,1.13-.9,1.45-1.56.32-.66.48-1.39.48-2.21s-.16-1.55-.47-2.2-.78-1.16-1.42-1.54-1.41-.56-2.34-.56-1.71.18-2.39.53c-.68.35-1.21.85-1.58,1.5-.38.65-.56,1.41-.56,2.29,0,.75.16,1.46.48,2.11.32.66.81,1.19,1.46,1.6.66.41,1.48.61,2.47.61Z"/>
    <path class="cls-2" d="M991.42,638.02c-1.25,0-2.34-.21-3.26-.64s-1.7-.99-2.3-1.7c-.61-.71-1.07-1.51-1.38-2.39-.31-.88-.47-1.76-.47-2.64v-.38c0-.91.16-1.8.47-2.68.31-.87.78-1.66,1.39-2.36.62-.7,1.39-1.26,2.33-1.67.94-.41,2.01-.61,3.23-.61s2.31.2,3.23.61c.92.41,1.69.96,2.3,1.67.62.7,1.08,1.49,1.39,2.36.31.87.47,1.76.47,2.68v.38c0,.88-.15,1.76-.46,2.64-.3.88-.76,1.68-1.38,2.39-.62.71-1.39,1.28-2.32,1.7s-2.01.64-3.24.64ZM991.42,636.91c1.28,0,2.38-.29,3.31-.88.93-.58,1.64-1.37,2.14-2.35.5-.98.74-2.05.74-3.2s-.25-2.29-.74-3.26c-.5-.98-1.21-1.75-2.14-2.33-.93-.58-2.03-.86-3.31-.86s-2.41.29-3.34.86-1.64,1.35-2.14,2.33c-.5.98-.74,2.06-.74,3.26s.25,2.22.74,3.2c.5.98,1.21,1.77,2.14,2.35s2.04.88,3.34.88ZM991.54,634.8c-.9,0-1.63-.21-2.2-.64-.57-.42-.99-.96-1.26-1.61-.27-.65-.41-1.3-.41-1.96v-.29c0-.7.14-1.37.43-2,.29-.63.72-1.15,1.28-1.55.57-.4,1.28-.6,2.15-.6.96,0,1.76.27,2.41.82.65.54,1,1.29,1.07,2.23h-1.22c-.06-.56-.28-1.01-.66-1.34-.38-.34-.91-.5-1.6-.5-.88,0-1.52.29-1.92.86-.4.58-.6,1.32-.6,2.23,0,.58.08,1.1.25,1.58.17.48.44.86.82,1.15.38.29.86.43,1.45.43.67,0,1.21-.18,1.62-.53.41-.35.64-.79.71-1.32h1.22c-.06.93-.44,1.66-1.12,2.21-.68.54-1.49.82-2.44.82Z"/>
  </g>
</svg>