<?xml version="1.0" encoding="UTF-8"?>
<svg id="Layer_1" data-name="Layer 1" xmlns="http://www.w3.org/2000/svg" viewBox="0 0 1920 1080">
  <defs>
    <style>
      .cls-1 {
        font-size: 57px;
      }

      .cls-1, .cls-2 {
        fill: #1d293f;
      }

      .cls-3, .cls-2 {
        font-family: Sora-Light, Sora;
        font-weight: 300;
      }

      .cls-2 {
        font-size: 24px;
      }

      .cls-4 {
        fill: #2643d1;
      }

      .cls-5 {
        font-family: Sora-Medium, Sora;
        font-weight: 500;
      }
    </style>
  </defs>
  <g>
    <g>
      <path class="cls-4" d="M251.72,386.05l-53.41,181.92h-6.55l-52.15-181.92H58.75v298.02h67.18v-148.4l46.39,148.4h44.47l42.46-137.54v137.54h73.31v-298.02h-80.85Z"/>
      <path class="cls-4" d="M886.1,385.53l-50.84,198.17h-9.08l-50.28-198.17h-83.24l98.36,299.1h78.32l97.8-299.1h-81.04Z"/>
      <path class="cls-4" d="M1259.03,559.07v-46.3c0-27.48-5.43-51.21-16.29-71.2-10.86-20.04-26.78-35.39-47.75-46.07-20.97-10.67-45.97-16.01-74.95-16.01s-53.27,5.34-74.06,16.01c-20.79,10.67-36.61,26.03-47.47,46.07-10.86,19.99-16.29,43.72-16.29,71.2v44.57c0,41.57,12.41,74.15,37.17,97.79,24.77,23.64,58.52,35.49,101.26,35.49,25.89,0,49.34-4.12,70.32-12.31,20.97-8.19,37.26-19.71,48.92-34.6,11.61-14.89,17.41-32.02,17.41-51.45v-3.46h-79.49v3.46c0,6.83-2.2,12.97-6.55,18.3-4.4,5.34-10.67,9.32-18.87,11.98-8.24,2.67-18.44,4.03-30.62,4.03-17.56,0-31.74-5.43-42.6-16.34-10.86-10.86-16.29-25.23-16.29-43.16v-8.01h196.15ZM1078.6,460.44c10.44-11.24,24.48-16.9,42.04-16.9s32.49,5.15,42.6,15.45c10.07,10.3,15.12,24.02,15.12,41.2v3.42h-115.45c.28-17.88,5.52-32.26,15.68-43.16Z"/>
      <path class="cls-4" d="M1410.42,457.16h-17.27v-70.36h-79.49v299.1h82.91v-139.51c0-25.94,5.9-45.88,17.74-59.78,11.8-13.9,27.99-20.88,48.59-20.88h86.14v-80.05c-42.09,0-125.42-17.84-138.62,71.48Z"/>
      <path class="cls-4" d="M1823.52,413.81c-25.19-23.22-59.5-34.88-102.94-34.88s-78.46,11.66-103.83,34.88c-25.33,23.27-38.01,55.1-38.01,95.5v51.5c0,13.34,1.4,25.75,4.26,37.26h88.81c-6.79-9.83-10.16-22.24-10.16-37.26v-52.62c0-19.05,5.34-33.85,16.06-44.33,10.63-10.49,24.76-15.73,42.32-15.73s32.3,5.24,43.16,15.73c10.86,10.49,16.29,25.28,16.29,44.33v52.62c0,18.68-5.24,33.38-15.73,44.01-10.49,10.72-24.86,16.06-43.16,16.06s-32.72-5.34-43.21-16.06c-2.06-2.06-3.89-4.31-5.52-6.69v87.31c14.56,3.89,30.66,5.76,48.17,5.76,44.19,0,78.79-11.7,103.79-35.16,24.95-23.46,37.45-55.19,37.45-95.22v-51.5c0-40.4-12.59-72.23-37.73-95.5Z"/>
      <g>
        <path class="cls-4" d="M500.73,507.34c-151.82,0-116.52,120.69-106.08,139.27,32.49,57.86,137.54,64.42,169.28-11.14h12.26v48.59h77.81v-176.63l-153.27-.09ZM561.63,594c-12.78,22.05-35.86,35.72-57.49,35.72-27.2,0-40.03-17.56-40.03-34.32,0-20.32,9.88-37.73,49.16-37.73h57.77s-1.45,22.56-9.41,36.33Z"/>
        <rect class="cls-4" x="388.41" y="386.05" width="265.57" height="75.44"/>
      </g>
    </g>
    <text class="cls-2" transform="translate(457.92 738.82)"><tspan x="0" y="0">We work with founders and teams who understand that a brand is more than visuals,</tspan><tspan x="201.02" y="28.8">it’s a system of decisions, behaviors, and meaning.</tspan></text>
    <text class="cls-1" transform="translate(526.22 354.87)"><tspan class="cls-3" x="0" y="0">CLARITY SHAPES </tspan><tspan class="cls-5" x="496.75" y="0">EVERYTHING</tspan></text>
  </g>
  <text class="cls-2" transform="translate(821.44 800.46)"><tspan x="0" y="0">ALL RIGHTS RESERVED</tspan><tspan x="98.46" y="28.8">2026</tspan><tspan x="161.27" y="28.8">©</tspan></text>
</svg>