<?xml version="1.0" encoding="UTF-8"?>
<svg id="Layer_1" data-name="Layer 1" xmlns="http://www.w3.org/2000/svg" xmlns:xlink="http://www.w3.org/1999/xlink" viewBox="0 0 128 128">
  <defs>
    <style>
      .cls-1 {
        fill: url(#radial-gradient);
      }

      .cls-2 {
        fill: url(#radial-gradient-3);
      }

      .cls-3 {
        fill: url(#radial-gradient-2);
      }

      .cls-4 {
        fill: url(#radial-gradient-4);
      }

      .cls-5 {
        fill: #1d293f;
      }
    </style>
    <radialGradient id="radial-gradient" cx="76.4" cy="34.75" fx="76.4" fy="34.75" r="115.03" gradientTransform="translate(-10.52 .22) scale(.99)" gradientUnits="userSpaceOnUse">
      <stop offset="0" stop-color="#2643d1"/>
      <stop offset=".21" stop-color="#45b1f8"/>
      <stop offset=".21" stop-color="#49b2f7"/>
      <stop offset=".26" stop-color="#70c1f6"/>
      <stop offset=".32" stop-color="#93cef5"/>
      <stop offset=".38" stop-color="#b0d9f4"/>
      <stop offset=".45" stop-color="#c7e1f4"/>
      <stop offset=".52" stop-color="#d9e8f3"/>
      <stop offset=".61" stop-color="#e6edf3"/>
      <stop offset=".73" stop-color="#edf0f3"/>
      <stop offset="1" stop-color="#f0f1f3"/>
    </radialGradient>
    <radialGradient id="radial-gradient-2" cx="76.4" cy="34.75" fx="76.4" fy="34.75" r="115.03" xlink:href="#radial-gradient"/>
    <radialGradient id="radial-gradient-3" cx="76.4" cy="34.75" fx="76.4" fy="34.75" r="115.03" xlink:href="#radial-gradient"/>
    <radialGradient id="radial-gradient-4" cx="76.4" cy="34.75" fx="76.4" fy="34.75" r="115.03" xlink:href="#radial-gradient"/>
  </defs>
  <g>
    <path class="cls-5" d="M10.53,71.67l-.78-.02.06-2.9c.01-.71-.17-1.24-.55-1.59-.38-.35-.87-.53-1.45-.54-.61-.01-1.11.15-1.5.48-.39.33-.59.86-.6,1.57l-.06,2.9-1.04-.02.05-2.7c.02-1.17.3-2.03.84-2.6.54-.57,1.27-.84,2.2-.82h.19c.65.02,1.18.17,1.58.47.4.3.69.71.87,1.23.18.53.26,1.14.24,1.84l-.05,2.7ZM16,72.67l-11.41-.23.02-1.18,11.41.23-.02,1.18ZM16.02,71.78l-1.04-.02.07-3.32c.01-.67-.17-1.2-.55-1.59-.38-.38-.89-.58-1.53-.6-.63-.01-1.14.16-1.54.53-.39.36-.6.89-.61,1.57l-.07,3.32-.78-.02.06-3.15c.01-.68.12-1.28.32-1.81.2-.52.51-.93.93-1.22.42-.29.97-.43,1.64-.42h.19c.61.02,1.14.16,1.6.42.45.27.8.66,1.04,1.18.24.52.35,1.18.33,1.96l-.06,3.15Z"/>
    <path class="cls-5" d="M15.92,60.83l-8.16-.82.09-.92,3.41.34v.09c-1.2-.12-2.06-.47-2.58-1.05s-.72-1.43-.61-2.55l.03-.26,1.05.11-.05.48c-.09.88.07,1.58.48,2.09.41.51,1.06.81,1.94.9l4.5.45-.12,1.16Z"/>
    <path class="cls-5" d="M18.24,48.8l-2.37-.67-.05.18-2.81-.79c-.59-.17-1.08-.14-1.48.08-.4.22-.69.65-.87,1.3-.08.3-.16.6-.24.91-.08.31-.14.6-.21.88-.06.28-.11.52-.15.74l-.98-.28c.04-.22.09-.45.13-.69.04-.23.1-.47.16-.72.06-.25.13-.48.19-.71.23-.81.51-1.43.85-1.86.34-.44.75-.71,1.24-.82.49-.11,1.08-.07,1.78.13l5.07,1.43-.25.9ZM17.7,51.53c-.16.56-.4,1.02-.72,1.39-.32.37-.7.62-1.15.75-.44.13-.93.12-1.47-.04-.53-.15-.94-.4-1.24-.75-.3-.35-.48-.78-.54-1.3-.06-.52,0-1.1.18-1.76l.65-2.31.85.24-.67,2.39c-.18.63-.16,1.15.05,1.57.21.42.56.7,1.05.83.5.14.94.08,1.33-.19.39-.27.67-.7.84-1.29.1-.37.14-.74.1-1.12-.04-.38-.19-.72-.45-1.04-.26-.32-.67-.57-1.23-.75l.56-.2c.58.21,1.03.48,1.35.83.33.35.53.76.61,1.22.08.46.05.97-.11,1.52Z"/>
    <path class="cls-5" d="M19.91,44.26l-7.25-3.83.43-.82,3.04,1.61-.09.16c-.68-.36-1.2-.76-1.58-1.22-.38-.46-.59-.96-.65-1.5-.05-.54.08-1.12.41-1.73l.02-.04c.48-.91,1.13-1.44,1.94-1.59.81-.15,1.73.05,2.76.6l4.21,2.22-.54,1.01-4.43-2.34c-.63-.33-1.23-.43-1.8-.28-.57.14-1.01.53-1.34,1.15-.34.64-.41,1.26-.22,1.86.19.6.61,1.07,1.26,1.41l4.36,2.31-.54,1.03Z"/>
    <path class="cls-5" d="M27.72,32.53c-.39.45-.83.79-1.32,1.02-.49.23-1,.34-1.54.35s-1.06-.08-1.57-.27-.99-.47-1.42-.85l-.16-.14c-.42-.37-.77-.79-1.03-1.26-.27-.48-.44-.97-.51-1.5-.07-.52-.04-1.05.11-1.57.14-.52.42-1.02.82-1.48.45-.52.97-.89,1.54-1.09.57-.2,1.18-.24,1.81-.11.64.13,1.27.45,1.9.97l-1.06-.24-4.3-3.72.76-.88,8.56,7.4-.61.7-2.76-2.38.24-.28c.64.58,1.06,1.18,1.29,1.82s.27,1.25.13,1.85-.42,1.15-.86,1.66ZM27.05,31.74c.36-.42.6-.88.71-1.39.11-.5.07-1-.11-1.5-.18-.5-.49-.94-.95-1.33l-.56-.49c-.44-.38-.91-.61-1.41-.71-.5-.09-.99-.05-1.47.13-.48.18-.91.48-1.28.91-.4.46-.63.96-.71,1.49-.07.53,0,1.06.23,1.57.22.51.58.98,1.05,1.39.49.43,1.01.71,1.56.85.55.14,1.07.14,1.59-.02.51-.16.96-.46,1.36-.92Z"/>
    <path class="cls-5" d="M27.83,18.51c-.22.18-.43.25-.63.22-.2-.03-.38-.13-.52-.31-.14-.18-.21-.37-.19-.57.01-.2.13-.39.35-.57.22-.17.42-.25.62-.22.2.03.37.14.51.31.14.18.21.37.2.57-.01.2-.12.39-.34.56ZM28.16,21.4l-.59-.72,1.91-1.55.59.72-1.91,1.55ZM33.76,26.21l-5.17-6.37.89-.72,5.17,6.37-.89.72Z"/>
    <path class="cls-5" d="M37.96,22.97l-4.02-7.15.81-.46,1.69,3-.16.09c-.37-.67-.6-1.29-.67-1.88-.07-.59.02-1.13.27-1.61.25-.48.68-.9,1.28-1.24l.04-.02c.9-.51,1.73-.6,2.49-.29.76.31,1.42.98,2,2l2.34,4.15-1,.56-2.46-4.36c-.35-.62-.8-1.02-1.36-1.21-.56-.19-1.14-.11-1.75.24-.63.36-1.03.84-1.19,1.44-.16.61-.06,1.23.3,1.87l2.42,4.3-1.01.57Z"/>
    <path class="cls-5" d="M51.47,20.23c-.37.11-.74.2-1.12.28-.38.07-.75.14-1.1.19l-.28-.95c.37-.06.76-.12,1.16-.2.4-.08.78-.17,1.12-.28.75-.22,1.32-.5,1.71-.83.39-.33.61-.74.68-1.23.07-.49,0-1.08-.21-1.79l-.46-1.58.09-1.22c.2.76.23,1.45.1,2.08-.14.63-.42,1.16-.84,1.6-.42.44-.95.75-1.6.94-.57.17-1.11.21-1.64.13-.52-.08-1.01-.27-1.45-.55-.44-.28-.82-.64-1.14-1.08-.32-.43-.56-.92-.72-1.45l-.06-.21c-.16-.53-.21-1.05-.18-1.59.04-.53.16-1.03.38-1.5.22-.47.53-.88.94-1.23.41-.35.9-.61,1.47-.78.69-.2,1.34-.23,1.95-.07.61.16,1.14.46,1.59.92.45.46.8,1.05,1.03,1.78l-.41-.09-.94-3.2.88-.26,2.07,7c.28.94.36,1.74.25,2.4-.11.66-.43,1.21-.96,1.66-.53.45-1.3.82-2.31,1.12ZM50.6,16.15c.54-.16.98-.42,1.33-.77.35-.36.59-.79.71-1.28.12-.5.1-1.03-.07-1.6l-.21-.73c-.16-.54-.43-.98-.8-1.32s-.8-.55-1.28-.66c-.48-.11-.99-.08-1.53.08-.58.17-1.03.46-1.38.86-.34.4-.56.87-.65,1.41-.09.54-.05,1.1.13,1.7.18.6.45,1.11.83,1.52.37.41.81.68,1.32.82.51.14,1.04.13,1.61-.04Z"/>
    <path class="cls-5" d="M66.35,15.26c-.74-.03-1.4-.2-1.96-.51-.57-.31-1-.72-1.31-1.24-.31-.51-.45-1.09-.42-1.73v-.19c.04-.74.28-1.39.72-1.95.44-.56.98-.99,1.62-1.3l.55.85c-.51.23-.92.57-1.25,1.02-.32.46-.5.96-.52,1.52-.02.53.09.97.32,1.34.24.37.56.65.96.86.41.2.85.32,1.34.34.77.03,1.44-.16,2-.57.56-.42.99-1.04,1.31-1.87.31-.83.5-1.85.55-3.07l1.04.04c-.04,1.02-.18,1.94-.41,2.75-.23.81-.56,1.5-.97,2.06-.42.56-.92.98-1.52,1.27-.6.29-1.27.41-2.03.38ZM70.34,15.17l-4.57-5.28c-.42-.5-.76-.94-1.01-1.32-.25-.37-.42-.73-.52-1.07-.1-.34-.14-.71-.12-1.1.03-.64.17-1.17.43-1.6.26-.42.66-.73,1.2-.93.54-.2,1.22-.28,2.06-.25.36.02.75.05,1.16.1s.8.1,1.16.16l-.04,1.02c-.23-.03-.5-.07-.81-.11-.31-.04-.62-.07-.93-.1s-.57-.05-.8-.06c-.81-.03-1.39.11-1.74.42-.35.32-.55.78-.57,1.4-.02.5.07.95.28,1.35.21.41.55.88,1.01,1.42l5.18,5.99-1.36-.06ZM68.31,8.84l.04-.93,3.92.17-.04.93-3.92-.17Z"/>
    <path class="cls-5" d="M84.16,19.12c-.94-.39-1.67-.88-2.2-1.49-.53-.6-.89-1.26-1.08-1.97-.19-.71-.26-1.41-.19-2.12.07-.7.22-1.35.47-1.94l.11-.27c.26-.64.63-1.24,1.09-1.79.46-.56,1-1,1.63-1.35s1.33-.54,2.11-.58c.78-.04,1.61.12,2.5.49.9.37,1.61.85,2.13,1.44.52.59.86,1.24,1.02,1.97.16.73.12,1.5-.12,2.31l-1.1-.46c.18-.65.19-1.25.04-1.8-.15-.55-.44-1.03-.85-1.45-.41-.42-.93-.75-1.54-1.01-.66-.27-1.29-.4-1.89-.37-.6.03-1.15.18-1.66.46-.51.28-.96.65-1.35,1.12-.4.47-.72,1.01-.97,1.62-.24.58-.39,1.18-.44,1.78-.05.6,0,1.19.17,1.76.17.57.46,1.08.87,1.54.41.46.97.83,1.65,1.11.95.4,1.86.49,2.71.27.85-.21,1.54-.74,2.07-1.59l1.1.46c-.4.67-.92,1.22-1.55,1.63-.63.42-1.35.65-2.15.71-.8.06-1.67-.1-2.59-.49Z"/>
    <path class="cls-5" d="M91.53,22.69l4.64-6.76.77.53-1.94,2.82-.08-.05c.68-.99,1.4-1.57,2.16-1.74.76-.17,1.6.06,2.53.69l.22.15-.6.87-.4-.27c-.73-.5-1.42-.7-2.06-.58-.64.12-1.22.54-1.72,1.27l-2.56,3.73-.96-.66Z"/>
    <path class="cls-5" d="M99.63,29.56c-.5-.49-.85-1.01-1.04-1.55s-.27-1.07-.22-1.59.2-1.02.44-1.49c.24-.47.55-.9.93-1.28l.15-.15c.37-.37.79-.68,1.26-.93.47-.25.96-.4,1.48-.45.52-.05,1.04,0,1.57.19.53.18,1.03.51,1.51.98.61.6.98,1.24,1.12,1.92s.1,1.33-.11,1.95c-.21.63-.56,1.18-1.04,1.67l-.43.43-5.21-5.16.63-.64,4.64,4.59-.53.11c.43-.43.73-.89.9-1.36.17-.48.21-.95.1-1.43s-.37-.93-.81-1.35c-.46-.45-.94-.72-1.45-.8-.51-.09-1.02-.03-1.52.18-.5.2-.97.53-1.41.98-.44.44-.76.92-.97,1.43-.21.51-.26,1.03-.16,1.55.1.52.39,1.02.87,1.49.51.5,1.03.79,1.58.87s1.01,0,1.4-.24l.77.76c-.46.32-.95.5-1.46.55-.51.05-1.03-.03-1.54-.23-.51-.2-1-.53-1.46-.99Z"/>
    <path class="cls-5" d="M105.52,36.57c-.32-.48-.52-.97-.59-1.45-.07-.48-.01-.94.18-1.36.19-.42.52-.78.99-1.09.46-.3.91-.45,1.37-.45s.9.14,1.34.43c.43.29.84.72,1.22,1.29l1.33,2-.74.49-1.37-2.07c-.36-.54-.77-.87-1.22-.98-.45-.11-.89-.03-1.31.25-.43.29-.67.66-.73,1.13-.05.47.09.96.43,1.48.21.32.47.59.78.8.31.22.67.33,1.08.34.41.01.87-.14,1.37-.44l-.21.55c-.53.3-1.04.46-1.51.48-.48.02-.92-.09-1.33-.33-.41-.24-.77-.6-1.08-1.07ZM107.24,38.77l2.05-1.36-.1-.15,2.43-1.61c.51-.34.81-.73.9-1.18.09-.45-.04-.95-.42-1.51-.17-.26-.35-.52-.53-.77-.18-.26-.36-.5-.53-.73-.17-.23-.32-.43-.46-.6l.85-.57c.14.18.29.36.44.55s.29.38.44.59c.14.21.28.41.41.61.46.7.75,1.32.86,1.86.11.54.05,1.03-.19,1.47-.23.44-.65.86-1.26,1.26l-4.39,2.91-.51-.77Z"/>
    <path class="cls-5" d="M110.65,45.86c-.23-.52-.34-1-.36-1.45-.01-.45.12-.85.4-1.22.27-.37.72-.68,1.34-.95l7.52-3.25.44,1.02-7.67,3.31c-.44.19-.72.45-.85.79-.13.34-.1.73.09,1.16l.58,1.35-.97.42-.52-1.2ZM115.76,39.02l.81-.35,2.2,5.1-.81.35-2.2-5.1Z"/>
    <path class="cls-5" d="M112.4,50.73l7.91-2.18.3,1.11-7.91,2.18-.3-1.11ZM119.06,47.53l.9-.25.65,2.38-.9.25-.65-2.38ZM121.83,48.39c-.07-.27-.06-.49.05-.66.11-.17.27-.29.49-.35.22-.06.42-.04.6.05.18.09.31.28.38.55.07.27.06.49-.05.66-.11.17-.27.28-.49.34-.22.06-.42.05-.6-.04-.18-.09-.31-.27-.38-.54Z"/>
    <path class="cls-5" d="M113.85,57.73l7.83-3.78.13,1.19-7.83,3.75-.13-1.16ZM113.88,58.04l.94-.11.16,1.46-.94.11-.17-1.46ZM113.96,58.67l8.43,1.56.13,1.14-8.43-1.61-.12-1.09Z"/>
    <path class="cls-5" d="M113.8,68.65c.06-.7.23-1.3.52-1.79.29-.49.65-.89,1.08-1.18.44-.29.91-.5,1.43-.62.52-.12,1.05-.15,1.58-.11l.22.02c.53.04,1.03.17,1.52.37.49.2.92.49,1.3.85.37.36.66.81.86,1.33.2.52.27,1.11.21,1.78-.07.85-.32,1.55-.75,2.09-.43.54-.95.93-1.57,1.17-.62.24-1.26.33-1.94.27l-.6-.05.63-7.31.9.08-.56,6.5-.42-.33c.61.05,1.15,0,1.63-.18.48-.17.86-.45,1.16-.83.3-.38.47-.88.52-1.49.05-.64-.05-1.18-.31-1.63-.26-.45-.63-.8-1.11-1.05-.48-.25-1.03-.41-1.66-.46-.62-.05-1.19,0-1.72.17-.53.17-.96.46-1.3.87s-.53.95-.59,1.62c-.06.71.05,1.3.34,1.77.29.47.65.78,1.08.92l-.09,1.08c-.54-.15-.99-.41-1.36-.77-.37-.36-.64-.81-.81-1.33-.17-.52-.23-1.11-.18-1.76Z"/>
    <path class="cls-5" d="M111.29,81.29l.99.45-1.28,2.81c-.32.7-.48,1.36-.49,1.98-.01.62.1,1.2.33,1.74.23.53.56,1.01.98,1.42.43.41.93.75,1.5,1,.59.27,1.19.43,1.78.47s1.16-.02,1.71-.2c.55-.18,1.04-.49,1.49-.92.44-.43.82-.99,1.13-1.67l1.28-2.81.99.45-1.22,2.7c-.42.92-.92,1.66-1.51,2.21-.59.55-1.23.94-1.92,1.17-.69.23-1.39.32-2.09.26-.7-.06-1.36-.23-1.98-.51l-.27-.12c-.61-.28-1.17-.66-1.67-1.15-.5-.49-.9-1.07-1.2-1.73-.29-.67-.43-1.41-.42-2.23.01-.82.23-1.69.65-2.62l1.22-2.7ZM111.64,80.5l10.4,4.72-.49,1.07-10.4-4.72.49-1.07Z"/>
    <path class="cls-5" d="M105.36,92.45l6.68,4.76-.67.93-6.68-4.76.67-.93ZM112.05,95.6l.76.54-1.43,2.01-.76-.54,1.43-2.01ZM113.13,98.3c.16-.23.34-.35.55-.38.2-.03.4.03.58.16.18.13.3.3.34.5s-.02.41-.18.64c-.16.23-.34.35-.54.37-.2.02-.39-.03-.58-.17-.19-.13-.3-.3-.34-.49-.04-.2.01-.41.18-.64Z"/>
    <path class="cls-5" d="M102.03,96.71l5.98,5.62-.64.68-2.5-2.35.06-.07c.87.82,1.34,1.62,1.4,2.4.06.78-.3,1.58-1.07,2.4l-.18.19-.77-.72.33-.35c.61-.65.9-1.3.89-1.95-.02-.65-.35-1.28-1-1.89l-3.3-3.1.8-.85Z"/>
    <path class="cls-5" d="M94.02,103.67c.56-.42,1.13-.68,1.69-.8s1.09-.1,1.6.03.98.35,1.41.66c.43.31.81.68,1.13,1.11l.13.17c.31.42.56.89.73,1.39.17.5.25,1.01.22,1.54-.03.52-.17,1.03-.42,1.52-.26.49-.66.94-1.2,1.34-.69.51-1.38.78-2.07.82-.69.03-1.33-.1-1.91-.41-.59-.31-1.08-.73-1.49-1.28l-.36-.49,5.89-4.37.54.72-5.24,3.89-.03-.54c.36.49.77.86,1.21,1.1.44.24.91.35,1.39.32.49-.03.97-.23,1.46-.59.51-.38.85-.82,1.01-1.31.16-.49.18-1,.05-1.53-.13-.52-.38-1.04-.75-1.55-.37-.5-.79-.89-1.27-1.17-.47-.28-.98-.42-1.51-.4s-1.07.23-1.61.63c-.57.42-.94.9-1.1,1.43-.16.53-.15,1,.03,1.42l-.87.65c-.24-.5-.35-1.01-.32-1.53.03-.52.18-1.01.46-1.49s.68-.91,1.2-1.3Z"/>
    <path class="cls-5" d="M85.07,108.89c.63-.29,1.23-.43,1.79-.42.57,0,1.09.13,1.58.37.48.24.91.55,1.27.94.37.39.65.82.87,1.29l.09.2c.22.48.35.98.41,1.51.05.53,0,1.05-.13,1.56-.14.51-.39.99-.76,1.42s-.85.79-1.46,1.07c-.62.28-1.22.42-1.81.42-.59,0-1.13-.15-1.61-.42-.49-.28-.89-.68-1.21-1.22l1.02-.46c.32.48.76.8,1.31.96.56.16,1.18.09,1.86-.23.59-.27,1.02-.63,1.29-1.07.27-.45.4-.94.39-1.49-.01-.55-.14-1.1-.4-1.65-.25-.55-.58-1.01-.99-1.38s-.88-.61-1.4-.71c-.52-.1-1.08,0-1.69.27-.46.21-.83.48-1.09.8-.27.32-.44.67-.53,1.05-.08.38-.07.75.05,1.1l-1.02.46c-.22-.58-.27-1.15-.14-1.71.12-.56.38-1.07.78-1.53.39-.46.9-.83,1.52-1.11Z"/>
    <path class="cls-5" d="M75.74,112.18c.55-.14,1.05-.17,1.49-.11s.82.26,1.14.59c.32.33.56.82.72,1.48l1.97,7.94-1.08.27-2.01-8.11c-.11-.46-.33-.78-.64-.97-.31-.18-.7-.22-1.16-.1l-1.43.36-.25-1.02,1.26-.31ZM81.65,118.35l.21.86-5.39,1.34-.21-.86,5.39-1.34Z"/>
    <path class="cls-5" d="M70.65,113.11l.86,8.16-1.14.12-.86-8.16,1.14-.12ZM72.72,120.2l.1.92-2.45.26-.1-.92,2.45-.26ZM71.42,122.8c.28-.03.49.02.65.16.15.13.24.32.27.54.02.23-.03.42-.15.59-.12.16-.32.26-.6.29s-.49-.02-.64-.16c-.15-.14-.24-.32-.26-.54-.02-.23.02-.42.14-.58.12-.16.32-.26.59-.29Z"/>
    <path class="cls-5" d="M61.72,113.05c.7.05,1.31.21,1.82.49.51.28.94.63,1.28,1.07.34.43.59.91.74,1.43.16.52.22,1.04.18,1.57v.22c-.05.53-.18,1.04-.41,1.53-.23.5-.54.94-.94,1.31-.4.38-.87.67-1.42.88-.55.21-1.16.29-1.84.24-.69-.05-1.29-.21-1.81-.49-.51-.28-.94-.63-1.29-1.06-.34-.43-.59-.9-.75-1.43-.16-.52-.22-1.05-.18-1.57v-.22c.05-.53.18-1.04.4-1.53.22-.49.53-.93.92-1.31.39-.38.87-.68,1.42-.88.55-.21,1.18-.29,1.88-.24ZM61.65,114.08c-.68-.05-1.27.07-1.76.34-.49.27-.88.65-1.16,1.13-.28.48-.44,1.03-.48,1.64-.04.62.05,1.19.27,1.7.22.52.56.94,1.01,1.26.45.33,1.01.51,1.67.56.65.04,1.22-.06,1.72-.33.49-.26.88-.64,1.17-1.12s.45-1.03.49-1.65c.04-.61-.05-1.17-.26-1.69-.21-.52-.54-.94-.99-1.28-.45-.34-1.01-.53-1.68-.57Z"/>
    <path class="cls-5" d="M54.12,112.33l-2.36,7.85-.89-.27.99-3.3.18.05c-.22.73-.52,1.33-.89,1.79-.37.46-.82.77-1.35.92-.52.16-1.11.13-1.78-.06h-.04c-.99-.31-1.63-.84-1.93-1.61-.3-.76-.28-1.71.06-2.82l1.37-4.56,1.1.33-1.44,4.8c-.21.68-.18,1.29.07,1.82s.71.89,1.39,1.1c.69.21,1.31.16,1.86-.14.55-.3.93-.81,1.14-1.51l1.42-4.72,1.11.34Z"/>
  </g>
  <g>
    <path class="cls-1" d="M65.12,94.52s-.07.07-.1.1c-.03-.03-.07-.07-.1-.1-8.15-8.15-8.15-21.35,0-29.5.03-.03.07-.07.1-.1.03.03.07.07.1.1,8.15,8.15,8.15,21.35,0,29.5Z"/>
    <path class="cls-3" d="M76,53.95l-10.89,10.89s-.06.06-.09.09c-.03-.03-.06-.06-.09-.09l-10.89-10.89c.06-.06.13-.13.19-.19l10.79-10.79,10.79,10.79c.06.06.12.13.19.19Z"/>
    <path class="cls-2" d="M101.24,57.23c-2.9,1.69-6.12,2.62-9.37,2.79-5.66.3-11.43-1.69-15.78-5.98-.03-.03-.06-.06-.1-.09t0,0l10.98-10.98,10.98,10.98,3.29,3.29Z"/>
    <path class="cls-4" d="M54.04,53.95s0,0,0,0c-.03.03-.06.06-.1.09-4.35,4.29-10.11,6.29-15.78,5.98-3.25-.17-6.47-1.1-9.37-2.79l3.29-3.29,10.98-10.98,10.98,10.98Z"/>
  </g>
</svg>