<?xml version="1.0" encoding="UTF-8"?>
<svg id="Layer_1" data-name="Layer 1" xmlns="http://www.w3.org/2000/svg" xmlns:xlink="http://www.w3.org/1999/xlink" viewBox="0 0 128 128">
  <defs>
    <style>
      .cls-1 {
        fill: url(#radial-gradient);
      }

      .cls-2 {
        fill: url(#radial-gradient-3);
      }

      .cls-3 {
        fill: url(#radial-gradient-2);
      }

      .cls-4 {
        fill: url(#radial-gradient-4);
      }

      .cls-5 {
        fill: #eef6fc;
      }
    </style>
    <radialGradient id="radial-gradient" cx="63.14" cy="40.52" fx="63.14" fy="40.52" r="91.27" gradientUnits="userSpaceOnUse">
      <stop offset="0" stop-color="#2643d1"/>
      <stop offset=".21" stop-color="#45b1f8"/>
      <stop offset=".21" stop-color="#49b2f7"/>
      <stop offset=".26" stop-color="#70c1f6"/>
      <stop offset=".32" stop-color="#93cef5"/>
      <stop offset=".38" stop-color="#b0d9f4"/>
      <stop offset=".45" stop-color="#c7e1f4"/>
      <stop offset=".52" stop-color="#d9e8f3"/>
      <stop offset=".61" stop-color="#e6edf3"/>
      <stop offset=".73" stop-color="#edf0f3"/>
      <stop offset="1" stop-color="#f0f1f3"/>
    </radialGradient>
    <radialGradient id="radial-gradient-2" cx="63.14" cy="40.52" fx="63.14" fy="40.52" r="91.27" xlink:href="#radial-gradient"/>
    <radialGradient id="radial-gradient-3" cx="63.14" cy="40.52" fx="63.14" fy="40.52" r="91.27" xlink:href="#radial-gradient"/>
    <radialGradient id="radial-gradient-4" cx="63.14" cy="40.52" fx="63.14" fy="40.52" r="91.27" xlink:href="#radial-gradient"/>
  </defs>
  <g>
    <path class="cls-1" d="M63.37,88.8s-.05.05-.08.08c-.03-.03-.05-.05-.08-.08-6.55-6.55-6.55-17.18,0-23.73.03-.03.05-.05.08-.08.03.03.05.05.08.08,6.55,6.55,6.55,17.18,0,23.73Z"/>
    <path class="cls-3" d="M72.11,56.16l-8.76,8.76s-.05.05-.07.07c-.02-.02-.05-.05-.07-.07l-8.76-8.76c.05-.05.1-.1.15-.15l8.68-8.68,8.68,8.68c.05.05.1.1.15.15Z"/>
    <path class="cls-2" d="M92.42,58.81c-2.33,1.36-4.92,2.11-7.54,2.25-4.56.24-9.19-1.36-12.69-4.81-.03-.02-.05-.05-.08-.08t0,0l8.83-8.83,8.83,8.83,2.64,2.64Z"/>
    <path class="cls-4" d="M54.45,56.16s0,0,0,0c-.03.03-.05.05-.08.08-3.5,3.45-8.13,5.06-12.69,4.81-2.62-.14-5.21-.89-7.54-2.25l2.64-2.64,8.83-8.83,8.83,8.83Z"/>
  </g>
  <g>
    <g>
      <path class="cls-5" d="M39.84,31l-3.4-6.73,1.36-.69,1.46,2.89-.12.06c-.34-.68-.54-1.29-.6-1.84-.06-.55.03-1.02.25-1.43.22-.41.59-.74,1.1-1l.07-.04c.52-.26,1.01-.36,1.47-.3.46.06.89.28,1.29.65.4.37.77.9,1.11,1.58l-.43.22c-.34-.68-.54-1.29-.59-1.84-.05-.55.03-1.03.25-1.44.22-.41.59-.74,1.1-1l.07-.04c.52-.26,1.01-.36,1.48-.3.47.06.9.27,1.31.64s.79.89,1.13,1.57l1.94,3.84-1.72.87-2.02-4c-.21-.42-.49-.7-.83-.85-.34-.14-.71-.12-1.11.09-.4.2-.65.49-.76.87-.11.38-.05.79.17,1.23l2,3.95-1.72.87-2.02-4c-.21-.42-.49-.7-.83-.85-.34-.14-.71-.12-1.11.09s-.65.49-.76.87c-.11.38-.05.79.17,1.23l2,3.95-1.72.87Z"/>
      <path class="cls-5" d="M56.38,24.63l-.46-2.19-.31.07-.51-2.43c-.09-.43-.26-.72-.51-.89-.25-.16-.6-.2-1.03-.11-.23.05-.5.11-.81.19-.32.08-.63.15-.95.24-.32.08-.6.16-.85.23l-.34-1.6c.2-.06.44-.13.7-.2.26-.07.53-.14.8-.2.28-.06.54-.12.78-.17.76-.16,1.41-.19,1.96-.1.54.09.99.33,1.34.7.35.37.59.9.74,1.59l.97,4.58-1.5.32ZM54.04,25.32c-.53.11-1.02.12-1.47.01s-.81-.31-1.11-.62c-.3-.31-.5-.71-.6-1.21-.11-.54-.07-1.02.12-1.42.19-.4.52-.74.97-1.01.45-.27,1-.48,1.65-.62l1.71-.36.24,1.13-1.74.37c-.44.09-.75.27-.93.53-.19.26-.24.56-.17.9.07.34.24.58.52.74.27.16.63.19,1.06.1.26-.06.49-.15.7-.3s.35-.34.45-.61c.1-.26.12-.59.05-1l.57.43c.06.53.03.99-.1,1.38-.13.4-.35.73-.67.99-.32.26-.74.45-1.25.56Z"/>
      <path class="cls-5" d="M61.18,24.11l-2.48-7.5,1.99-.03,2.39,7.5-1.89.03ZM61.75,24.1l-.03-1.58,2.04-.03.03,1.58-2.04.03ZM62.51,24.09l1.82-7.57,1.86-.03-1.92,7.57-1.76.03Z"/>
      <path class="cls-5" d="M70.7,25.02c-.64-.12-1.18-.33-1.62-.63-.44-.31-.78-.67-1.03-1.1-.25-.43-.41-.88-.49-1.37-.08-.48-.07-.96.01-1.44l.05-.26c.09-.49.25-.95.5-1.38.24-.43.55-.8.93-1.1.38-.3.82-.52,1.32-.65.5-.13,1.06-.14,1.67-.03.8.14,1.44.44,1.92.89.48.45.8.98.97,1.6.17.62.2,1.26.08,1.91l-.12.68-6.57-1.19.21-1.16,5.39.97-.69.47c.09-.47.09-.89.01-1.25-.08-.36-.24-.66-.48-.89-.25-.23-.58-.39-1-.46s-.79-.04-1.12.09-.6.37-.81.71c-.22.33-.37.75-.46,1.25-.08.46-.09.89,0,1.28.08.39.25.71.52.97.26.26.63.43,1.09.51.46.08.86.06,1.19-.08.33-.13.55-.33.68-.59l1.75.32c-.2.49-.49.9-.87,1.23-.38.33-.83.55-1.34.67s-1.08.13-1.69.02Z"/>
      <path class="cls-5" d="M75.69,25.96l2.61-7.08,1.43.53-1.1,3h-.04c.37-1.03.87-1.72,1.5-2.08.63-.36,1.36-.39,2.2-.08l.26.1-.58,1.58-.5-.18c-.61-.22-1.14-.23-1.59-.03-.45.2-.8.61-1.02,1.23l-1.36,3.69-1.81-.67Z"/>
      <path class="cls-5" d="M83.91,29.98c-.57-.34-1.03-.73-1.35-1.17-.33-.44-.55-.91-.67-1.41-.12-.49-.13-.99-.05-1.48.08-.49.25-.95.5-1.38l.15-.25c.26-.45.6-.82,1-1.13.4-.31.85-.52,1.34-.66.49-.13,1.01-.16,1.56-.08.54.08,1.09.28,1.64.61.55.33.99.71,1.32,1.15.33.44.56.91.68,1.4s.14.99.06,1.49c-.08.5-.25.97-.52,1.41l-.15.25c-.25.43-.58.8-.97,1.1-.39.31-.83.53-1.32.66-.49.14-1.01.16-1.55.09s-1.1-.28-1.67-.62ZM84.76,28.56c.41.24.8.35,1.19.34.38-.01.74-.13,1.07-.35.33-.22.6-.53.83-.92.24-.4.37-.79.41-1.19.03-.39-.04-.76-.21-1.11-.18-.35-.46-.64-.85-.87-.39-.23-.78-.34-1.17-.33-.39.01-.75.13-1.08.34-.33.22-.62.52-.85.92-.23.39-.36.78-.4,1.18-.03.39.03.76.21,1.11s.46.64.87.88Z"/>
      <path class="cls-5" d="M95.61,39.94l6.54-4.47.46.68-6.54,4.47-.46-.68ZM95.95,40.44l.6-.41,1.3,1.9c.26.39.58.61.95.67.37.06.74-.03,1.11-.28.36-.25.58-.55.66-.92s-.02-.74-.29-1.13l-1.3-1.9.44-.3,1.23,1.8c.27.39.45.78.55,1.15.1.38.08.73-.03,1.07-.12.33-.37.63-.76.9l-.11.07c-.35.24-.71.37-1.07.41-.37.03-.72-.05-1.06-.25-.34-.2-.67-.52-.98-.97l-1.23-1.8ZM99.1,38.29l.44-.3,1.13,1.66c.28.41.6.64.95.68s.7-.05,1.04-.28c.35-.24.57-.53.65-.88.09-.35-.01-.72-.29-1.13l-1.13-1.66.6-.41,1.06,1.55c.46.67.65,1.27.57,1.81-.08.54-.38.99-.91,1.35l-.11.07c-.37.25-.73.38-1.08.37-.35,0-.68-.12-.99-.35s-.6-.54-.88-.94l-1.06-1.55Z"/>
      <path class="cls-5" d="M99.94,46.95l5.18-2.36.27.59-2.17.99-.03-.06c.76-.35,1.39-.43,1.91-.27.51.17.93.61,1.26,1.32l.08.17-.67.3-.14-.3c-.26-.56-.6-.92-1.02-1.08-.42-.16-.92-.11-1.48.14l-2.86,1.3-.33-.73Z"/>
      <path class="cls-5" d="M102.33,53.6c-.11-.39-.13-.75-.07-1.08.06-.34.19-.62.41-.86.22-.23.51-.4.89-.51.37-.1.7-.1,1,0,.3.1.57.29.79.58.22.28.4.66.52,1.11l.44,1.61-.59.16-.46-1.66c-.12-.44-.32-.74-.59-.91-.27-.17-.58-.21-.92-.12-.35.09-.59.29-.73.59-.14.3-.15.65-.04,1.07.07.26.18.49.34.7.16.21.37.36.64.46s.6.1,1,0l-.26.32c-.42.08-.78.08-1.1,0-.32-.09-.59-.26-.8-.5s-.38-.56-.48-.94ZM102.99,55.42l1.65-.45-.03-.12,1.95-.54c.41-.11.69-.31.85-.58s.18-.64.05-1.09c-.06-.21-.12-.42-.18-.63-.06-.21-.13-.41-.19-.59s-.12-.35-.17-.49l.68-.19c.06.15.11.3.17.46.06.16.11.32.16.49s.1.33.14.49c.15.56.21,1.03.16,1.41-.04.38-.19.69-.44.93-.25.24-.62.43-1.1.56l-3.53.97-.17-.62Z"/>
      <path class="cls-5" d="M103.73,59.17l5.68-.46.05.64-2.38.19v-.13c.52-.04.98,0,1.37.13.39.13.7.34.94.64.23.3.37.69.41,1.17v.03c.06.72-.12,1.27-.54,1.65-.42.39-1.03.61-1.84.68l-3.29.27-.06-.79,3.47-.28c.49-.04.88-.21,1.16-.5.28-.3.4-.69.36-1.17-.04-.5-.23-.89-.56-1.17s-.76-.4-1.27-.36l-3.41.27-.06-.8Z"/>
      <path class="cls-5" d="M103.62,69.42c.05-.41.17-.78.36-1.1.19-.32.44-.59.75-.8.3-.21.64-.36,1.01-.45.37-.09.75-.11,1.15-.06l.15.02c.38.05.75.15,1.08.32.34.17.63.39.87.66s.43.59.55.94c.12.36.15.75.1,1.17-.06.48-.21.89-.46,1.22-.25.34-.58.6-1,.77-.42.17-.9.23-1.47.18l.7-.27,3.92.47-.1.8-7.8-.93.08-.64,2.51.3-.03.26c-.59-.09-1.07-.27-1.45-.55-.38-.28-.64-.62-.79-1.02-.15-.4-.2-.83-.15-1.29ZM104.31,69.61c-.05.38,0,.74.13,1.07.13.33.35.6.64.82.3.22.65.35,1.06.4l.51.06c.4.05.76,0,1.08-.14.32-.14.59-.36.8-.65.21-.29.34-.63.38-1.02.05-.42,0-.8-.17-1.13-.17-.33-.41-.61-.74-.82-.33-.21-.71-.34-1.15-.39-.45-.05-.86-.02-1.23.11-.37.13-.67.34-.9.63-.23.29-.37.64-.42,1.05Z"/>
      <path class="cls-5" d="M102.55,75.87l5.47,1.57-.22.77-5.47-1.57.22-.77ZM107.65,76.39l.62.18-.47,1.65-.62-.18.47-1.64ZM108.99,77.9c.05-.19.14-.31.27-.38s.27-.07.42-.03c.15.04.26.13.34.25.07.12.08.28.03.46-.05.19-.14.31-.27.37-.13.06-.26.07-.42.03-.15-.04-.26-.12-.34-.24s-.08-.27-.03-.46Z"/>
      <path class="cls-5" d="M101.29,79.84l5.17,2.4-.27.59-2.17-1.01.05-.12c.48.22.86.49,1.14.79.28.3.45.64.5,1.02.06.37-.02.78-.22,1.22v.03c-.32.65-.74,1.04-1.3,1.17-.56.13-1.2.02-1.94-.32l-3-1.39.34-.72,3.15,1.46c.45.21.87.25,1.26.13.39-.12.68-.4.89-.84.21-.46.24-.89.08-1.3-.15-.41-.46-.72-.93-.93l-3.11-1.44.34-.73Z"/>
      <path class="cls-5" d="M94.58,87.36c.16-.21.33-.42.51-.62s.36-.39.53-.57l.55.41c-.18.19-.37.39-.56.6-.19.21-.36.42-.51.62-.32.44-.52.83-.6,1.18s-.03.67.14.96c.17.3.46.6.87.9l.92.68.46.72c-.43-.34-.74-.71-.93-1.11-.19-.41-.26-.82-.21-1.24.05-.42.21-.81.49-1.19.24-.33.53-.58.85-.76.32-.18.67-.28,1.03-.3.36-.03.72.01,1.08.12s.7.27,1.01.5l.12.09c.31.23.56.49.76.8.2.31.34.64.42.99.08.35.08.71,0,1.07-.08.37-.24.72-.49,1.05-.3.4-.65.69-1.05.86-.4.17-.82.22-1.27.16-.44-.06-.88-.25-1.32-.55l.27-.13,1.86,1.37-.38.51-4.08-3.01c-.55-.4-.93-.81-1.15-1.22s-.27-.85-.17-1.32c.11-.47.38-1,.81-1.59ZM96.77,89.26c-.23.31-.37.64-.41.99s0,.68.15,1.01c.14.33.38.61.71.86l.42.31c.32.23.65.36.99.39.35.03.67-.03.99-.18.31-.15.58-.37.81-.69.25-.34.38-.69.4-1.05.02-.37-.06-.72-.23-1.05-.18-.34-.44-.63-.79-.89-.35-.26-.72-.42-1.09-.49-.38-.07-.74-.04-1.07.1-.34.13-.63.37-.87.69Z"/>
      <path class="cls-5" d="M85.76,98.95l4.77.86c.45.09.82.18,1.12.27.3.09.55.21.75.35.2.14.38.32.55.54.26.36.42.71.46,1.05.04.34-.04.68-.24,1.03s-.54.69-1,1.03c-.2.15-.42.3-.67.45-.24.15-.47.29-.69.42l-.42-.57c.14-.08.3-.18.48-.3.19-.12.37-.23.54-.35.18-.12.33-.22.46-.32.45-.33.7-.66.76-.99.05-.33-.05-.66-.3-1.01-.21-.28-.45-.48-.74-.61s-.68-.24-1.16-.32l-5.41-.98.76-.56ZM87.87,97.15c.42-.31.84-.5,1.28-.58.44-.08.86-.05,1.25.09s.72.39.98.75l.08.1c.31.42.46.87.47,1.36s-.1.96-.3,1.41l-.67-.21c.17-.34.25-.71.23-1.1-.02-.39-.15-.74-.38-1.05-.22-.29-.47-.49-.76-.58-.29-.09-.59-.11-.89-.04-.31.07-.6.2-.87.4-.43.32-.71.71-.83,1.18-.12.47-.08.99.11,1.58s.54,1.22,1.04,1.9l-.58.43c-.42-.57-.75-1.13-.98-1.67-.23-.54-.35-1.05-.37-1.54-.02-.49.07-.94.27-1.35.2-.41.51-.78.93-1.09ZM89.61,101.48l.38.52-2.19,1.62-.38-.52,2.19-1.62Z"/>
      <path class="cls-5" d="M75.8,103.48c.67-.22,1.28-.29,1.83-.22s1.04.26,1.46.54c.42.28.78.62,1.06,1.03.28.4.5.81.64,1.23l.06.19c.15.46.23.93.24,1.43.01.5-.07.98-.24,1.45s-.46.89-.85,1.26c-.39.38-.9.67-1.53.88-.64.21-1.23.28-1.77.21s-1.02-.26-1.43-.57c-.41-.31-.74-.73-.99-1.27l.79-.26c.2.42.47.75.8.97s.7.34,1.11.38c.41.03.83-.03,1.26-.17.47-.16.86-.38,1.16-.66s.52-.62.66-.99.21-.78.2-1.2c0-.43-.08-.86-.23-1.29-.14-.42-.33-.79-.58-1.14s-.54-.62-.89-.84c-.35-.22-.73-.36-1.16-.41s-.88,0-1.37.17c-.68.23-1.2.59-1.54,1.09-.35.5-.47,1.09-.36,1.77l-.79.26c-.09-.54-.07-1.06.07-1.56.14-.5.41-.95.8-1.35.39-.4.92-.7,1.58-.92Z"/>
      <path class="cls-5" d="M69.86,105.11l.76,5.64-.64.09-.32-2.36h.06c.11.82.01,1.45-.3,1.89-.31.44-.85.72-1.63.82l-.18.02-.1-.73.33-.04c.61-.08,1.06-.3,1.33-.66.28-.36.38-.84.29-1.46l-.42-3.12.8-.11Z"/>
      <path class="cls-5" d="M62.03,105.42c.49.01.91.11,1.26.29.35.18.64.41.86.7s.38.61.49.97c.1.35.15.72.14,1.09v.15c-.01.37-.08.72-.2,1.07-.12.35-.3.66-.54.93s-.53.49-.88.65c-.35.16-.76.23-1.23.22-.6-.02-1.09-.16-1.48-.44-.39-.28-.68-.62-.87-1.04-.19-.42-.28-.86-.27-1.34v-.42s5.1.14,5.1.14l-.02.62-4.53-.12.21-.31c-.01.42.05.8.19,1.12.14.32.35.58.63.77s.63.29,1.05.3c.44.01.82-.08,1.12-.28.3-.2.53-.47.68-.81.16-.34.24-.73.25-1.17.01-.43-.05-.82-.19-1.18s-.36-.65-.66-.86c-.3-.22-.68-.33-1.15-.34-.49-.01-.9.09-1.21.31s-.51.48-.59.79l-.75-.02c.08-.38.24-.7.48-.97.24-.27.53-.48.89-.62.36-.14.76-.21,1.21-.19Z"/>
      <path class="cls-5" d="M53.31,104.42l-.36,1.67.13.03-.42,1.98c-.09.41-.05.75.12,1.02.17.27.48.45.94.55.21.04.42.09.64.13.22.04.42.07.62.1.2.03.37.05.52.07l-.15.69c-.16-.02-.32-.04-.48-.06-.16-.02-.33-.05-.51-.08-.17-.03-.34-.07-.5-.1-.57-.12-1.01-.29-1.33-.5s-.52-.49-.62-.82c-.1-.33-.09-.74.01-1.24l.76-3.58.63.13ZM55.22,104.68c.39.08.73.23,1,.43.27.2.46.46.57.76.11.3.12.64.04,1.02-.08.37-.23.67-.46.89-.23.22-.52.37-.87.44-.36.07-.76.05-1.23-.05l-1.63-.35.13-.6,1.68.36c.44.09.8.06,1.08-.1s.46-.42.53-.76c.07-.35.01-.66-.19-.92-.2-.26-.51-.43-.93-.52-.26-.06-.52-.06-.78-.02-.26.04-.49.16-.7.36s-.36.49-.46.89l-.16-.38c.12-.41.29-.73.52-.97.23-.24.5-.4.82-.48.32-.08.67-.08,1.06,0Z"/>
      <path class="cls-5" d="M48.58,108.35l-.22.57-3.59-1.4.22-.57,3.59,1.4ZM47.7,102.48c.37.14.66.32.89.53.23.21.36.47.41.79.05.31-.01.69-.18,1.12l-2.07,5.29-.72-.28,2.11-5.4c.12-.31.13-.58.03-.8-.1-.23-.31-.4-.62-.52l-.95-.37.27-.68.84.33Z"/>
      <path class="cls-5" d="M40.61,106.63c.17.09.27.21.31.35.04.14.01.28-.06.41-.08.14-.18.23-.32.27-.13.04-.29.02-.46-.07-.17-.09-.27-.21-.3-.34-.03-.14-.01-.27.07-.41.08-.14.18-.23.31-.28.13-.05.28-.02.45.07ZM44,100.79l-2.73,5-.7-.38,2.73-5,.7.38ZM42.38,105.65l-.31.57-1.5-.82.31-.57,1.5.82Z"/>
      <path class="cls-5" d="M38.85,97.5l-4.8,3.52-.64-.48,4.83-3.5.61.46ZM39.38,97.89l-1.81,5.76-.66-.5,1.83-5.75.65.48ZM39.21,97.76l-.39.53-.82-.61.39-.53.82.61Z"/>
      <path class="cls-5" d="M33.48,92.41c.33.36.56.72.68,1.1.12.38.16.75.11,1.11-.05.36-.17.7-.35,1.02s-.41.61-.68.86l-.11.1c-.27.25-.57.45-.9.61-.33.16-.68.25-1.04.27-.36.02-.72-.04-1.08-.18-.36-.14-.7-.38-1.02-.72-.41-.44-.65-.89-.72-1.36-.08-.47-.03-.92.13-1.35s.42-.8.77-1.13l.31-.29,3.47,3.73-.46.43-3.09-3.32.37-.06c-.31.29-.53.6-.66.92-.13.33-.17.65-.11.99.06.33.23.65.52.96.3.33.63.52.98.6.35.07.71.05,1.06-.08.35-.13.69-.34,1.01-.64.32-.29.55-.62.71-.97.16-.35.21-.71.16-1.07-.06-.37-.24-.72-.56-1.06-.34-.36-.69-.58-1.07-.65-.38-.07-.7-.03-.98.13l-.51-.55c.33-.21.67-.32,1.03-.34.36-.02.71.05,1.06.2s.68.4.99.73Z"/>
      <path class="cls-5" d="M28.12,85.83l-8.34.8-.64-1.32,5.78-6.1.36.76-5.41,5.7v-.5s.5,1.02.5,1.02l-.4-.32,7.78-.77.36.74ZM25.2,85.51l-.79.08-1.58-3.29.55-.57,1.82,3.78Z"/>
      <path class="cls-5" d="M25.88,74.22c.06.26.11.52.15.79.04.27.07.52.09.77l-.67.16c-.03-.26-.06-.53-.1-.81s-.09-.54-.15-.79c-.13-.53-.3-.94-.51-1.22s-.49-.45-.83-.52c-.34-.06-.75-.04-1.25.08l-1.11.26-.84-.11c.53-.11,1.02-.11,1.45,0,.43.12.79.33,1.08.64.29.31.49.69.59,1.14.09.4.1.78.03,1.14s-.22.69-.43.98c-.21.29-.48.55-.79.75s-.66.36-1.03.45l-.15.03c-.37.09-.74.11-1.11.07-.37-.04-.71-.15-1.03-.32s-.59-.4-.82-.7c-.23-.3-.39-.65-.49-1.05-.12-.49-.11-.94.02-1.35.13-.41.36-.77.7-1.07.33-.3.76-.52,1.27-.65l-.08.28-2.25.54-.15-.62,4.93-1.18c.66-.16,1.22-.19,1.67-.09.45.1.82.34,1.11.72.29.38.52.93.69,1.64ZM23.02,74.67c-.09-.38-.25-.69-.49-.95-.23-.26-.52-.44-.86-.54-.34-.1-.71-.11-1.11-.01l-.51.12c-.38.09-.7.26-.94.51-.24.25-.41.54-.5.87-.09.33-.09.69,0,1.06.1.4.28.73.55.99.27.25.59.42.96.5.37.08.76.07,1.18-.03.43-.1.79-.27,1.08-.52.3-.24.5-.54.62-.88.12-.35.13-.72.03-1.11Z"/>
      <path class="cls-5" d="M22.72,66.26c.02.49-.05.91-.21,1.28-.15.37-.37.67-.64.91s-.59.42-.93.55c-.35.12-.71.19-1.08.21h-.15c-.37.02-.73-.02-1.08-.12s-.68-.26-.97-.48c-.29-.22-.52-.5-.7-.84-.18-.34-.28-.75-.3-1.21-.02-.6.09-1.1.34-1.5s.58-.72.98-.94c.4-.22.84-.33,1.32-.35l.42-.02.19,5.09-.62.02-.17-4.53.32.19c-.42.02-.79.1-1.11.26-.31.16-.56.38-.73.67s-.25.65-.23,1.07c.02.44.13.81.35,1.1.22.29.5.5.85.63.35.13.74.19,1.18.18.43-.02.82-.1,1.17-.26.35-.16.62-.4.82-.71.2-.31.29-.7.27-1.17-.02-.49-.15-.89-.38-1.19-.24-.3-.51-.48-.82-.54l-.03-.75c.38.06.72.2,1,.41.28.22.51.5.67.85.16.35.25.74.27,1.2Z"/>
      <path class="cls-5" d="M22.63,60.93l-5.63-.87.1-.64,2.36.36-.02.13c-.52-.08-.96-.23-1.31-.44-.35-.21-.61-.49-.76-.84s-.2-.75-.13-1.23v-.03c.11-.71.42-1.2.91-1.48s1.15-.36,1.95-.23l3.27.5-.12.79-3.44-.53c-.49-.08-.9,0-1.24.22s-.55.58-.62,1.06c-.08.5.02.92.28,1.27.26.35.64.56,1.15.64l3.38.52-.12.8Z"/>
      <path class="cls-5" d="M25.15,50.9c-.16.45-.38.82-.66,1.09-.28.28-.6.48-.95.6-.35.12-.72.18-1.09.17-.37,0-.73-.07-1.06-.19l-.14-.05c-.34-.12-.66-.3-.95-.53s-.52-.5-.71-.82c-.19-.32-.3-.67-.34-1.07-.04-.39.02-.81.18-1.25.16-.45.38-.81.67-1.1.29-.29.62-.49.99-.6.38-.11.77-.11,1.19,0l-.26.73c-.39-.07-.76-.01-1.11.19-.35.2-.61.54-.79,1.04-.15.43-.18.81-.09,1.16s.28.65.55.91.61.46,1.01.6c.39.14.78.2,1.17.18.39-.02.73-.14,1.03-.35.3-.21.53-.53.69-.97.12-.33.16-.64.13-.93-.03-.29-.12-.55-.27-.77-.15-.23-.34-.39-.57-.51l.26-.73c.4.17.7.43.92.76.22.33.35.71.38,1.13.04.42-.03.85-.19,1.29Z"/>
      <path class="cls-5" d="M27.58,44.85l-5.84-1,.42-.72,5.8,1.07-.38.65ZM28.74,47.55l-.62-.36.37-.63c.13-.22.21-.42.25-.6s.02-.37-.05-.55-.2-.38-.38-.58l-4.36-4.75.39-.68,4.52,4.94c.26.28.44.57.53.86s.12.58.06.87c-.05.29-.17.59-.35.9l-.35.6ZM27.63,44.77l-.59-.34.51-.88.59.34-.51.88Z"/>
    </g>
    <g>
      <circle class="cls-5" cx="34.15" cy="35.9" r="1.77"/>
      <circle class="cls-5" cx="92.42" cy="35.9" r="1.77"/>
    </g>
  </g>
</svg>