<?xml version="1.0" encoding="UTF-8"?>
<svg id="Layer_1" data-name="Layer 1" xmlns="http://www.w3.org/2000/svg" viewBox="0 0 208 35">
  <defs>
    <style>
      .cls-1 {
        fill: #2643d1;
      }

      .cls-2 {
        fill: #1d293f;
      }
    </style>
  </defs>
  <g>
    <path class="cls-2" d="M17.42,4.74l-4.58,15.58h-.56L7.82,4.74H.89v25.53h5.75v-12.71l3.97,12.71h3.81l3.64-11.78v11.78h6.28V4.74h-6.93Z"/>
    <path class="cls-2" d="M71.76,4.69l-4.35,16.97h-.78l-4.31-16.97h-7.13l8.43,25.62h6.71l8.38-25.62h-6.94Z"/>
    <path class="cls-2" d="M103.71,19.56v-3.97c0-2.35-.47-4.39-1.4-6.1-.93-1.72-2.29-3.03-4.09-3.95s-3.94-1.37-6.42-1.37-4.56.46-6.34,1.37c-1.78.91-3.14,2.23-4.07,3.95-.93,1.71-1.4,3.75-1.4,6.1v3.82c0,3.56,1.06,6.35,3.18,8.38,2.12,2.03,5.01,3.04,8.67,3.04,2.22,0,4.23-.35,6.02-1.05s3.19-1.69,4.19-2.96c.99-1.28,1.49-2.74,1.49-4.41v-.3h-6.81v.3c0,.59-.19,1.11-.56,1.57-.38.46-.91.8-1.62,1.03-.71.23-1.58.34-2.62.34-1.5,0-2.72-.47-3.65-1.4-.93-.93-1.4-2.16-1.4-3.7v-.69h16.8ZM88.25,11.11c.89-.96,2.1-1.45,3.6-1.45s2.78.44,3.65,1.32c.86.88,1.3,2.06,1.3,3.53v.29h-9.89c.02-1.53.47-2.76,1.34-3.7Z"/>
    <path class="cls-2" d="M116.68,10.83h-1.48v-6.03h-6.81v25.62h7.1v-11.95c0-2.22.51-3.93,1.52-5.12,1.01-1.19,2.4-1.79,4.16-1.79h7.38v-6.86c-3.61,0-10.74-1.53-11.87,6.12Z"/>
    <path class="cls-2" d="M152.06,7.11c-2.16-1.99-5.1-2.99-8.82-2.99s-6.72,1-8.89,2.99c-2.17,1.99-3.26,4.72-3.26,8.18v4.41c0,1.14.12,2.21.36,3.19h7.61c-.58-.84-.87-1.9-.87-3.19v-4.51c0-1.63.46-2.9,1.38-3.8.91-.9,2.12-1.35,3.63-1.35s2.77.45,3.7,1.35c.93.9,1.4,2.17,1.4,3.8v4.51c0,1.6-.45,2.86-1.35,3.77-.9.92-2.13,1.38-3.7,1.38s-2.8-.46-3.7-1.38c-.18-.18-.33-.37-.47-.57v7.48c1.25.33,2.63.49,4.13.49,3.79,0,6.75-1,8.89-3.01,2.14-2.01,3.21-4.73,3.21-8.16v-4.41c0-3.46-1.08-6.19-3.23-8.18Z"/>
    <g>
      <path class="cls-2" d="M38.75,15.13c-13,0-9.98,10.34-9.09,11.93,2.78,4.96,11.78,5.52,14.5-.95h1.05v4.16h6.66v-15.13h-13.13ZM43.97,22.55c-1.09,1.89-3.07,3.06-4.92,3.06-2.33,0-3.43-1.5-3.43-2.94,0-1.74.85-3.23,4.21-3.23h4.95s-.12,1.93-.81,3.11Z"/>
      <rect class="cls-2" x="29.13" y="4.74" width="22.75" height="6.46"/>
    </g>
  </g>
  <g>
    <path class="cls-1" d="M167.46,19.7c-.33.24-.74.36-1.23.36-.33,0-.62-.06-.87-.17-.25-.11-.46-.27-.63-.47-.17-.2-.3-.44-.39-.71-.09-.27-.13-.57-.13-.89s.04-.63.13-.9c.09-.27.21-.51.38-.71s.37-.36.62-.47c.25-.11.53-.16.85-.16s.59.05.84.16c.25.1.45.26.62.46s.27.45.31.75h1.27c-.05-.51-.21-.95-.47-1.33-.26-.38-.61-.68-1.04-.89-.43-.21-.94-.31-1.53-.31s-1.05.1-1.46.29c-.41.19-.75.45-1.01.77s-.46.67-.59,1.06c-.13.39-.19.79-.19,1.19v.19c0,.36.06.74.19,1.13.12.39.32.75.58,1.08.26.33.6.6,1.02.81.42.21.92.31,1.51.31.61,0,1.14-.12,1.59-.35.44-.23.79-.54,1.05-.92.25-.38.41-.81.47-1.27h-1.27c-.07.43-.27.77-.61,1.01Z"/>
    <path class="cls-1" d="M171.65,18.9h1.14s.02,0,.03,0l1.52,2.16h1.47l-1.73-2.38s.03-.01.05-.02c.38-.15.67-.38.88-.69.21-.31.31-.7.31-1.18v-.14c0-.47-.1-.87-.31-1.18-.21-.31-.5-.55-.88-.7s-.83-.23-1.35-.23h-2.4v6.51h1.26v-2.16ZM172.93,15.62c.23,0,.43.05.6.14.17.09.3.23.39.4.09.17.14.37.14.59s-.05.41-.14.59c-.09.17-.23.3-.39.4-.17.09-.37.14-.6.14h-1.28v-2.26h1.28Z"/>
    <polygon class="cls-1" points="178.01 21.06 180.76 21.06 180.76 20 178.01 20 178.01 18.31 180.53 18.31 180.53 17.24 178.01 17.24 178.01 15.66 180.69 15.66 180.69 14.59 178.01 14.59 177.83 14.59 176.78 14.59 176.78 21.06 177.83 21.06 178.01 21.06"/>
    <path class="cls-1" d="M183.25,19.34h2.82l.59,1.72h1.29l-2.27-6.47h-2.06l-2.21,6.47h1.26l.57-1.72ZM184.48,15.65h.33l.9,2.63h-2.1l.87-2.63Z"/>
    <polygon class="cls-1" points="190.9 21.06 190.9 15.7 192.77 15.7 192.77 14.59 187.77 14.59 187.77 15.7 189.64 15.7 189.64 21.06 190.9 21.06"/>
    <rect class="cls-1" x="193.78" y="14.59" width="1.26" height="6.47"/>
    <polygon class="cls-1" points="200.18 21.06 202.1 14.59 200.84 14.59 199.31 20.02 199 20.02 197.35 14.59 196.04 14.59 198.11 21.06 200.18 21.06"/>
    <polygon class="cls-1" points="204.35 20 204.35 18.31 206.88 18.31 206.88 17.24 204.35 17.24 204.35 15.66 207.04 15.66 207.04 14.59 204.35 14.59 204.17 14.59 203.12 14.59 203.12 21.06 204.17 21.06 204.35 21.06 207.11 21.06 207.11 20 204.35 20"/>
    <path class="cls-1" d="M164.88,24.24l-2.21,6.47h1.26l.57-1.72h2.82l.59,1.72h1.29l-2.27-6.47h-2.06ZM164.86,27.92l.87-2.63h.33l.9,2.63h-2.1Z"/>
    <path class="cls-1" d="M172.73,28.36h1.83v.71c-.13.15-.29.28-.49.39-.33.18-.7.27-1.13.27-.33,0-.62-.05-.88-.16s-.48-.25-.66-.45c-.18-.2-.33-.44-.43-.72-.1-.28-.15-.61-.15-.97,0-.33.05-.63.14-.9.09-.27.22-.51.39-.7.17-.2.38-.35.62-.45.25-.11.52-.16.82-.16s.58.05.83.16c.25.11.46.26.62.46.17.2.27.44.31.71h1.27c-.05-.5-.2-.93-.47-1.31-.27-.38-.62-.67-1.05-.88-.44-.21-.94-.31-1.51-.31-.53,0-.99.09-1.4.28-.4.19-.74.44-1.02.75-.27.31-.48.66-.62,1.05-.14.39-.21.79-.21,1.2v.2c0,.43.07.85.22,1.25.14.4.36.76.65,1.07.29.32.64.57,1.06.75.42.19.91.28,1.47.28.62,0,1.17-.12,1.65-.35s.86-.56,1.13-.98v-1.19h.54v-.94h-3.53v.94Z"/>
    <polygon class="cls-1" points="178.52 27.95 181.05 27.95 181.05 26.89 178.52 26.89 178.52 25.3 181.21 25.3 181.21 24.24 178.52 24.24 178.35 24.24 177.29 24.24 177.29 30.71 178.35 30.71 178.52 30.71 181.28 30.71 181.28 29.64 178.52 29.64 178.52 27.95"/>
    <polygon class="cls-1" points="187.47 29.66 187.36 29.66 184.64 24.24 182.57 24.24 182.57 30.71 183.74 30.71 183.74 25.28 183.87 25.28 186.59 30.71 188.66 30.71 188.66 24.24 187.47 24.24 187.47 29.66"/>
    <path class="cls-1" d="M194.4,29.34c-.33.24-.74.36-1.23.36-.33,0-.62-.06-.87-.17-.25-.11-.46-.27-.63-.47-.17-.2-.3-.44-.39-.71-.09-.27-.13-.57-.13-.89s.04-.63.13-.9c.09-.27.21-.51.38-.71.17-.2.37-.36.62-.47.25-.11.53-.16.85-.16s.59.05.84.16c.25.1.45.26.62.46.16.2.27.45.31.75h1.27c-.05-.51-.21-.95-.47-1.33-.26-.38-.61-.68-1.04-.89-.43-.21-.94-.31-1.53-.31s-1.05.1-1.46.29c-.41.19-.75.45-1.01.77s-.46.67-.59,1.06c-.13.39-.19.79-.19,1.19v.2c0,.36.06.74.19,1.13.12.39.32.75.58,1.08.26.33.6.6,1.02.81.42.21.92.31,1.51.31.61,0,1.14-.12,1.59-.35.44-.23.79-.54,1.05-.92.25-.38.41-.81.47-1.27h-1.27c-.07.43-.27.77-.61,1.01Z"/>
    <polygon class="cls-1" points="199.66 27.28 199.32 27.28 197.87 24.24 196.58 24.24 198.53 28.23 198.85 28.23 198.85 30.71 200.08 30.71 200.08 28.23 200.4 28.23 202.2 24.24 200.97 24.24 199.66 27.28"/>
  </g>
  <g>
    <path class="cls-1" d="M164.48,9.06v-2.99h.58v2.99h-.58ZM164.89,8.06v-.47h.76c.11,0,.2-.02.28-.06.08-.04.14-.1.18-.18.04-.08.07-.17.07-.27s-.02-.19-.07-.27c-.04-.08-.1-.14-.18-.18-.08-.04-.17-.07-.28-.07h-.76v-.49h.7c.24,0,.45.04.62.11.18.07.31.18.41.32.1.14.14.32.14.54v.06c0,.22-.05.4-.14.54s-.23.25-.41.32c-.17.07-.38.11-.62.11h-.7ZM166.3,9.06l-.91-1.3h.65l.94,1.3h-.68Z"/>
    <path class="cls-1" d="M165.6,10.97c-1.86,0-3.38-1.52-3.38-3.38s1.52-3.38,3.38-3.38,3.38,1.52,3.38,3.38-1.52,3.38-3.38,3.38ZM165.6,4.74c-1.57,0-2.85,1.28-2.85,2.85s1.28,2.85,2.85,2.85,2.85-1.28,2.85-2.85-1.28-2.85-2.85-2.85Z"/>
  </g>
</svg>