<?xml version="1.0" encoding="UTF-8"?>
<svg id="Layer_1" data-name="Layer 1" xmlns="http://www.w3.org/2000/svg" xmlns:xlink="http://www.w3.org/1999/xlink" viewBox="0 0 267.1 206.86">
  <defs>
    <style>
      .cls-1 {
        fill: url(#radial-gradient);
      }
    </style>
    <radialGradient id="radial-gradient" cx="133.21" cy="10.21" fx="133.21" fy="10.21" r="568.36" gradientUnits="userSpaceOnUse">
      <stop offset="0" stop-color="#2643d1"/>
      <stop offset=".21" stop-color="#45b1f8"/>
      <stop offset=".21" stop-color="#49b2f7"/>
      <stop offset=".26" stop-color="#70c1f6"/>
      <stop offset=".32" stop-color="#93cef5"/>
      <stop offset=".38" stop-color="#b0d9f4"/>
      <stop offset=".45" stop-color="#c7e1f4"/>
      <stop offset=".52" stop-color="#d9e8f3"/>
      <stop offset=".61" stop-color="#e6edf3"/>
      <stop offset=".73" stop-color="#edf0f3"/>
      <stop offset="1" stop-color="#f0f1f3"/>
    </radialGradient>
  </defs>
  <path class="cls-1" d="M133.91,195.53c-.12.12-.24.24-.37.36-.12-.12-.24-.24-.37-.36-29.16-29.16-29.16-76.44,0-105.61.12-.12.24-.24.37-.36.12.12.24.24.37.36,29.16,29.16,29.16,76.44,0,105.61Z"/>
  <path class="cls-1" d="M172.85,50.27l-38.98,38.98c-.11.1-.21.21-.32.32-.11-.11-.21-.21-.32-.32l-38.98-38.98c.23-.22.45-.45.67-.68l38.63-38.63,38.63,38.63c.22.22.44.45.67.68Z"/>
  <path class="cls-1" d="M263.22,62.04c-10.38,6.05-21.9,9.38-33.55,10-20.28,1.09-40.92-6.05-56.48-21.42-.11-.11-.23-.22-.34-.34t0,0l39.3-39.3,39.3,39.3,11.77,11.77Z"/>
  <path class="cls-1" d="M94.25,50.27s0,0,0,0c-.11.11-.23.23-.34.34-15.56,15.37-36.2,22.51-56.48,21.42-11.64-.62-23.17-3.96-33.55-10l11.77-11.77L54.95,10.97l39.3,39.3Z"/>
</svg>